<svg xmlns="http://www.w3.org/2000/svg" xmlns:xlink="http://www.w3.org/1999/xlink" width="24" height="24" viewBox="0 0 24 24">
  <defs>
    <clipPath id="clip-path">
      <path id="MingCute" d="M24,0V24H0V0ZM12.594,23.258l-.012,0-.071.035-.019,0h0l-.015,0-.071-.035a.021.021,0,0,0-.024.005l0,.011-.017.427.005.02.011.012.1.074.015,0h0l.012,0,.1-.074.013-.016h0l0-.017-.017-.427a.021.021,0,0,0-.016-.018Zm.265-.112-.014,0-.185.092-.01.01h0l0,.011.018.429,0,.013h0l.009.007.2.093a.025.025,0,0,0,.028-.008l0-.014-.034-.615a.025.025,0,0,0-.019-.021Zm-.715,0a.023.023,0,0,0-.027.005l-.006.014-.034.615a.023.023,0,0,0,.017.023h.016l.2-.093.009-.008h0l0-.012.018-.429,0-.013h0l-.009-.009Z" fill="none"/>
    </clipPath>
  </defs>
  <g id="icon_wrong" clip-path="url(#clip-path)">
    <path id="形状" d="M14,2A12,12,0,1,1,2,14,12,12,0,0,1,14,2ZM11.454,9.757a1.2,1.2,0,0,0-1.8,1.584l.1.113L12.3,14,9.757,16.546a1.2,1.2,0,0,0,1.584,1.8l.113-.1L14,15.7l2.546,2.546a1.2,1.2,0,0,0,1.8-1.584l-.1-.113L15.7,14l2.546-2.546a1.2,1.2,0,0,0-1.584-1.8l-.113.1L14,12.3Z" transform="translate(-2 -2)" fill="#ee1a3d"/>
  </g>
</svg>
