<svg xmlns="http://www.w3.org/2000/svg" width="16.805" height="16.805" viewBox="0 0 16.805 16.805">
  <g id="bth_coins" transform="translate(-3 -3)">
    <path id="路径_160682" data-name="路径 160682" d="M7.2,17.013a3.081,3.081,0,0,0,.588,1.83C5.287,18.684,3,17.769,3,16.08v-.822a8.08,8.08,0,0,0,4.2,1.447Zm.037-3.8a.035.035,0,0,0-.009.028,1.425,1.425,0,0,0-.028.28V15.3C4.942,15.043,3,14.147,3,12.588v-.822a7.963,7.963,0,0,0,4.229,1.447ZM10.88,9.8A5.841,5.841,0,0,0,7.733,11.85C5.25,11.692,3,10.777,3,9.1V8.462A9.164,9.164,0,0,0,8.6,9.983,13.392,13.392,0,0,0,10.88,9.8ZM14.2,8.462V9.1a1.818,1.818,0,0,1-.019.233,12.379,12.379,0,0,0-2.091.177A6.374,6.374,0,0,0,14.2,8.462ZM8.6,3C5.8,3,3,3.934,3,5.791,3,7.668,5.8,8.583,8.6,8.583s5.6-.915,5.6-2.791C14.2,3.934,11.4,3,8.6,3Zm5.6,14.713A9.149,9.149,0,0,1,8.6,16.1v.915c0,1.858,2.8,2.791,5.6,2.791s5.6-.934,5.6-2.791V16.1A9.149,9.149,0,0,1,14.2,17.713Zm0-6.983c-3.09,0-5.6,1.251-5.6,2.791s2.511,2.791,5.6,2.791,5.6-1.251,5.6-2.791S17.293,10.73,14.2,10.73Z" transform="translate(0 0)" fill="#39325a"/>
  </g>
</svg>
