<svg xmlns="http://www.w3.org/2000/svg" width="35" height="35" viewBox="0 0 35 35"><defs><clipPath id="a"><rect width="35" height="35" rx="17.5" transform="translate(1274 427)" fill="#fff"/></clipPath></defs><g transform="translate(-1274 -427)" clip-path="url(#a)"><g fill="#adaabf" fill-rule="evenodd"><path d="M1303.436 444.056s-4.395-8.056-11.718-8.056-11.718 8.056-11.718 8.056 4.394 8.056 11.718 8.056 11.718-8.056 11.718-8.056zm-21.718 0a19.238 19.238 0 0 0 2.431 2.993 10.915 10.915 0 0 0 7.568 3.6 10.923 10.923 0 0 0 7.57-3.6 19.238 19.238 0 0 0 2.431-2.993 19.236 19.236 0 0 0-2.431-2.993 10.926 10.926 0 0 0-7.57-3.6 10.923 10.923 0 0 0-7.57 3.6 19.236 19.236 0 0 0-2.431 2.993z"/><path d="M1291.718 440.394a3.662 3.662 0 1 0 3.662 3.662 3.662 3.662 0 0 0-3.662-3.662zm-5.127 3.662a5.127 5.127 0 1 1 5.127 5.127 5.127 5.127 0 0 1-5.127-5.127z"/></g></g></svg>