<svg xmlns="http://www.w3.org/2000/svg" xmlns:xlink="http://www.w3.org/1999/xlink" width="27" height="37" viewBox="0 0 27 37">
  <defs>
    <clipPath id="clip-path">
      <rect id="_1" data-name="1" width="27" height="37" transform="translate(0 -5)" fill="#39325a" stroke="#38315a" stroke-width="3"/>
    </clipPath>
  </defs>
  <g id="icon_share_mini" transform="translate(0 5)" clip-path="url(#clip-path)">
    <path id="_1-2" data-name="1" d="M20.579,11.249A4.663,4.663,0,0,1,17.111,9.7l-5.264,3.05a5.192,5.192,0,0,1,.221,1.375,5.052,5.052,0,0,1-.516,2.175l5.067,2.949a4.815,4.815,0,1,1-.738,2.576,3.81,3.81,0,0,1,.05-.525l-5.756-3.325.024-.025a4.563,4.563,0,0,1-2.853,1,4.813,4.813,0,0,1-.025-9.624,4.661,4.661,0,0,1,3.468,1.549l5.264-3.05a5.183,5.183,0,0,1-.221-1.375,4.735,4.735,0,1,1,4.747,4.8Zm0,13.474a2.875,2.875,0,1,0-2.828-2.875A2.853,2.853,0,0,0,20.579,24.723ZM7.321,11.249a2.875,2.875,0,1,0,2.829,2.875,2.852,2.852,0,0,0-2.829-2.875Zm13.258-7.7a2.875,2.875,0,1,0,2.829,2.875A2.852,2.852,0,0,0,20.579,3.549Zm0,0" transform="translate(-1.463 -1.624)" fill="#39325a" stroke="#39325a" stroke-width="1"/>
  </g>
</svg>
