<svg xmlns="http://www.w3.org/2000/svg" xmlns:xlink="http://www.w3.org/1999/xlink" width="16" height="16" viewBox="0 0 16 16">
  <defs>
    <clipPath id="clip-path">
      <rect id="矩形_1714" data-name="矩形 1714" width="16" height="16" transform="translate(839.693 588.693)" fill="#ffae51" stroke="#707070" stroke-width="1"/>
    </clipPath>
  </defs>
  <g id="tips_small" transform="translate(-839.693 -588.693)" clip-path="url(#clip-path)">
    <path id="路径_7001" data-name="路径 7001" d="M71.2,64a7.213,7.213,0,1,1-5.085,2.113A7.179,7.179,0,0,1,71.2,64Zm1.076,4.419a.986.986,0,0,0,.691-.25.949.949,0,0,0,0-1.333,1.061,1.061,0,0,0-1.365,0,.951.951,0,0,0,0,1.333.966.966,0,0,0,.675.25Zm.193,5.783c0-.064.005-.15.016-.257a1.464,1.464,0,0,0,0-.305l-.851.98a1.124,1.124,0,0,1-.265.225.285.285,0,0,1-.233.049A.2.2,0,0,1,71,74.668l1.413-4.45a.925.925,0,0,0-.867-1.157,2.339,2.339,0,0,0-1.229.474A4.633,4.633,0,0,0,69.157,70.7v.241a1.466,1.466,0,0,0,0,.305l.851-.98a1.125,1.125,0,0,1,.265-.225.257.257,0,0,1,.217-.048.2.2,0,0,1,.112.257l-1.4,4.434a.8.8,0,0,0,.113.715,1.212,1.212,0,0,0,.787.425,2.117,2.117,0,0,0,1.35-.465A5.178,5.178,0,0,0,72.467,74.2h0Z" transform="translate(776.496 525.496)" fill="#ffae51"/>
  </g>
</svg>
