<svg xmlns="http://www.w3.org/2000/svg" width="23.999" height="24.002" viewBox="0 0 23.999 24.002">
  <g id="Facebook" transform="translate(-15.794 -609.792)">
    <path id="减去_15" data-name="减去 15" d="M6058.469,15161.794h-7.675a4,4,0,0,1-4-4v-16a4,4,0,0,1,4-4h16a4,4,0,0,1,4,4v16a4,4,0,0,1-4,4h-4.3v-9.09h3.01v-3.521h-2.945v-2.111a.99.99,0,0,1,1.088-.959h2.881v-3.52h-4.608c-3.176,0-3.452,3.736-3.455,3.774v2.751h-2.561v3.523h2.561v9.151Z" transform="translate(-6031 -14528)" fill="#3c5a99"/>
    <path id="减去_10" data-name="减去 10" d="M-33.535,15146.794h-7.671a4,4,0,0,1-4-4v-16a4.006,4.006,0,0,1,4-4h16a4.006,4.006,0,0,1,4,4v16a4,4,0,0,1-4,4h-4.3v-9.089h3.011v-3.52h-2.946v-2.114a.988.988,0,0,1,1.087-.957h2.881v-3.521h-4.607c-3.166,0-3.457,3.736-3.459,3.774v2.753h-2.558v3.52h2.558v9.153Z" transform="translate(61 -14513)" fill="#3c5a99"/>
  </g>
</svg>
