<svg xmlns="http://www.w3.org/2000/svg" xmlns:xlink="http://www.w3.org/1999/xlink" width="19" height="19" viewBox="0 0 19 19">
  <defs>
    <clipPath id="clip-path">
      <rect id="Rectangle_31694" data-name="Rectangle 31694" width="19" height="19" transform="translate(711 370)" fill="#fff" stroke="#707070" stroke-width="1"/>
    </clipPath>
  </defs>
  <g id="btn_share_hover" transform="translate(-711 -370)" clip-path="url(#clip-path)">
    <path id="Path_175255" data-name="Path 175255" d="M6.913,90.057l4.781,2.786m-.007-7.686L6.913,87.943M15.6,84.1A2.1,2.1,0,1,1,13.5,82,2.1,2.1,0,0,1,15.6,84.1ZM7.2,89a2.1,2.1,0,1,1-2.1-2.1A2.1,2.1,0,0,1,7.2,89Zm8.4,4.9a2.1,2.1,0,1,1-2.1-2.1A2.1,2.1,0,0,1,15.6,93.9Z" transform="translate(711.199 290.5)" fill="none" stroke="#fffdf5" stroke-linecap="round" stroke-linejoin="round" stroke-width="2"/>
  </g>
</svg>
