<svg xmlns="http://www.w3.org/2000/svg" xmlns:xlink="http://www.w3.org/1999/xlink" width="14" height="14" viewBox="0 0 14 14">
  <defs>
    <clipPath id="clip-path">
      <rect id="Rectangle_31643" data-name="Rectangle 31643" width="14" height="14" transform="translate(4.71 4.566)" stroke="#707070" stroke-width="1"/>
    </clipPath>
  </defs>
  <g id="btn_heart_s_normal" transform="translate(-4.71 -4.566)" clip-path="url(#clip-path)">
    <path id="Path_175241" data-name="Path 175241" d="M12.632,6.818a3.835,3.835,0,0,0-5.418,0l-.347.347-.347-.347a3.835,3.835,0,0,0-5.417,0,3.875,3.875,0,0,0-.022,5.395c1.323,1.47,5.225,4.647,5.391,4.781a.6.6,0,0,0,.382.136h.013a.585.585,0,0,0,.4-.136c.166-.134,4.068-3.311,5.391-4.781a3.875,3.875,0,0,0-.022-5.395Zm-.88,4.583a64.657,64.657,0,0,1-4.885,4.348A64.518,64.518,0,0,1,1.983,11.4a2.677,2.677,0,0,1-.022-3.726,2.621,2.621,0,0,1,3.7,0l.762.763a.587.587,0,0,0,.325.164.608.608,0,0,0,.558-.164l.763-.763a2.621,2.621,0,0,1,3.7,0A2.678,2.678,0,0,1,11.753,11.4Z" transform="translate(4.842 0.225)" fill="#cfcfcf"/>
  </g>
</svg>
