<svg xmlns="http://www.w3.org/2000/svg" xmlns:xlink="http://www.w3.org/1999/xlink" width="52" height="52" viewBox="0 0 52 52">
  <defs>
    <clipPath id="clip-path">
      <rect id="矩形_31473" data-name="矩形 31473" width="52" height="52" transform="translate(453 641)" fill="#fff" stroke="#707070" stroke-width="1"/>
    </clipPath>
  </defs>
  <g id="icon_queue" transform="translate(-453 -641)" clip-path="url(#clip-path)">
    <g id="组_13520" data-name="组 13520" transform="translate(444.492 642.439)">
      <path id="路径_161011" data-name="路径 161011" d="M17.2,61.416l17.306-7.709,17.306,7.709a23.506,23.506,0,1,0-34.611,0Z" transform="translate(0 -19.894)" fill="#fe3d97"/>
      <path id="路径_161012" data-name="路径 161012" d="M171.8,9.972a9.919,9.919,0,0,1-3.006,7.17,3.455,3.455,0,0,1-2.433.98H157.25a3.457,3.457,0,0,1-2.435-.981,10,10,0,0,1-.027-14.262A9.928,9.928,0,0,1,161.948,0l1.2,1.315L161.915,2.4a7.6,7.6,0,0,0-5.423,13.027,1.087,1.087,0,0,0,.758.3h9.113a1.085,1.085,0,0,0,.756-.3,7.539,7.539,0,0,0,2.285-5.45l1.184-1.233Z" transform="translate(-127.299 0)" fill="#ffc242"/>
      <path id="路径_161013" data-name="路径 161013" d="M240.433,150.683H237.22a1.53,1.53,0,0,1-.216-.017v6.22h3.645v-6.22A1.531,1.531,0,0,1,240.433,150.683Z" transform="translate(-204.319 -136.211)" fill="#3f57a0"/>
      <path id="路径_161014" data-name="路径 161014" d="M254.677,11.182a1.2,1.2,0,0,1-1.2-1.2,7.63,7.63,0,0,0-7.489-7.578A1.2,1.2,0,0,1,246,.009h.017a10.04,10.04,0,0,1,9.854,9.971,1.2,1.2,0,0,1-1.2,1.2Z" transform="translate(-211.372 -0.008)" fill="#fef156"/>
      <path id="路径_161015" data-name="路径 161015" d="M91.916,200.329l3.155-2.543,3.426,4.249-3.155,2.543Z" transform="translate(-73.151 -178.81)" fill="#2a428b"/>
      <path id="路径_161016" data-name="路径 161016" d="M81.125,183.348l-3.106,2.5a1.205,1.205,0,1,0,1.512,1.877l3.106-2.5a1.205,1.205,0,1,0-1.512-1.877Z" transform="translate(-60.183 -165.517)" fill="#5071b7"/>
      <path id="路径_161017" data-name="路径 161017" d="M353.238,204.458l-3.155-2.543,3.576-4.436,3.155,2.543Z" transform="translate(-306.549 -178.533)" fill="#2a428b"/>
      <path id="路径_161018" data-name="路径 161018" d="M378.922,183.348l3.106,2.5a1.205,1.205,0,1,1-1.512,1.877l-3.106-2.5a1.205,1.205,0,0,1,1.512-1.877Z" transform="translate(-330.849 -165.517)" fill="#6b8fce"/>
      <path id="路径_161019" data-name="路径 161019" d="M359.041,345.034l-3.631,14a23.567,23.567,0,0,0,7.768-5.583,17.834,17.834,0,0,0,.48-2.953Z" transform="translate(-311.365 -311.931)" fill="#ade9f7"/>
      <path id="路径_161020" data-name="路径 161020" d="M78.332,257.451a23.569,23.569,0,0,1-7.769-5.584,17.865,17.865,0,0,1,7.4-19.2l5.368,4.642Z" transform="translate(-53.361 -210.345)" fill="#6ad9fb"/>
      <path id="路径_161021" data-name="路径 161021" d="M171.332,204.384a17.849,17.849,0,0,0-19.814,0c0,.006-.865,3.09,1.882,3.642l19.92,4.247Z" transform="translate(-126.918 -182.061)" fill="#ade9f7"/>
      <path id="路径_161022" data-name="路径 161022" d="M347.526,247.511a17.825,17.825,0,0,0-7.936-14.841,2.7,2.7,0,0,0-1.883,3.642c.981,2.879,5.687,12.549,5.687,12.549s1.733,2.332,4.075.055C347.5,248.452,347.526,247.984,347.526,247.511Z" transform="translate(-295.175 -210.347)" fill="#e8f8fc"/>
      <path id="路径_161023" data-name="路径 161023" d="M131.781,270.909l-13-.282A13.856,13.856,0,0,0,115.6,273.8h0l-.106,1.523-1.244.814,0,0a13.691,13.691,0,0,0-1.158,4.335l.818,1.349-.817,1.349a13.683,13.683,0,0,0,1.16,4.338h0l1.47.6-.12,1.736a13.853,13.853,0,0,0,1.663,1.919q.9.4,1.826.72l1.582-.151,1.073.9a23.638,23.638,0,0,0,10.113,0l1.118-.9Z" transform="translate(-92.295 -244.663)" fill="#2a428b"/>
      <path id="路径_161024" data-name="路径 161024" d="M208.454,256.809a13.687,13.687,0,0,0-1.158-4.335l0,0-1.47-.814.12-1.523h0a13.858,13.858,0,0,0-3.175-3.175h0l-1.523.12-.814-1.47v0a13.692,13.692,0,0,0-4.337-1.159l-1.349,1.108-1.35-1.108a13.684,13.684,0,0,0-4.338,1.159v0l-.814,1.47.848,1.289a4.089,4.089,0,0,0,4.536,3.589l2.83,8.219s-1.445,6.144,3.939,7.773l.523.72,1.536.151q.927-.321,1.825-.72a13.857,13.857,0,0,0,1.663-1.919l-.12-1.669,1.47-.667h0a13.684,13.684,0,0,0,1.16-4.338l-.884-1.349Z" transform="translate(-160.235 -220.995)" fill="#3f57a0"/>
      <path id="路径_161025" data-name="路径 161025" d="M244.633,304.432v-6.87a1.35,1.35,0,1,0-2.7,0v6.87Z" transform="translate(-208.776 -267.794)" fill="#fe3d97"/>
      <g id="组_13519" data-name="组 13519" transform="translate(20.731 23.387)">
        <path id="路径_161026" data-name="路径 161026" d="M126.182,243.762q-.683,0-1.35.066v1.056a1.35,1.35,0,1,0,2.7,0v-1.056Q126.859,243.762,126.182,243.762Zm-6.888,1.846q-.585.338-1.136.732l.528.915a1.349,1.349,0,0,0,2.337-1.35l-.528-.915Q119.88,245.27,119.293,245.608Zm14.384,22.215a1.349,1.349,0,0,0-2.439,1.127,23.328,23.328,0,0,0,2.657-.749ZM114.251,250.65q-.338.586-.618,1.2l.915.528a1.349,1.349,0,0,0,1.35-2.337l-.915-.528Q114.589,250.064,114.251,250.65Zm21.721,12.541a1.35,1.35,0,0,0,.494,1.844l.915.528q.393-.55.732-1.136t.618-1.2l-.915-.528A1.349,1.349,0,0,0,135.972,263.191ZM112.4,257.539q0,.683.066,1.35h1.056a1.35,1.35,0,1,0,0-2.7h-1.056Q112.405,256.862,112.4,257.539Zm25.082,0a1.35,1.35,0,0,0,1.35,1.35h1.056q.065-.666.066-1.35c0-.455-.023-.905-.066-1.35h-1.056A1.35,1.35,0,0,0,137.487,257.539Zm-23.236,6.888q.338.585.732,1.136l.915-.528a1.35,1.35,0,0,0-1.35-2.337l-.915.528Q113.912,263.841,114.251,264.427Zm21.721-12.541a1.349,1.349,0,0,0,1.843.494l.915-.528q-.277-.609-.618-1.2t-.732-1.136l-.915.528A1.35,1.35,0,0,0,135.972,251.886Zm-15.443,15.443a1.35,1.35,0,0,0-1.844.494l-.218.377a23.3,23.3,0,0,0,2.657.75A1.349,1.349,0,0,0,120.529,267.329Zm11.305-19.581a1.35,1.35,0,0,0,1.843-.494l.528-.915q-.55-.393-1.136-.732t-1.2-.618l-.528.915A1.349,1.349,0,0,0,131.834,247.748Z" transform="translate(-112.405 -243.762)" fill="#6289cd"/>
      </g>
      <circle id="椭圆_3058" data-name="椭圆 3058" cx="3.351" cy="3.351" r="3.351" transform="translate(30.473 39.669) rotate(-76.7)" fill="#fd77a6"/>
      <path id="路径_161027" data-name="路径 161027" d="M228.347,442.238h-3.158a1.523,1.523,0,1,0,0,3.047h3.158a1.523,1.523,0,1,0,0-3.047Z" transform="translate(-192.261 -399.809)" fill="#fef156"/>
      <path id="路径_161028" data-name="路径 161028" d="M223.245,98.126H219.6a1.6,1.6,0,0,1-1.6-1.6V92.743a1.6,1.6,0,0,1,1.6-1.6h3.646l1.154,3.491Z" transform="translate(-187.138 -82.4)" fill="#02c0fc"/>
      <path id="路径_161029" data-name="路径 161029" d="M259.646,96.527V92.743a1.6,1.6,0,0,0-1.6-1.6H257.6a1.6,1.6,0,0,0-1.6,1.6v3.784a1.6,1.6,0,0,0,1.6,1.6h.447A1.6,1.6,0,0,0,259.646,96.527Z" transform="translate(-221.492 -82.4)" fill="#6ad9fb"/>
    </g>
  </g>
</svg>
