<svg xmlns="http://www.w3.org/2000/svg" xmlns:xlink="http://www.w3.org/1999/xlink" width="117" height="38" viewBox="0 0 117 38">
  <defs>
    <clipPath id="clip-path">
      <rect id="矩形_1659" data-name="矩形 1659" width="117" height="38" transform="translate(375 14)" fill="#fff" stroke="#707070" stroke-width="1"/>
    </clipPath>
    <clipPath id="clip-path-2">
      <rect id="矩形_1657" data-name="矩形 1657" width="45" height="41" transform="translate(0 0.704)" fill="#fff" opacity="0.64"/>
    </clipPath>
    <linearGradient id="linear-gradient" x1="0.336" y1="0.92" x2="0.465" y2="0.332" gradientUnits="objectBoundingBox">
      <stop offset="0" stop-color="#588bff"/>
      <stop offset="0.287" stop-color="#58acff"/>
      <stop offset="0.619" stop-color="#6a65ff"/>
      <stop offset="1" stop-color="#9f65b9"/>
    </linearGradient>
    <linearGradient id="linear-gradient-2" x1="0.302" y1="0.036" x2="0.5" y2="1" gradientUnits="objectBoundingBox">
      <stop offset="0" stop-color="#588bff"/>
      <stop offset="0.262" stop-color="#58acff"/>
      <stop offset="0.523" stop-color="#6a65ff"/>
      <stop offset="1" stop-color="#9f65b9"/>
    </linearGradient>
    <linearGradient id="linear-gradient-3" x1="0.487" y1="0.082" x2="0.5" y2="1" gradientUnits="objectBoundingBox">
      <stop offset="0" stop-color="#588bff"/>
      <stop offset="0.318" stop-color="#58acff"/>
      <stop offset="0.767" stop-color="#6a65ff"/>
      <stop offset="1" stop-color="#9f65b9"/>
    </linearGradient>
  </defs>
  <g id="蒙版组_77" data-name="蒙版组 77" transform="translate(-375 -14)" clip-path="url(#clip-path)">
    <g id="组_10322" data-name="组 10322" transform="translate(0 1)">
      <g id="组_28" data-name="组 28" transform="translate(423.901 21.99)">
        <path id="路径_19" data-name="路径 19" d="M15.625-34.219,9.71-16.016a3.737,3.737,0,0,1-.741,1.334,2.279,2.279,0,0,1-1.765.795,2.13,2.13,0,0,1-1.576-.579,4.863,4.863,0,0,1-1.1-1.9L-1.5-34.219H1.936L7.177-18.994,12.23-34.219Zm4.743,3.449a1.785,1.785,0,0,1-.5,1.32,1.683,1.683,0,0,1-1.24.5,1.758,1.758,0,0,1-1.293-.525,1.774,1.774,0,0,1-.552-1.388,1.6,1.6,0,0,1,.552-1.24,1.8,1.8,0,0,1,1.24-.472,1.836,1.836,0,0,1,1.267.5A1.774,1.774,0,0,1,20.368-30.77Zm-.243,16.586H17V-28.129h3.126Zm16.923-6.71a6.947,6.947,0,0,1-1.6,4.325,6.716,6.716,0,0,1-5.6,2.681,6.554,6.554,0,0,1-5.457-2.479,7.065,7.065,0,0,1-1.59-4.473,7.541,7.541,0,0,1,2.2-5.632A7.561,7.561,0,0,1,28.1-28.311c.355-.085-.2.389-.147,1.57s.628,1.276.324,1.431a5.169,5.169,0,0,0-1.337,1.155A4.161,4.161,0,0,0,25.865-21.2a3.938,3.938,0,0,0,.027.525,3.989,3.989,0,0,0,1.63,3.032,4.15,4.15,0,0,0,2.452.781,3.45,3.45,0,0,0,2.937-1.415,6.026,6.026,0,0,0,1.011-3.611V-34.165h3.126ZM52.421-8.255H49.3l-.013-12.476a4.9,4.9,0,0,0-1.345-3.759,3.71,3.71,0,0,0-2.6-.957,3.987,3.987,0,0,0-2.61.957,4.02,4.02,0,0,0-1.439,3.261,4.4,4.4,0,0,0,1.076,3.1A7.16,7.16,0,0,0,44-16.865a3.854,3.854,0,0,0-.144,1.636c.2,1.087.9,1.36.719,1.342a6.433,6.433,0,0,1-4.636-2.4,6.994,6.994,0,0,1-1.817-4.689l.04-.148A7.11,7.11,0,0,1,40.254-26.5a6.718,6.718,0,0,1,4.877-1.9,7.481,7.481,0,0,1,4.743,1.59,6.636,6.636,0,0,1,2.52,5.551ZM66.056-19.937a5.756,5.756,0,0,1-1.711,4.285,5.969,5.969,0,0,1-4.365,1.711,5.837,5.837,0,0,1-4.056-1.442,6.2,6.2,0,0,1-1.886-4.877v-7.869h3.126l-.027,8.286a2.793,2.793,0,0,0,.856,2.1,2.769,2.769,0,0,0,1.987.829,2.756,2.756,0,0,0,2.1-.916,2.885,2.885,0,0,0,.856-2.008v-4.837a1.933,1.933,0,0,0,1.605.575,1.644,1.644,0,0,0,1.521-1.2Z" transform="translate(1.5 34.219)" fill="#281fae"/>
        <circle id="椭圆_6" data-name="椭圆 6" cx="1.581" cy="1.581" r="1.581" transform="translate(31.33 5.3)" fill="#281fae"/>
        <circle id="椭圆_7" data-name="椭圆 7" cx="1.581" cy="1.581" r="1.581" transform="translate(64.394 5.3)" fill="#281fae"/>
        <circle id="椭圆_8" data-name="椭圆 8" cx="1.581" cy="1.581" r="1.581" transform="translate(46.852 17.372)" fill="#281fae"/>
      </g>
      <g id="蒙版组_75" data-name="蒙版组 75" transform="translate(375 10.296)" clip-path="url(#clip-path-2)">
        <g id="组_10321" data-name="组 10321" transform="translate(0.502 0.582)">
          <g id="组_10320" data-name="组 10320" transform="translate(0 0)">
            <path id="减去_3" data-name="减去 3" d="M0,24.929.105,0A10.878,10.878,0,0,1,4.55,1.044,11.6,11.6,0,0,1,8.172,3.727,12.527,12.527,0,0,1,10.61,7.663a13.178,13.178,0,0,1,.893,4.8,13.175,13.175,0,0,1-.9,4.825,12.52,12.52,0,0,1-2.463,3.948,11.589,11.589,0,0,1-3.656,2.678A10.875,10.875,0,0,1,0,24.929Z" transform="matrix(-0.839, -0.545, 0.545, -0.839, 26.197, 32.851)" fill="url(#linear-gradient)"/>
            <path id="路径_4" data-name="路径 4" d="M.069,0A12.33,12.33,0,0,1,11.9,8.211c3.252,8.693.043,23.789-.229,24.343s-1.024,4.693-6.2,3.549S0,30.711,0,30.711Z" transform="translate(0 6.673) rotate(-30)" fill="url(#linear-gradient-2)"/>
          </g>
          <path id="多边形_1" data-name="多边形 1" d="M5.437,2.526a2,2,0,0,1,3.337,0l3.387,5.127a2,2,0,0,1-1.669,3.1H3.719a2,2,0,0,1-1.669-3.1Z" transform="matrix(-0.5, 0.866, -0.866, -0.5, 44.581, 27.952)" fill="url(#linear-gradient-3)"/>
        </g>
      </g>
    </g>
  </g>
</svg>
