<svg xmlns="http://www.w3.org/2000/svg" xmlns:xlink="http://www.w3.org/1999/xlink" width="28" height="28" viewBox="0 0 28 28">
  <defs>
    <clipPath id="clip-path">
      <rect id="矩形_3352" data-name="矩形 3352" width="18.204" height="14.563" transform="translate(0 0)" fill="#aa79ff"/>
    </clipPath>
  </defs>
  <g id="组_14070" data-name="组 14070" transform="translate(-896 -589)">
    <g id="矩形_3349" data-name="矩形 3349" transform="translate(896 589)" fill="none" stroke="#aa79ff" stroke-width="1">
      <rect width="28" height="28" rx="2" stroke="none"/>
      <rect x="0.5" y="0.5" width="27" height="27" rx="1.5" fill="none"/>
    </g>
    <g id="组_12929" data-name="组 12929" transform="translate(901 596)">
      <g id="组_12928" data-name="组 12928" transform="translate(0 0)" clip-path="url(#clip-path)">
        <path id="路径_16209" data-name="路径 16209" d="M3.641,10.922h7.282v-.5a1.84,1.84,0,0,0-1-1.616,5,5,0,0,0-2.64-.614,5,5,0,0,0-2.64.614,1.84,1.84,0,0,0-1,1.616ZM7.282,7.282A1.824,1.824,0,0,0,9.1,5.461a1.826,1.826,0,0,0-1.82-1.82A1.738,1.738,0,0,0,6,4.176a1.771,1.771,0,0,0-.535,1.285,1.826,1.826,0,0,0,1.82,1.82M1.82,14.563a1.752,1.752,0,0,1-1.285-.534A1.757,1.757,0,0,1,0,12.743V1.82A1.751,1.751,0,0,1,.535.535,1.757,1.757,0,0,1,1.82,0H12.743a1.754,1.754,0,0,1,1.286.535,1.749,1.749,0,0,1,.534,1.285v4.1l2.867-2.867a.444.444,0,0,1,.774.319V11.2a.444.444,0,0,1-.774.318L14.563,8.647v4.1a1.824,1.824,0,0,1-1.82,1.82Z" transform="translate(0 0)" fill="#aa79ff"/>
      </g>
    </g>
  </g>
</svg>
