<svg xmlns="http://www.w3.org/2000/svg" xmlns:xlink="http://www.w3.org/1999/xlink" width="81" height="81" viewBox="0 0 81 81">
  <defs>
    <clipPath id="clip-path">
      <rect id="矩形_30721" data-name="矩形 30721" width="81" height="81" transform="translate(82 1186)" fill="none" stroke="#707070" stroke-width="1"/>
    </clipPath>
  </defs>
  <g id="icon_photos_time" transform="translate(-82 -1186)" clip-path="url(#clip-path)">
    <g id="icon_" transform="translate(0 -27.16)">
      <g id="组_13248" data-name="组 13248" transform="matrix(0.883, -0.469, 0.469, 0.883, 81.445, 1242.321)">
        <path id="路径_160803" data-name="路径 160803" d="M37.523,47.2H9.681A9.691,9.691,0,0,1,0,37.523V9.681A9.691,9.691,0,0,1,9.681,0H37.523A9.691,9.691,0,0,1,47.2,9.681V37.523A9.691,9.691,0,0,1,37.523,47.2Z" fill="#f2f2f2" stroke="#c9c9c9" stroke-width="1"/>
        <path id="路径_160805" data-name="路径 160805" d="M208.356,79.691h-.509a4.61,4.61,0,0,1-4.61-4.61V69.61a4.61,4.61,0,0,1,4.61-4.61h.509a4.61,4.61,0,0,1,4.61,4.61v5.471A4.61,4.61,0,0,1,208.356,79.691Z" transform="translate(-184.5 -59.007)" fill="#ffab15"/>
        <path id="路径_160806" data-name="路径 160806" d="M116.442,116.082l-.36.36a4.61,4.61,0,0,1-6.519,0l-3.869-3.869a4.61,4.61,0,0,1,0-6.519l.36-.36a4.61,4.61,0,0,1,6.519,0l3.869,3.869A4.61,4.61,0,0,1,116.442,116.082Z" transform="translate(-94.724 -94.724)" fill="#ff6849"/>
        <path id="路径_160807" data-name="路径 160807" d="M79.691,207.848v.509a4.61,4.61,0,0,1-4.61,4.61H69.61a4.61,4.61,0,0,1-4.61-4.61v-.509a4.61,4.61,0,0,1,4.61-4.61h5.471A4.61,4.61,0,0,1,79.691,207.848Z" transform="translate(-59.007 -184.5)" fill="#ff5ad4"/>
        <path id="路径_160808" data-name="路径 160808" d="M116.082,263.138l.36.36a4.61,4.61,0,0,1,0,6.519l-3.869,3.869a4.61,4.61,0,0,1-6.519,0l-.36-.36a4.61,4.61,0,0,1,0-6.519l3.869-3.869A4.61,4.61,0,0,1,116.082,263.138Z" transform="translate(-94.724 -237.652)" fill="#cd67e5"/>
        <path id="路径_160809" data-name="路径 160809" d="M207.848,287.657h.509a4.61,4.61,0,0,1,4.61,4.61v5.471a4.61,4.61,0,0,1-4.61,4.61h-.509a4.61,4.61,0,0,1-4.61-4.61v-5.471A4.61,4.61,0,0,1,207.848,287.657Z" transform="translate(-184.5 -261.136)" fill="#00c3ff"/>
        <path id="路径_160810" data-name="路径 160810" d="M263.138,263.5l.36-.36a4.61,4.61,0,0,1,6.519,0l3.869,3.869a4.61,4.61,0,0,1,0,6.519l-.36.36a4.61,4.61,0,0,1-6.519,0l-3.869-3.869A4.61,4.61,0,0,1,263.138,263.5Z" transform="translate(-237.652 -237.652)" fill="#39e5d0"/>
        <path id="路径_160811" data-name="路径 160811" d="M287.657,208.356v-.509a4.61,4.61,0,0,1,4.61-4.61h5.471a4.61,4.61,0,0,1,4.61,4.61v.509a4.61,4.61,0,0,1-4.61,4.61h-5.471A4.61,4.61,0,0,1,287.657,208.356Z" transform="translate(-261.136 -184.5)" fill="#bee548"/>
        <path id="路径_160812" data-name="路径 160812" d="M263.5,116.442l-.36-.36a4.61,4.61,0,0,1,0-6.519l3.869-3.869a4.61,4.61,0,0,1,6.519,0l.36.36a4.61,4.61,0,0,1,0,6.519l-3.869,3.869A4.61,4.61,0,0,1,263.5,116.442Z" transform="translate(-237.652 -94.724)" fill="#ffdc40"/>
        <path id="路径_160813" data-name="路径 160813" d="M256.255,65H256V79.691h.255a4.61,4.61,0,0,0,4.61-4.61V69.61A4.61,4.61,0,0,0,256.255,65Z" transform="translate(-232.398 -59.007)" fill="#ff9400"/>
        <path id="路径_160814" data-name="路径 160814" d="M256.255,287.657H256v14.691h.255a4.61,4.61,0,0,0,4.61-4.61v-5.471A4.61,4.61,0,0,0,256.255,287.657Z" transform="translate(-232.398 -261.136)" fill="#00aaf0"/>
        <path id="路径_160815" data-name="路径 160815" d="M203.238,128.62v4.215a4.611,4.611,0,0,0,3.61,4.5,4.611,4.611,0,0,0-.629-5.734Z" transform="translate(-184.5 -116.762)" fill="#fd4b2d"/>
        <path id="路径_160816" data-name="路径 160816" d="M263.144,131.6a4.611,4.611,0,0,0-.629,5.734,4.611,4.611,0,0,0,3.61-4.5V128.62Z" transform="translate(-237.659 -116.762)" fill="#e08344"/>
        <path id="路径_160817" data-name="路径 160817" d="M288.851,206.847a4.611,4.611,0,0,0,5.734-.629l2.981-2.981h-4.215A4.611,4.611,0,0,0,288.851,206.847Z" transform="translate(-262.22 -184.5)" fill="#82b415"/>
        <path id="路径_160818" data-name="路径 160818" d="M288.851,262.515a4.611,4.611,0,0,0,4.5,3.61h4.215l-2.981-2.981A4.611,4.611,0,0,0,288.851,262.515Z" transform="translate(-262.22 -237.658)" fill="#66cc70"/>
        <path id="路径_160819" data-name="路径 160819" d="M266.125,293.35a4.611,4.611,0,0,0-3.61-4.5,4.611,4.611,0,0,0,.629,5.734l2.981,2.981V293.35Z" transform="translate(-237.658 -262.219)" fill="#107be5"/>
        <path id="路径_160820" data-name="路径 160820" d="M203.238,293.349v4.215l2.981-2.981a4.611,4.611,0,0,0,.629-5.734A4.611,4.611,0,0,0,203.238,293.349Z" transform="translate(-184.5 -262.219)" fill="#a056b2"/>
        <path id="路径_160821" data-name="路径 160821" d="M131.6,263.144l-2.981,2.981h4.215a4.611,4.611,0,0,0,4.5-3.61A4.61,4.61,0,0,0,131.6,263.144Z" transform="translate(-116.763 -237.659)" fill="#ff26be"/>
        <path id="路径_160822" data-name="路径 160822" d="M137.335,206.848a4.61,4.61,0,0,0-4.5-3.61H128.62l2.981,2.981A4.611,4.611,0,0,0,137.335,206.848Z" transform="translate(-116.762 -184.5)" fill="#ea596e"/>
      </g>
      <g id="组_13245" data-name="组 13245" transform="translate(117 1237)">
        <circle id="椭圆_2985" data-name="椭圆 2985" cx="22.5" cy="22.5" r="22.5" fill="#6aa9ff"/>
        <path id="路径_160769" data-name="路径 160769" d="M278.252,22.252A22.339,22.339,0,0,0,256,0V44.5A22.339,22.339,0,0,0,278.252,22.252Z" transform="translate(-233.748)" fill="#4895ff"/>
        <circle id="椭圆_2986" data-name="椭圆 2986" cx="19.5" cy="19.5" r="19.5" transform="translate(3 3)" fill="#edf5ff"/>
        <path id="路径_160770" data-name="路径 160770" d="M275.644,49.644A19.728,19.728,0,0,0,256,30V69.289A19.728,19.728,0,0,0,275.644,49.644Z" transform="translate(-233.748 -27.392)" fill="#d5e8fe"/>
        <circle id="椭圆_2987" data-name="椭圆 2987" cx="1.304" cy="1.304" r="1.304" transform="translate(9.885 32.011)" fill="#47568c"/>
        <circle id="椭圆_2988" data-name="椭圆 2988" cx="1.304" cy="1.304" r="1.304" transform="translate(32.011 9.885)" fill="#29376d"/>
        <circle id="椭圆_2989" data-name="椭圆 2989" cx="1.304" cy="1.304" r="1.304" transform="translate(9.885 9.885)" fill="#47568c"/>
        <circle id="椭圆_2990" data-name="椭圆 2990" cx="1.304" cy="1.304" r="1.304" transform="translate(32.011 32.011)" fill="#29376d"/>
        <path id="路径_160771" data-name="路径 160771" d="M64.911,243.608H62.3a1.3,1.3,0,0,1,0-2.608h2.608a1.3,1.3,0,0,1,0,2.608Z" transform="translate(-55.698 -220.052)" fill="#47568c"/>
        <path id="路径_160772" data-name="路径 160772" d="M394.911,243.608H392.3a1.3,1.3,0,1,1,0-2.608h2.608a1.3,1.3,0,0,1,0,2.608Z" transform="translate(-357.014 -220.052)" fill="#29376d"/>
        <path id="路径_160773" data-name="路径 160773" d="M241,62.3v2.608a1.3,1.3,0,0,0,1.3,1.3V61A1.3,1.3,0,0,0,241,62.3Z" transform="translate(-220.052 -55.698)" fill="#47568c"/>
        <path id="路径_160774" data-name="路径 160774" d="M257.3,64.911V62.3A1.3,1.3,0,0,0,256,61v5.215A1.3,1.3,0,0,0,257.3,64.911Z" transform="translate(-233.748 -55.698)" fill="#ff7b4a"/>
        <path id="路径_160775" data-name="路径 160775" d="M242.3,171.861a1.3,1.3,0,0,0-1.3,1.3v2.608a1.3,1.3,0,0,0,2.608,0v-2.608A1.3,1.3,0,0,0,242.3,171.861Zm8.745-4.833-7.441-7.441V152.3a1.3,1.3,0,0,0-2.608,0v7.823a1.3,1.3,0,0,0,.382.922l.922.922,6.9,6.9a1.3,1.3,0,1,0,1.844-1.844Z" transform="translate(-220.052 -137.875)" fill="#47568c"/>
        <g id="组_13244" data-name="组 13244" transform="translate(22.252 5.302)">
          <path id="路径_160776" data-name="路径 160776" d="M257.3,64.911V62.3A1.3,1.3,0,0,0,256,61v5.215A1.3,1.3,0,0,0,257.3,64.911Zm0,28.684V90.988a1.3,1.3,0,0,0-1.3-1.3V94.9A1.3,1.3,0,0,0,257.3,93.6Zm7.441-6.9a1.3,1.3,0,0,0,0-1.844L257.3,77.41V70.127a1.3,1.3,0,0,0-1.3-1.3v10.97l6.9,6.9A1.3,1.3,0,0,0,264.745,86.694Z" transform="translate(-256 -61)" fill="#29376d"/>
        </g>
      </g>
    </g>
  </g>
</svg>
