<svg xmlns="http://www.w3.org/2000/svg" width="58" height="52" viewBox="0 0 58 52">
  <g id="win_icon_max" transform="translate(-463 -686)">
    <g id="组_13222" data-name="组 13222" transform="translate(462 685)">
      <path id="路径_160728" data-name="路径 160728" d="M1,18V4A3,3,0,0,1,4,1H18.19a5,5,0,0,1,3.2,1.158l3.219,2.683A5,5,0,0,0,27.81,6H56a3,3,0,0,1,3,3v9Z" fill="#e58b0a"/>
      <path id="路径_160729" data-name="路径 160729" d="M6,16V13a3,3,0,0,1,3-3H51a3,3,0,0,1,3,3v3Z" fill="#fff"/>
      <rect id="矩形_30686" data-name="矩形 30686" width="58" height="38" rx="3" transform="translate(1 15)" fill="#ffb90b"/>
    </g>
    <path id="路径_160730" data-name="路径 160730" d="M1.054,0H3.961V-7.174L6.647,0H8.993l2.669-7.157V0h2.907V-11.934H11.152L7.837-3.672,4.488-11.934H1.054ZM23.239-3.638c0,.85-.561,1.292-1.53,1.292H19.567V-4.981h2.108C22.644-4.981,23.239-4.488,23.239-3.638ZM22.95-8.347c0,.816-.527,1.241-1.479,1.241h-1.9V-9.6h1.9C22.423-9.6,22.95-9.163,22.95-8.347Zm3.23,5.1a2.894,2.894,0,0,0-2.3-2.873,2.708,2.708,0,0,0,2.023-2.72c0-1.887-1.445-3.094-3.876-3.094H16.66V0h5.559C24.735,0,26.18-1.275,26.18-3.247Z" transform="translate(478.383 722.967)" fill="#39325a"/>
  </g>
</svg>
