<svg xmlns="http://www.w3.org/2000/svg" xmlns:xlink="http://www.w3.org/1999/xlink" width="49.622" height="37.799" viewBox="0 0 49.622 37.799">
  <defs>
    <linearGradient id="linear-gradient" x1="0.5" x2="0.897" y2="1" gradientUnits="objectBoundingBox">
      <stop offset="0" stop-color="#ffa907"/>
      <stop offset="1" stop-color="#ff1a07"/>
    </linearGradient>
  </defs>
  <g id="icon_1080" transform="translate(-65.847 -111.154)">
    <g id="_1080_HD" data-name="1080_HD" transform="translate(65.847 111.154)">
      <path id="路径_175533" data-name="路径 175533" d="M110.295,111.154H71.022a5.18,5.18,0,0,0-5.175,5.174v27.45a5.181,5.181,0,0,0,5.175,5.175h39.273a5.181,5.181,0,0,0,5.175-5.175v-27.45A5.18,5.18,0,0,0,110.295,111.154ZM89.961,144.131a1.044,1.044,0,0,1-2.088,0v-1.667H85.741v1.667a1.044,1.044,0,1,1-2.088,0V138.71a1.044,1.044,0,1,1,2.088,0v1.667h2.132V138.71a1.044,1.044,0,1,1,2.088,0Zm3.947,1.044h-1.2a1.044,1.044,0,0,1-1.044-1.044V138.71a1.044,1.044,0,0,1,1.044-1.044h1.2a3.754,3.754,0,0,1,0,7.509Zm19.473-10.269H67.935V116.328a3.09,3.09,0,0,1,3.087-3.087h39.273a3.09,3.09,0,0,1,3.087,3.087Z" transform="translate(-65.847 -111.154)" fill="url(#linear-gradient)"/>
      <path id="路径_175534" data-name="路径 175534" d="M153.432,185.634h-.153v3.334h.153a1.667,1.667,0,1,0,0-3.333ZM138,164.061a1.043,1.043,0,0,0-1.134.213l-2.248,2.186a1.044,1.044,0,1,0,1.455,1.5l.476-.463v8.091a1.044,1.044,0,1,0,2.088,0V165.023a1.044,1.044,0,0,0-.638-.962Zm6.321-.082a3.881,3.881,0,0,0-3.877,3.877v4.9a3.877,3.877,0,1,0,7.753,0v-4.9a3.881,3.881,0,0,0-3.877-3.877Zm1.789,8.773a1.789,1.789,0,1,1-3.578,0v-4.9a1.789,1.789,0,1,1,3.578,0Zm16.074-8.773a3.881,3.881,0,0,0-3.877,3.877v4.9a3.877,3.877,0,1,0,7.753,0v-4.9a3.881,3.881,0,0,0-3.877-3.877Zm1.789,8.773a1.789,1.789,0,1,1-3.578,0v-4.9a1.789,1.789,0,1,1,3.578,0Zm-6.871-5.119a3.719,3.719,0,0,0-3.714-3.714h-.256a3.713,3.713,0,0,0-2.373,6.57,3.713,3.713,0,0,0,2.372,6.57h.256a3.713,3.713,0,0,0,2.373-6.57,3.708,3.708,0,0,0,1.342-2.856Zm-3.971-1.627h.256a1.627,1.627,0,1,1,0,3.253h-.256a1.627,1.627,0,1,1,0-3.253Zm.256,8.964h-.256a1.627,1.627,0,1,1,0-3.254h.256a1.627,1.627,0,0,1,0,3.254Z" transform="translate(-125.371 -157.034)" fill="url(#linear-gradient)"/>
    </g>
  </g>
</svg>
