<svg xmlns="http://www.w3.org/2000/svg" xmlns:xlink="http://www.w3.org/1999/xlink" width="69.891" height="48" viewBox="0 0 69.891 48">
  <defs>
    <clipPath id="clip-path">
      <rect id="去水印" width="48" height="48" transform="translate(456 252)" fill="#ff6060"/>
    </clipPath>
  </defs>
  <g id="icon_mark" transform="translate(-445.055 -252)">
    <g id="蒙版组_8058" data-name="蒙版组 8058" clip-path="url(#clip-path)">
      <g id="watermark_1_" data-name="watermark (1)" transform="translate(456 258.223)">
        <path id="路径_175637" data-name="路径 175637" d="M41.377,32.7H6.623A6.623,6.623,0,0,1,0,26.077V9.478A6.624,6.624,0,0,1,6.623,2.854H41.377A6.623,6.623,0,0,1,48,9.477v16.6A6.624,6.624,0,0,1,41.377,32.7ZM44.2,25.888V9.666A3.017,3.017,0,0,0,41.188,6.65H6.732A3.017,3.017,0,0,0,3.715,9.666V25.888A3.017,3.017,0,0,0,6.732,28.9H41.188A3.017,3.017,0,0,0,44.2,25.888Z" fill="#1b1e37"/>
        <path id="路径_175638" data-name="路径 175638" d="M11.357,18.141h.053l1.733-5h3.029v9.273H14.24V15.549h-.053L12.123,21.3H10.457L8.419,15.549H8.34v6.866H6.489V13.141H9.6Zm11.31-5,2.817,9.273H23.367l-.582-2.129H19.676l-.6,2.129H17.044l2.8-9.273h2.818ZM20.14,18.618h2.183l-.357-1.3c-.357-1.283-.542-1.958-.7-2.778h-.053c-.159.794-.357,1.548-.688,2.725l-.383,1.349Zm9.206-5.477c2.05,0,3.214.781,3.214,2.725A2.346,2.346,0,0,1,30.6,18.445V18.5a2.8,2.8,0,0,1,1.23,1.362l1.416,2.553H30.841L29.307,19.4a.814.814,0,0,0-.847-.436h-.132v3.453h-2V13.141Zm-1.019,4.22h.767c1.072,0,1.416-.463,1.416-1.323s-.5-1.23-1.389-1.23h-.794v2.553Zm7.725,5.053H34.029V13.141h2.024v9.273Zm2.8-9.273h2.328L38.3,17.652l3.175,4.762H38.949L36.1,17.745v-.053l2.752-4.551Z" fill="#1b1e37"/>
      </g>
    </g>
    <line id="直线_263" data-name="直线 263" x2="66" y2="26" transform="translate(447 264)" fill="none" stroke="red" stroke-linecap="round" stroke-width="3"/>
  </g>
</svg>
