<svg xmlns="http://www.w3.org/2000/svg" width="47.857" height="53.268" viewBox="0 0 47.857 53.268">
  <g id="icon_time" transform="translate(-26.001)">
    <path id="路径_175617" data-name="路径 175617" d="M47.608,65.112,44.5,62a3.818,3.818,0,0,0-5.405,0l-2.255,2.26a3.824,3.824,0,0,0,0,5.394l3.117,3.123a1.561,1.561,0,0,0,2.207,0c.61-.609,4.835-4.847,5.444-5.455a1.561,1.561,0,0,0,0-2.207Z" transform="translate(-8.713 -54.541)" fill="#2386ee"/>
    <path id="路径_175618" data-name="路径 175618" d="M242.561,3A1.561,1.561,0,0,0,241,4.561V9.554a1.561,1.561,0,0,0,3.121,0V4.561A1.561,1.561,0,0,0,242.561,3Z" transform="translate(-192.631 -2.688)" fill="#2386ee"/>
    <path id="路径_175619" data-name="路径 175619" d="M213.259,0h-7.7a1.561,1.561,0,1,0,0,3.121h7.7a1.561,1.561,0,1,0,0-3.121Z" transform="translate(-159.48)" fill="#de513c"/>
    <path id="路径_175620" data-name="路径 175620" d="M209.41,0h-3.849a1.561,1.561,0,1,0,0,3.121h3.849Z" transform="translate(-159.48)" fill="#fc6249"/>
    <path id="路径_175621" data-name="路径 175621" d="M66.851,58.131a24.008,24.008,0,1,0,7.007,16.952A23.749,23.749,0,0,0,66.851,58.131Z" transform="translate(0 -45.791)" fill="#de513c"/>
    <path id="路径_175622" data-name="路径 175622" d="M49.93,51.108a23.975,23.975,0,0,0,0,47.95Z" transform="translate(0 -45.791)" fill="#fc6249"/>
    <path id="路径_175623" data-name="路径 175623" d="M101.282,108.538a18,18,0,1,0,17.966,18A18,18,0,0,0,101.282,108.538Z" transform="translate(-51.352 -97.246)" fill="#deeeff"/>
    <path id="路径_175624" data-name="路径 175624" d="M101.282,108.538a18,18,0,0,0,0,36Z" transform="translate(-51.352 -97.246)" fill="#fff"/>
    <path id="路径_175625" data-name="路径 175625" d="M101.282,112.437a1.561,1.561,0,0,0,1.561-1.561v-2.269c-.514-.045-1.035-.069-1.561-.069s-1.046.024-1.561.069v2.269A1.561,1.561,0,0,0,101.282,112.437Zm0,28.2a1.561,1.561,0,0,0-1.561,1.561v2.269c.514.045,1.035.069,1.561.069s1.046-.024,1.561-.069V142.2A1.561,1.561,0,0,0,101.282,140.641Zm17.9-15.663h-2.235a1.561,1.561,0,0,0,0,3.121h2.235c.044-.514.068-1.035.068-1.561S119.224,125.493,119.179,124.979Zm-32,1.561a1.561,1.561,0,0,0-1.561-1.561H83.384c-.044.514-.068,1.035-.068,1.561s.024,1.046.068,1.561h2.235A1.561,1.561,0,0,0,87.18,126.539Zm17.951-.9h-2.2v-6.312a1.561,1.561,0,0,0-3.121,0V127.2a1.561,1.561,0,0,0,1.561,1.561h3.762a1.561,1.561,0,0,0,0-3.121Z" transform="translate(-51.352 -97.247)" fill="#2386ee"/>
  </g>
</svg>
