<svg xmlns="http://www.w3.org/2000/svg" width="14.875" height="14.875" viewBox="0 0 14.875 14.875">
  <g id="bth_icon_black_coins" transform="translate(-3 -3)">
    <path id="路径_160682" data-name="路径 160682" d="M6.719,15.4a2.727,2.727,0,0,0,.521,1.62C5.025,16.883,3,16.073,3,14.578V13.85a7.152,7.152,0,0,0,3.719,1.281Zm.033-3.363a.031.031,0,0,0-.008.025,1.261,1.261,0,0,0-.025.248v1.578C4.719,13.66,3,12.867,3,11.487V10.76a7.048,7.048,0,0,0,3.744,1.281ZM9.975,9.016A5.17,5.17,0,0,0,7.19,10.834C4.992,10.694,3,9.884,3,8.4V7.834A8.112,8.112,0,0,0,7.958,9.181a11.854,11.854,0,0,0,2.016-.165Zm2.942-1.182V8.4A1.609,1.609,0,0,1,12.9,8.6a10.958,10.958,0,0,0-1.851.157A5.642,5.642,0,0,0,12.917,7.834ZM7.958,3C5.479,3,3,3.826,3,5.471,3,7.132,5.479,7.942,7.958,7.942s4.958-.81,4.958-2.471C12.917,3.826,10.438,3,7.958,3Zm4.958,13.024a8.1,8.1,0,0,1-4.958-1.43v.81c0,1.645,2.479,2.471,4.958,2.471s4.958-.826,4.958-2.471v-.81A8.1,8.1,0,0,1,12.917,16.024Zm0-6.181c-2.735,0-4.958,1.107-4.958,2.471s2.223,2.471,4.958,2.471,4.958-1.107,4.958-2.471S15.652,9.843,12.917,9.843Z" fill="#39325a"/>
  </g>
</svg>
