<svg id="_11" data-name="11" xmlns="http://www.w3.org/2000/svg" xmlns:xlink="http://www.w3.org/1999/xlink" width="160" height="160" viewBox="0 0 160 160">
  <defs>
    <linearGradient id="linear-gradient" x1="1.004" y1="0.811" x2="-0.046" y2="0.17" gradientUnits="objectBoundingBox">
      <stop offset="0" stop-color="#aeb7c4"/>
      <stop offset="1" stop-color="#cfd5e0"/>
    </linearGradient>
    <linearGradient id="linear-gradient-2" x1="0.982" y1="0.898" x2="0.056" y2="0.067" gradientUnits="objectBoundingBox">
      <stop offset="0" stop-color="#dce2ec"/>
      <stop offset="1" stop-color="#eef1f5"/>
    </linearGradient>
    <linearGradient id="linear-gradient-3" x1="0.5" y1="-0.023" x2="0.5" y2="1.007" gradientUnits="objectBoundingBox">
      <stop offset="0" stop-color="#fdfeff"/>
      <stop offset="1" stop-color="#f3f5f8"/>
    </linearGradient>
    <linearGradient id="linear-gradient-5" x1="1" y1="0.898" x2="0.041" y2="0.067" xlink:href="#linear-gradient-2"/>
  </defs>
  <path id="bg" d="M0,0H160V160H0Z" fill="none"/>
  <g id="组_6352" data-name="组 6352" transform="translate(10 10)">
    <path id="矩形" d="M64,64H204V204H64Z" transform="translate(-64 -64)" fill="none"/>
    <g id="组_6351" data-name="组 6351" transform="translate(0.002 17.5)">
      <path id="Path" d="M369.114,211.792l-.323,1.333-.369,1.308-.414,1.281-.458,1.266-.494,1.228-.527,1.191-.755,1.375-.806,1.32-.861,1.269-.914,1.219-.975,1.175-1.023,1.114-1.073,1.053-1.125,1-1.177.934-1.222.866-1.272.8-1.32.731-1.414.7-1.447.62-1.483.536-1.522.453-1.542.364-1.567.275-1.594.186-1.625.1-1.62,0-1.638-.091-1.658-.187-1.678-.286-1.653-.416-1.6-.5-1.544-.584-1.494-.67L327.473,232l-1.4-.828-1.339-.9-1.286-.975-1.231-1.047-1.164-1.1-1.1-1.167-1.041-1.23-.97-1.284-.9-1.333-.827-1.381-.758-1.433-.678-1.47-.6-1.508-.519-1.545-.441-1.586-.352-1.6-.264-1.63-.177-1.658-.087-1.689.006-1.686.1-1.7.2-1.72.3-1.744.373-1.614.444-1.559.514-1.508.583-1.458.652-1.413.728-1.388.786-1.328.84-1.272.9-1.219.956-1.164,1.02-1.119,1.063-1.055,1.109-.992,1.155-.93,1.2-.87,1.247-.808,1.28-.737,1.313-.666,1.348-.6,1.388-.53,1.409-.453,1.431-.377,1.458-.3,1.483-.22,1.511-.142,1.506-.058,1.522.028,1.537.114,1.558.2,1.578.3,1.661.423,1.609.508,1.559.6,1.516.681,1.47.767,1.425.848,1.381.928,1.338,1.006,1.3,1.091,1.256,1.175.989,1.106.927,1.144.864,1.178.8,1.216.744,1.255.686,1.291.622,1.314.556,1.339.5,1.364.433,1.394.366,1.409.3,1.422.234,1.436.167,1.45.1,1.466.033,1.466-.038,1.466-.106,1.467-.176,1.472Z" transform="translate(-273.538 -176)" fill="url(#linear-gradient)"/>
      <path id="Path-2" data-name="Path" d="M125.149,381.5l-.08.022-.05.045-.05.045-.08.022-12.027,5.847-.356.142-.347.066-.345-.008-.337-.073-.32-.133-.3-.2-.269-.244-.234-.294-.2-.35-.136-.375-.062-.366.006-.363.07-.356.127-.334.186-.319.234-.286.28-.247.33-.211,8.275-3.945-2.586-.945,4.137-12.38-9.05-5.172,2.973-12.369-12.414-3,4.137-10.2L104.2,332.8,69.288,349.666l-.666.358-.62.4-.58.447-.541.491-.658.719-.575.775-.5.834-.411.881-.322.914-.233.95-.138.97-.039.981.061,1,.111.739.173.734.236.73.3.73,19.655,45.427.341.7.383.655.423.609.464.564.509.531.539.478.567.43.6.381.839.434.869.339.9.244.692.119.7.059.7,0,.712-.058.7-.117.7-.181.7-.247.7-.316,34.525-16.6,2.069-11.559Z" transform="translate(-64.01 -308.3)" fill="url(#linear-gradient-2)"/>
      <path id="Path-3" data-name="Path" d="M355.7,641.094l.2.294.234.25.272.211.3.164.319.114.341.063.345.006.347-.055.355-.12,12.008-4.967.08-.019.05-.039.05-.037.08-.019-5.683-1.739-8.263,3.353-.333.215-.278.238-.231.258-.187.289-.127.3-.069.3-.006.309.063.311Z" transform="translate(-309.955 -563.45)" fill="url(#linear-gradient-3)"/>
      <path id="Path-4" data-name="Path" d="M241.533,683.58,229,688.594l-.37.122-.362.055-.361-.006-.356-.062-.333-.116-.314-.166-.284-.212-.244-.253-.206-.294-.142-.325-.064-.312.006-.309.073-.3.131-.288.2-.276.241-.241.291-.209.348-.181,12.534-5,.37-.124.362-.058.361,0,.356.064.333.114.314.167.284.212.244.25.206.292.142.324.064.313-.008.311-.072.3-.131.288-.2.275-.241.241-.291.211Z" transform="translate(-200.655 -601.275)" fill="url(#linear-gradient-3)"/>
      <path id="Path-5" data-name="Path" d="M596.128,389.213l8.494-48.65.1-.783.045-.766-.014-.75-.073-.738-.183-.972-.275-.927-.364-.887-.453-.845-.528-.784-.6-.727-.5-.5-.538-.458-.573-.414-.611-.372-.637-.319-.667-.266-.7-.212-.734-.158L553.6,321.6l.57,3.77-8.878,5.833,8.619,9.714-9.309,8.173,4.572,9.47-10.183,7.586,1.7,2.25,4,.722.356.092.316.15.28.209.241.258.2.294.15.333.1.353.037.366-.02.384-.1.334-.142.306-.184.28-.222.252-.244.206-.27.162-.29.116-.3.055-.309,0,5.119,7.075-7.925,8.028,44.124,8.317.755.113.739.048.725-.011.712-.07.708-.128.684-.18.662-.233.642-.284.817-.458.761-.537.706-.619.486-.511.444-.55.4-.589.363-.633.308-.655.258-.687.206-.725Z" transform="translate(-464.774 -298.85)" fill="url(#linear-gradient-5)"/>
      <path id="Path-6" data-name="Path" d="M630.53,664.583l-14.148-2.54-.389-.1-.344-.159-.3-.223-.264-.273-.211-.311-.164-.353-.1-.374-.042-.389.023-.408.1-.392.158-.347.219-.309.27-.266.308-.214.349-.166.372-.106.384-.044.4.02,14.148,2.553.388.1.344.156.306.22.262.272.212.311.163.352.1.375.04.387-.022.408-.1.394-.158.347-.219.309-.272.269-.308.214-.348.165-.37.106-.384.042Z" transform="translate(-528.537 -582.358)" fill="#f5f9ff"/>
      <path id="Path-7" data-name="Path" d="M749.281,675.752l-14.148-2.541-.389-.094-.344-.156-.3-.219-.264-.272-.211-.308-.164-.352-.1-.372-.042-.386.023-.406.1-.391.156-.347.22-.308.27-.266.308-.214.349-.166.37-.1.384-.042.4.023,14.148,2.528.389.1.344.159.306.22.262.273.213.309.162.35.1.374.042.386-.023.406-.094.4-.153.355-.211.322-.266.28-.3.222-.347.169-.369.1-.392.026Z" transform="translate(-628.732 -591.808)" fill="#f5f9ff"/>
      <path id="Path-8" data-name="Path" d="M814.838,455.107l.113-.958.016-.933-.081-.911-.173-.9-.256-.859-.339-.825-.42-.786-.492-.733-.562-.68-.63-.619-.687-.548-.75-.48-.8-.4-.847-.309-.9-.223-.694-.1-.68-.039-.669.016-.656.072-.866.18-.828.266-.8.353-.756.436-.7.508-.658.588-.6.65-.528.713-.464.78-.381.825-.3.878-.214.938-.114.958-.014.933.081.911.172.9.256.859.341.825.42.786.491.733.564.68.628.619.688.548.75.48.8.4.847.309.9.223.694.1.68.039.667-.016.658-.072.864-.18.83-.266.8-.353.756-.436.706-.508.658-.588.594-.65.53-.712.464-.78.38-.825.3-.878Z" transform="translate(-683.407 -402.809)" fill="url(#linear-gradient)"/>
      <path id="Path-9" data-name="Path" d="M750.068,432.706l.112-.956.016-.931-.081-.909-.173-.9-.256-.858-.339-.825-.42-.786-.491-.731-.564-.68-.628-.619-.689-.548-.75-.478-.8-.4-.847-.309-.9-.222-.87-.114-.845-.023-.823.063-.81.147-.792.23-.755.3-.72.373-.689.448-.642.511-.589.57-.536.63-.486.694-.414.733-.344.781-.272.831-.2.888-.114.958-.014.933.08.913.173.9.256.861.341.823.42.788.491.731.563.681.63.619.688.548.75.48.8.4.847.309.9.223.87.111.845.022.823-.064.809-.15.792-.23.756-.3.72-.375.689-.448.642-.513.587-.57.536-.63.486-.694.414-.734.344-.78.273-.831Z" transform="translate(-628.757 -383.917)" fill="#f5f9ff"/>
      <path id="Path-10" data-name="Path" d="M556.5,628.433l.025-.539-.045-.514-.112-.494-.181-.472-.231-.411-.284-.358-.339-.3-.375-.209-.419-.128L549.78,624l4.342,7,.388-.067.373-.125.364-.186.33-.239.291-.291.253-.347.192-.383.127-.434Z" transform="translate(-473.879 -554)" fill="#d5ddea"/>
      <path id="Path-11" data-name="Path" d="M467.7,254.4l-.613.047-.572.127-.539.2-.506.28-.456.341-.411.4-.353.455-.292.5-.23.547-.156.573-.078.6,0,.638,1.37,15.3.077.5.15.458.223.425.291.384.339.327.391.27.428.2.452.125.484.045.484-.045.452-.125.428-.2.391-.27.338-.327.291-.384.225-.425.15-.458.075-.5,1.372-15.3,0-.659-.08-.616-.155-.577-.231-.552-.291-.5-.353-.448-.411-.4-.456-.333-.506-.272-.537-.2-.573-.123Z" transform="translate(-401.071 -242.15)" fill="#f5f9ff"/>
      <path id="Path-12" data-name="Path" d="M477.594,433.6l-.47.034-.437.092-.411.147-.389.2-.472.345-.4.416-.334.492-.2.4-.141.427-.089.455-.033.488.033.487.089.455.141.427.2.4.334.492.4.416.472.345.389.2.411.147.438.092.47.035.469-.035.438-.092.411-.147.389-.2.472-.345.4-.416.334-.492.2-.4.142-.427.087-.455.034-.487-.034-.488-.087-.455-.142-.427-.2-.4-.334-.492-.4-.416-.472-.345-.389-.2-.411-.147-.437-.092Z" transform="translate(-410.125 -393.35)" fill="#f5f9ff"/>
      <path id="Path-13" data-name="Path" d="M158.871,491.977l-12.387,5.55-.3.1-.312.028-.328-.036-.317-.1-.3-.15-.3-.206-.259-.25-.222-.292-.184-.341-4.169-9.53-.125-.366-.064-.362-.008-.363.047-.359.1-.33.144-.3.194-.272.233-.216.275-.166,12.277-5.492.306-.1.313-.028.328.036.317.1.3.15.3.206.259.25.22.292.184.341,4.169,9.53.159.353.091.352.027.353-.033.353-.088.323-.139.3-.189.267-.231.213Z" transform="translate(-127.781 -431.15)" fill="url(#linear-gradient-3)"/>
    </g>
  </g>
</svg>
