<svg xmlns="http://www.w3.org/2000/svg" xmlns:xlink="http://www.w3.org/1999/xlink" width="80" height="80" viewBox="0 0 80 80">
  <defs>
    <clipPath id="clip-path">
      <rect id="矩形_30549" data-name="矩形 30549" width="43" height="43" transform="translate(604 1027)" fill="#fff" stroke="#707070" stroke-width="1"/>
    </clipPath>
  </defs>
  <g id="share_link" transform="translate(-585 -1002)">
    <rect id="矩形_30548" data-name="矩形 30548" width="80" height="80" rx="40" transform="translate(585 1002)" fill="#6d4dff"/>
    <g id="蒙版组_7948" data-name="蒙版组 7948" transform="translate(0 -6)" clip-path="url(#clip-path)">
      <g id="链接_1_" data-name="链接 (1)" transform="translate(598.436 1021.299)">
        <path id="路径_160611" data-name="路径 160611" d="M32.4,22.27a10.205,10.205,0,0,0-1.042-.9h0a2.071,2.071,0,0,0-3.023,2.822h0a2.079,2.079,0,0,0,.511.44c.2.161.387.32.566.5l.171.171c2.147,2.144,1.506,5.838-.641,7.985l-9.16,9.158a5.513,5.513,0,0,1-7.783,0l-.172-.172a5.5,5.5,0,0,1,0-7.781l4.047-4.046a2.249,2.249,0,0,0-2.662-3.623l0-.007-.043.04a2.263,2.263,0,0,0-.428.4L8.531,31.19a10.2,10.2,0,0,0,0,14.377l.171.171a10.2,10.2,0,0,0,14.374,0l9.158-9.16a9.927,9.927,0,0,0,.335-14.14Z" fill="#fff"/>
        <path id="路径_160612" data-name="路径 160612" d="M45.6,8.837l-.171-.171a10.193,10.193,0,0,0-14.374,0L21.9,17.826c-3.953,3.953-4.171,9.662-.218,13.618l.168.165c.18.179.366.349.556.511a1.965,1.965,0,0,0,.479.39l0,0h0a1.956,1.956,0,0,0,2.734-2.546h0A4.277,4.277,0,0,0,24.545,28.7l-.168-.165c-2.147-2.147-1.331-5.265.815-7.412l9.163-9.158a5.5,5.5,0,0,1,7.779,0l.171.168a5.51,5.51,0,0,1,0,7.785l-4.034,4.036a2.231,2.231,0,0,0,2.5,3.695l.008.013.063-.058a2.243,2.243,0,0,0,.508-.469L45.6,23.211A10.19,10.19,0,0,0,45.6,8.837Z" fill="#fff"/>
      </g>
    </g>
  </g>
</svg>
