<svg id="icon_share" xmlns="http://www.w3.org/2000/svg" xmlns:xlink="http://www.w3.org/1999/xlink" width="20" height="20" viewBox="0 0 20 20">
  <defs>
    <clipPath id="clip-path">
      <rect id="_1" data-name="1" width="20" height="20" transform="translate(0)" stroke="#707070" stroke-width="1"/>
    </clipPath>
  </defs>
  <g id="icon_share-2" data-name="icon_share" clip-path="url(#clip-path)">
    <path id="_1-2" data-name="1" d="M16.543,9.088a3.616,3.616,0,0,1-2.689-1.2L9.772,10.251a4.027,4.027,0,0,1,.172,1.067A3.918,3.918,0,0,1,9.543,13l3.93,2.287a3.734,3.734,0,1,1-.573,2,2.955,2.955,0,0,1,.038-.407L8.474,14.3l.019-.02a3.539,3.539,0,0,1-2.212.775A3.733,3.733,0,0,1,6.261,7.6a3.615,3.615,0,0,1,2.69,1.2l4.082-2.365a4.02,4.02,0,0,1-.172-1.066,3.672,3.672,0,1,1,3.681,3.723Zm0,10.45a2.23,2.23,0,1,0-2.194-2.23A2.212,2.212,0,0,0,16.543,19.539ZM6.261,9.088a2.23,2.23,0,1,0,2.194,2.23,2.212,2.212,0,0,0-2.194-2.23ZM16.543,3.117a2.23,2.23,0,1,0,2.194,2.23A2.212,2.212,0,0,0,16.543,3.117Zm0,0" transform="translate(-1.837 -1.623)"/>
  </g>
</svg>
