<svg xmlns="http://www.w3.org/2000/svg" width="35" height="35" viewBox="0 0 35 35"><defs><clipPath id="a"><rect width="35" height="35" rx="17.5" transform="translate(1222 427)" fill="#fff"/></clipPath></defs><g transform="translate(-1222 -427)" clip-path="url(#a)" fill="#adaabf"><g fill-rule="evenodd"><path d="M1251.436 444.056s-4.395-8.056-11.718-8.056-11.718 8.056-11.718 8.056 4.394 8.056 11.718 8.056 11.718-8.056 11.718-8.056zm-21.718 0a19.238 19.238 0 0 0 2.431 2.993 10.915 10.915 0 0 0 7.568 3.6 10.923 10.923 0 0 0 7.57-3.6 19.238 19.238 0 0 0 2.431-2.993 19.236 19.236 0 0 0-2.431-2.993 10.926 10.926 0 0 0-7.57-3.6 10.923 10.923 0 0 0-7.57 3.6 19.236 19.236 0 0 0-2.431 2.993z"/><path d="M1239.718 440.394a3.662 3.662 0 1 0 3.662 3.662 3.662 3.662 0 0 0-3.662-3.662zm-5.127 3.662a5.127 5.127 0 1 1 5.127 5.127 5.127 5.127 0 0 1-5.127-5.127z"/></g><g stroke-linecap="round"><path d="M1227.7 453.1a1.402 1.402 0 0 1-.765-2.573l23-15a1.396 1.396 0 0 1 1.937.408 1.402 1.402 0 0 1-.407 1.938l-23 15a1.396 1.396 0 0 1-.764.227z"/><path d="M1227.7 452.4a.697.697 0 0 0 .382-.114l23-15a.7.7 0 0 0-.764-1.172l-23 15a.7.7 0 0 0 .383 1.286m0 1.4c-.713 0-1.37-.356-1.76-.953a2.102 2.102 0 0 1 .612-2.906l23-15a2.094 2.094 0 0 1 1.146-.341c.713 0 1.37.356 1.76.953.633.97.358 2.273-.612 2.906l-23 15a2.094 2.094 0 0 1-1.146.341z" fill="#fff"/></g></g></svg>