<svg id="icon_win_Preview" xmlns="http://www.w3.org/2000/svg" xmlns:xlink="http://www.w3.org/1999/xlink" width="20" height="20" viewBox="0 0 20 20">
  <defs>
    <clipPath id="clip-path">
      <rect id="矩形_31728" data-name="矩形 31728" width="20" height="20" transform="translate(921 463)" fill="#fff" stroke="#707070" stroke-width="1"/>
    </clipPath>
  </defs>
  <g id="icon_win_Preview-2" data-name="icon_win_Preview" transform="translate(-921 -463)" clip-path="url(#clip-path)">
    <path id="眼睛_5_" data-name="眼睛 (5)" d="M10.811,17.717c-3.231,0-6.113-2.039-8.641-6.022a1.093,1.093,0,0,1,0-1.173C4.7,6.539,7.58,4.5,10.811,4.5s6.113,2.039,8.641,6.022a1.093,1.093,0,0,1,0,1.173C16.925,15.678,14.042,17.717,10.811,17.717Zm0-11.9c-2.675,0-5.152,1.732-7.437,5.287C5.66,14.664,8.137,16.4,10.811,16.4s5.152-1.732,7.437-5.287C15.963,7.553,13.486,5.822,10.811,5.822Zm0,8.371a3.084,3.084,0,1,1,3.112-3.084,3.1,3.1,0,0,1-3.112,3.084Zm0-1.322a1.762,1.762,0,1,0-1.778-1.762,1.77,1.77,0,0,0,1.778,1.762Z" transform="translate(920.189 461.891)"/>
  </g>
</svg>
