<svg id="icon_win_delete" xmlns="http://www.w3.org/2000/svg" xmlns:xlink="http://www.w3.org/1999/xlink" width="20" height="20" viewBox="0 0 20 20">
  <defs>
    <clipPath id="clip-path">
      <rect id="矩形_31728" data-name="矩形 31728" width="20" height="20" transform="translate(921 615)" fill="#fff" stroke="#707070" stroke-width="1"/>
    </clipPath>
  </defs>
  <g id="icon_win_delete-2" data-name="icon_win_delete" transform="translate(-921 -615)" clip-path="url(#clip-path)">
    <g id="垃圾桶_7_" data-name="垃圾桶 (7)" transform="translate(920.952 614.833)">
      <path id="路径_175516" data-name="路径 175516" d="M13.762,18.6H7.446a3.53,3.53,0,0,1-3.355-3.434V7.153a.789.789,0,1,1,1.579,0v8.013a1.987,1.987,0,0,0,1.776,1.855h6.316c.868,0,1.382-.947,1.382-1.855V7.153a.789.789,0,1,1,1.579,0v8.013A3.2,3.2,0,0,1,13.762,18.6Z" transform="translate(-0.359 -0.538)"/>
      <path id="路径_175517" data-name="路径 175517" d="M17.943,7.01H2.153a.789.789,0,1,1,0-1.579h15.79a.789.789,0,1,1,0,1.579ZM14.785,3.852H5.311a.789.789,0,0,1,0-1.579h9.474a.789.789,0,0,1,0,1.579Z" transform="translate(0)"/>
      <path id="路径_175518" data-name="路径 175518" d="M12.584,14.952a.792.792,0,0,1-.789-.789V9.426a.789.789,0,0,1,1.579,0v4.737A.792.792,0,0,1,12.584,14.952Zm-3.158,0a.792.792,0,0,1-.789-.789V9.426a.789.789,0,0,1,1.579,0v4.737A.792.792,0,0,1,9.426,14.952Z" transform="translate(-0.957 -0.837)"/>
    </g>
  </g>
</svg>
