<svg xmlns="http://www.w3.org/2000/svg" xmlns:xlink="http://www.w3.org/1999/xlink" width="108" height="108" viewBox="0 0 108 108">
  <defs>
    <clipPath id="clip-path">
      <rect id="Rectangle_31657" data-name="Rectangle 31657" width="108" height="108" rx="54" transform="translate(0 0)" fill="#353841"/>
    </clipPath>
  </defs>
  <g id="btn_link_normal" transform="translate(0 0)" clip-path="url(#clip-path)">
    <rect id="Rectangle_30548" data-name="Rectangle 30548" width="108" height="108" rx="54" transform="translate(0 0)" fill="#353841"/>
    <path id="Path_160912" data-name="Path 160912" d="M37.871,22.571a12.288,12.288,0,0,0-1.255-1.085h0a2.493,2.493,0,0,0-3.639,3.4h0a2.5,2.5,0,0,0,.615.529c.235.194.466.385.682.6l.206.206c2.584,2.581,1.813,7.028-.772,9.612L22.679,46.857a6.637,6.637,0,0,1-9.37,0L13.1,46.65a6.627,6.627,0,0,1,0-9.367l4.872-4.87a2.708,2.708,0,0,0-3.2-4.362l0-.009-.052.049a2.724,2.724,0,0,0-.515.482L9.135,33.31a12.275,12.275,0,0,0,0,17.308l.206.206a12.277,12.277,0,0,0,17.3,0L37.67,39.8c4.753-4.759,5.156-12.266.4-17.022Z" transform="translate(22.906 25.848)" fill="#cfcfcf"/>
    <path id="Path_160913" data-name="Path 160913" d="M51.06,9.476l-.206-.206a12.271,12.271,0,0,0-17.3,0L22.525,20.3c-4.759,4.759-5.021,11.632-.262,16.394l.2.2c.216.216.44.42.669.615a2.366,2.366,0,0,0,.577.469l0,0h0a2.354,2.354,0,0,0,3.292-3.065h0a5.148,5.148,0,0,0-1.3-1.527l-.2-.2c-2.584-2.584-1.6-6.339.981-8.923L37.523,13.24a6.625,6.625,0,0,1,9.365,0l.206.2a6.633,6.633,0,0,1,0,9.372l-4.856,4.859a2.686,2.686,0,0,0,3.005,4.448l.009.015.075-.07a2.7,2.7,0,0,0,.611-.564l5.118-4.722A12.268,12.268,0,0,0,51.06,9.476Z" transform="translate(25.609 22.77)" fill="#cfcfcf"/>
  </g>
</svg>
