<svg xmlns="http://www.w3.org/2000/svg" xmlns:xlink="http://www.w3.org/1999/xlink" width="32" height="32" viewBox="0 0 32 32">
  <defs>
    <clipPath id="clip-path">
      <rect id="Rectangle_31691" data-name="Rectangle 31691" width="32" height="32" stroke="#707070" stroke-width="1"/>
    </clipPath>
  </defs>
  <g id="icon_heart_line" clip-path="url(#clip-path)">
    <path id="Path_175254" data-name="Path 175254" d="M22.6,7.7a6.862,6.862,0,0,0-9.693,0l-.621.62-.62-.62a6.861,6.861,0,0,0-9.692,0,6.932,6.932,0,0,0-.039,9.652c2.367,2.63,9.349,8.313,9.645,8.554a1.08,1.08,0,0,0,.684.243h.024a1.046,1.046,0,0,0,.707-.243c.3-.241,7.278-5.923,9.646-8.554A6.932,6.932,0,0,0,22.6,7.7Zm-1.574,8.2a115.681,115.681,0,0,1-8.74,7.78A115.433,115.433,0,0,1,3.548,15.9a4.79,4.79,0,0,1-.039-6.666,4.689,4.689,0,0,1,6.624,0L11.5,10.6a1.05,1.05,0,0,0,.582.293,1.087,1.087,0,0,0,1-.293l1.365-1.365a4.69,4.69,0,0,1,6.624,0A4.791,4.791,0,0,1,21.027,15.9Z" transform="translate(3.712 0.075)" fill="#cfcfcf"/>
  </g>
</svg>
