<svg xmlns="http://www.w3.org/2000/svg" xmlns:xlink="http://www.w3.org/1999/xlink" width="128.404" height="42" viewBox="0 0 128.404 42">
  <defs>
    <linearGradient id="linear-gradient" x1="0.86" y1="0.105" x2="0.135" y2="1" gradientUnits="objectBoundingBox">
      <stop offset="0" stop-color="#588bff"/>
      <stop offset="0.368" stop-color="#58acff"/>
      <stop offset="0.619" stop-color="#6a65ff"/>
      <stop offset="1" stop-color="#9f65b9"/>
    </linearGradient>
  </defs>
  <g id="icon_logo_head" transform="translate(-190 -1458)">
    <rect id="Rectangle_31511" data-name="Rectangle 31511" width="42" height="42" rx="21" transform="translate(190 1458)" fill="url(#linear-gradient)"/>
    <path id="logo_vidqu" d="M6.419-2.257.588-20.526H4.267L9.1-4.71l-1.051-.5h2.7l-1.076.5,4.455-15.816h3.554L12.275-2.257Zm14.115,0V-15.846h3.479V-2.257Zm-1.9-10.986v-2.6h5.381v2.6Zm3.153-4.229a1.912,1.912,0,0,1-1.489-.538,1.918,1.918,0,0,1-.488-1.339,1.942,1.942,0,0,1,.488-1.376,1.973,1.973,0,0,1,1.514-.526,1.931,1.931,0,0,1,1.5.526,1.973,1.973,0,0,1,.475,1.376,1.948,1.948,0,0,1-.475,1.339A1.94,1.94,0,0,1,21.785-17.473ZM33.647-1.807a6.484,6.484,0,0,1-2.628-.526,6.134,6.134,0,0,1-2.077-1.477,6.731,6.731,0,0,1-1.351-2.215,7.72,7.72,0,0,1-.475-2.74V-9.29a7.938,7.938,0,0,1,.463-2.728,6.873,6.873,0,0,1,1.3-2.227,5.923,5.923,0,0,1,2.027-1.489,6.33,6.33,0,0,1,2.64-.538,5.61,5.61,0,0,1,2.815.688,4.952,4.952,0,0,1,1.94,2.065,7.988,7.988,0,0,1,.8,3.454l-1.026-1.2v-9.26h3.479V-2.257H38.8V-8.038h.6a7.61,7.61,0,0,1-.851,3.466,5.151,5.151,0,0,1-2.04,2.077A5.894,5.894,0,0,1,33.647-1.807Zm.776-2.928A3.863,3.863,0,0,0,36.3-5.2a3.48,3.48,0,0,0,1.364-1.351,4.106,4.106,0,0,0,.513-2.09v-1a3.638,3.638,0,0,0-.526-2.015,3.546,3.546,0,0,0-1.376-1.251,3.987,3.987,0,0,0-1.852-.438,3.683,3.683,0,0,0-1.99.538,3.672,3.672,0,0,0-1.351,1.514,5.031,5.031,0,0,0-.488,2.277,4.849,4.849,0,0,0,.5,2.265A3.688,3.688,0,0,0,32.459-5.26,3.7,3.7,0,0,0,34.423-4.735ZM55.57,2.748V-6.286l1.026-1.6a7.619,7.619,0,0,1-.8,3.316,5.026,5.026,0,0,1-1.952,2.065,5.6,5.6,0,0,1-2.828.7,6.245,6.245,0,0,1-2.628-.538,5.881,5.881,0,0,1-2.015-1.5,7.054,7.054,0,0,1-1.3-2.227,7.907,7.907,0,0,1-.463-2.74V-9.34a7.678,7.678,0,0,1,.476-2.7,6.564,6.564,0,0,1,1.351-2.215A6.409,6.409,0,0,1,48.5-15.734a6.33,6.33,0,0,1,2.64-.538,5.783,5.783,0,0,1,2.953.726,5.03,5.03,0,0,1,1.965,2.115,8.032,8.032,0,0,1,.788,3.391H56.3v-5.806h2.728l.025,18.594ZM51.916-4.785a3.842,3.842,0,0,0,1.889-.463A3.505,3.505,0,0,0,55.157-6.6a4.106,4.106,0,0,0,.513-2.09v-1a3.638,3.638,0,0,0-.526-2.015,3.546,3.546,0,0,0-1.376-1.251,3.987,3.987,0,0,0-1.852-.438,3.683,3.683,0,0,0-1.99.538,3.672,3.672,0,0,0-1.351,1.514,5.091,5.091,0,0,0-.488,2.3,4.736,4.736,0,0,0,.5,2.215,3.81,3.81,0,0,0,1.351,1.5A3.62,3.62,0,0,0,51.916-4.785ZM67.633-1.832a4.469,4.469,0,0,1-3.641-1.552,7.066,7.066,0,0,1-1.289-4.6v-7.883h3.479v8.184a2.771,2.771,0,0,0,.7,1.99,2.5,2.5,0,0,0,1.9.738,2.636,2.636,0,0,0,1.965-.776,2.867,2.867,0,0,0,.763-2.1v-8.033h3.479V-2.257H72.238V-8.038h.275a9.683,9.683,0,0,1-.526,3.429,4.207,4.207,0,0,1-1.577,2.077,4.637,4.637,0,0,1-2.628.7Z" transform="translate(243.413 1488.252)" fill="#fffdf5"/>
    <path id="logo_vidqu-2" data-name="logo_vidqu" d="M7.411-.647l-6.823-20h4.3L10.544-3.332,9.314-3.88h3.163l-1.259.548L16.43-20.647h4.158l-6.325,20Z" transform="translate(200.412 1489.647)" fill="#fffdf5"/>
  </g>
</svg>
