<svg xmlns="http://www.w3.org/2000/svg" xmlns:xlink="http://www.w3.org/1999/xlink" width="16" height="16" viewBox="0 0 16 16">
  <defs>
    <clipPath id="clip-path">
      <rect id="Rectangle_31806" data-name="Rectangle 31806" width="16" height="16" transform="translate(397 739)" fill="#fff" stroke="#707070" stroke-width="1"/>
    </clipPath>
  </defs>
  <g id="btn_download_normal" transform="translate(-397 -739)" clip-path="url(#clip-path)">
    <path id="Path_1887" data-name="Path 1887" d="M17,1852.333v.933a5.785,5.785,0,0,1-.254,2.458,2.28,2.28,0,0,1-1.02,1.019,5.749,5.749,0,0,1-2.459.257H6.733a5.749,5.749,0,0,1-2.459-.257,2.28,2.28,0,0,1-1.02-1.019A5.786,5.786,0,0,1,3,1853.267v-.933m10.889-3.889L10,1852.333m0,0-3.889-3.889M10,1852.333V1843" transform="translate(395 -1103)" fill="none" stroke="#fff" stroke-linecap="round" stroke-linejoin="round" stroke-width="2"/>
  </g>
</svg>
