<svg xmlns="http://www.w3.org/2000/svg" xmlns:xlink="http://www.w3.org/1999/xlink" width="16" height="16" viewBox="0 0 16 16">
  <defs>
    <clipPath id="clip-path">
      <rect id="Rectangle_31803" data-name="Rectangle 31803" width="16" height="16" transform="translate(397 739)" fill="#fff" stroke="#707070" stroke-width="1"/>
    </clipPath>
  </defs>
  <g id="icon_heart" transform="translate(-397 -739)" clip-path="url(#clip-path)">
    <path id="Path_1910" data-name="Path 1910" d="M9,724.5a3.809,3.809,0,0,0-5.487-.578,4.17,4.17,0,0,0-.623,5.776A65.371,65.371,0,0,0,8.63,735.28a.812.812,0,0,0,.265.19.367.367,0,0,0,.2,0,.812.812,0,0,0,.265-.19,65.372,65.372,0,0,0,5.746-5.587,4.14,4.14,0,0,0-.623-5.776A3.819,3.819,0,0,0,9,724.5Z" transform="translate(396 17.758)" fill="none" stroke="#fff" stroke-linecap="round" stroke-linejoin="round" stroke-width="2" fill-rule="evenodd"/>
  </g>
</svg>
