<svg xmlns="http://www.w3.org/2000/svg" xmlns:xlink="http://www.w3.org/1999/xlink" width="16" height="16" viewBox="0 0 16 16">
  <defs>
    <clipPath id="clip-path">
      <rect id="Rectangle_31808" data-name="Rectangle 31808" width="16" height="16" transform="translate(33 11)" fill="#fff" stroke="#707070" stroke-width="1"/>
    </clipPath>
  </defs>
  <g id="icon_generate" transform="translate(-33 -11)" clip-path="url(#clip-path)">
    <path id="Path_2419" data-name="Path 2419" d="M3.75,56V52.5m0-7V42M2,43.75H5.5M2,54.25H5.5M9.7,42.7,8.486,45.856a4.518,4.518,0,0,1-.45.986,2.1,2.1,0,0,1-.494.494,4.517,4.517,0,0,1-.986.45L3.4,49l3.156,1.214a4.517,4.517,0,0,1,.986.45,2.1,2.1,0,0,1,.494.494,4.518,4.518,0,0,1,.45.986L9.7,55.3l1.214-3.156a4.518,4.518,0,0,1,.45-.986,2.1,2.1,0,0,1,.494-.494,4.517,4.517,0,0,1,.986-.45L16,49l-3.156-1.214a4.517,4.517,0,0,1-.986-.45,2.1,2.1,0,0,1-.494-.494,4.518,4.518,0,0,1-.45-.986Z" transform="translate(32 -30)" fill="none" stroke="#fff" stroke-linecap="round" stroke-linejoin="round" stroke-width="1.5"/>
  </g>
</svg>
