<svg xmlns="http://www.w3.org/2000/svg" width="24.806" height="23.245" viewBox="0 0 24.806 23.245">
  <g id="banner_design" transform="translate(24.58 -0.409) rotate(87)">
    <path id="Path_160973" data-name="Path 160973" d="M.507.087,6.876,6.2a.317.317,0,0,1,.1.26.3.3,0,0,1-.146.229L2.546,9.175a.3.3,0,0,1-.27.013A.316.316,0,0,1,2.1,8.975L.01.376a.3.3,0,0,1,.5-.289Z" transform="matrix(0.485, -0.875, 0.875, 0.485, 11.223, 21.157)" fill="#fe7d43"/>
    <path id="Path_160974" data-name="Path 160974" d="M.212,2.449,8.478.012a.3.3,0,0,1,.267.051A.317.317,0,0,1,8.87.311l.056,5.062a.3.3,0,0,1-.119.245.294.294,0,0,1-.266.045L.219,3.037A.309.309,0,0,1,.212,2.449Z" transform="matrix(0.485, -0.875, 0.875, 0.485, 0, 7.807)" fill="#00f2a6"/>
    <path id="Path_160976" data-name="Path 160976" d="M2.443,5.255.091,2.862a.311.311,0,0,1,0-.435l2.3-2.34a.3.3,0,0,1,.427,0L5.163,2.485a.311.311,0,0,1,0,.435l-2.3,2.34A.3.3,0,0,1,2.443,5.255Z" transform="matrix(0.485, -0.875, 0.875, 0.485, 13.342, 9.841)" fill="#8ac9fe"/>
  </g>
</svg>
