<svg xmlns="http://www.w3.org/2000/svg" xmlns:xlink="http://www.w3.org/1999/xlink" width="88" height="88" viewBox="0 0 88 88">
  <defs>
    <clipPath id="clip-path">
      <rect id="Rectangle_31790" data-name="Rectangle 31790" width="88" height="88" transform="translate(1122 403)" fill="#fff" stroke="#707070" stroke-width="1"/>
    </clipPath>
    <filter id="Path_175362" x="-0.75" y="0.875" width="89.5" height="89.5" filterUnits="userSpaceOnUse">
      <feOffset dy="3" input="SourceAlpha"/>
      <feGaussianBlur stdDeviation="3" result="blur"/>
      <feFlood flood-opacity="0.302"/>
      <feComposite operator="in" in2="blur"/>
      <feComposite in="SourceGraphic"/>
    </filter>
  </defs>
  <g id="btn_play_normal" transform="translate(-1122 -403)" clip-path="url(#clip-path)">
    <g transform="matrix(1, 0, 0, 1, 1122, 403)" filter="url(#Path_175362)">
      <path id="Path_175362-2" data-name="Path 175362" d="M35.75,0A35.75,35.75,0,1,0,71.5,35.75,35.75,35.75,0,0,0,35.75,0ZM48.106,37.645,30.231,48.817a2.235,2.235,0,0,1-3.419-1.9V24.578a2.235,2.235,0,0,1,3.419-1.9L48.106,33.855a2.235,2.235,0,0,1,0,3.79Z" transform="translate(8.25 6.88)" fill="#fff"/>
    </g>
  </g>
</svg>
