<svg xmlns="http://www.w3.org/2000/svg" xmlns:xlink="http://www.w3.org/1999/xlink" width="23" height="23" viewBox="0 0 23 23">
  <defs>
    <clipPath id="clip-path">
      <rect id="矩形_5255" data-name="矩形 5255" width="23" height="23" transform="translate(922.596 375.596)" fill="#6d4dff" stroke="#707070" stroke-width="1"/>
    </clipPath>
  </defs>
  <g id="icon_larger" transform="translate(-922.596 -375.596)" clip-path="url(#clip-path)">
    <path id="放大镜的副本" d="M23.651,21.909l-3.3-3.3a10.312,10.312,0,1,0-8.093,3.963A10.486,10.486,0,0,0,18.6,20.407l3.3,3.3a1.21,1.21,0,0,0,1.752,0A1.259,1.259,0,0,0,23.651,21.909ZM4.42,12.231a7.842,7.842,0,1,1,7.842,7.842A7.86,7.86,0,0,1,4.42,12.231Z" transform="translate(921.125 374.115)" fill="#6d4dff"/>
  </g>
</svg>
