<svg xmlns="http://www.w3.org/2000/svg" width="48" height="48.064" viewBox="0 0 48 48.064">
  <g id="icon_extra-time" transform="translate(-0.343 0)">
    <path id="Path_175376" data-name="Path 175376" d="M38.52,58.747c-19.764-8.7-15.354-35.771,6.456-38.675-13.216-1.773-25.409,7.94-25.3,20.223,0,10.11,8,18.5,18.506,20.13.11-.559.227-1.118.337-1.677Z" transform="translate(-17.519 -17.998)" fill="#cee1f2"/>
    <path id="Path_175377" data-name="Path 175377" d="M18.964,44.272C19.075,44.292,18.854,44.272,18.964,44.272ZM22.575,3.757A18.492,18.492,0,0,1,40.84,19.1a1.877,1.877,0,1,0,3.7-.643A22.419,22.419,0,0,0,22.575,0C-4.763.928-7.956,38.813,18.964,44.272a1.878,1.878,0,0,0,.328-3.726C-2.769,36.057.068,4.307,22.575,3.757ZM48.343,35.392A12.687,12.687,0,0,1,35.67,48.064c-16.789-.637-16.784-24.711,0-25.345A12.687,12.687,0,0,1,48.343,35.392Zm-3.755,0a8.928,8.928,0,0,0-8.918-8.918c-11.814.448-11.811,17.389,0,17.835A8.928,8.928,0,0,0,44.588,35.392Z" transform="translate(0)" fill="#7657f6"/>
    <path id="Path_175378" data-name="Path 175378" d="M171.017,116.061a1.877,1.877,0,0,1-1.877,1.877h-1.69v1.69a1.877,1.877,0,1,1-3.755,0v-1.69h-1.69a1.877,1.877,0,0,1,0-3.755h1.69v-1.69a1.877,1.877,0,1,1,3.755,0v1.69h1.69A1.877,1.877,0,0,1,171.017,116.061Zm-16.709-15.24V90.9a1.877,1.877,0,1,0-3.755,0v9.917a2.815,2.815,0,0,0-.928,2.33l-5.364,5.283a1.877,1.877,0,0,0,2.635,2.675l5.459-5.376A2.822,2.822,0,0,0,154.308,100.82Z" transform="translate(-129.902 -80.669)" fill="#ff5cf7"/>
  </g>
</svg>
