<svg xmlns="http://www.w3.org/2000/svg" xmlns:xlink="http://www.w3.org/1999/xlink" width="25" height="25" viewBox="0 0 25 25">
  <defs>
    <clipPath id="clip-path">
      <rect id="矩形_5440" data-name="矩形 5440" width="25" height="25" transform="translate(895 840)" fill="#6d4dff" stroke="#707070" stroke-width="1"/>
    </clipPath>
  </defs>
  <g id="icon_share" transform="translate(-895 -840)" clip-path="url(#clip-path)">
    <path id="分享" d="M20.579,11.249A4.663,4.663,0,0,1,17.111,9.7l-5.264,3.05a5.192,5.192,0,0,1,.221,1.375,5.052,5.052,0,0,1-.516,2.175l5.067,2.949a4.815,4.815,0,1,1-.738,2.576,3.81,3.81,0,0,1,.05-.525l-5.756-3.325.024-.025a4.563,4.563,0,0,1-2.853,1,4.813,4.813,0,0,1-.025-9.624,4.661,4.661,0,0,1,3.468,1.549l5.264-3.05a5.183,5.183,0,0,1-.221-1.375,4.735,4.735,0,1,1,4.747,4.8Zm0,13.474a2.875,2.875,0,1,0-2.828-2.875A2.853,2.853,0,0,0,20.579,24.723ZM7.321,11.249a2.875,2.875,0,1,0,2.829,2.875,2.852,2.852,0,0,0-2.829-2.875Zm13.258-7.7a2.875,2.875,0,1,0,2.829,2.875A2.852,2.852,0,0,0,20.579,3.549Zm0,0" transform="translate(893.537 838.376)" fill="#6d4dff"/>
  </g>
</svg>
