<svg xmlns="http://www.w3.org/2000/svg" xmlns:xlink="http://www.w3.org/1999/xlink" width="12" height="12" viewBox="0 0 12 12">
  <defs>
    <clipPath id="clip-path">
      <rect id="_1" data-name="1" width="12" height="12" fill="#c9a5ff" stroke="#707070" stroke-width="1"/>
    </clipPath>
  </defs>
  <g id="icon_download_w" clip-path="url(#clip-path)">
    <g id="_1-2" data-name="1" transform="translate(-5.318 -2.347)" fill="#c9a5ff">
      <path d="M14.227,8.085l-2.24,2.24V3.347a.67.67,0,0,0-1.339,0v6.978L8.409,8.085a.67.67,0,0,0-.947.947l3.383,3.383a.652.652,0,0,0,.22.145l.01,0a.653.653,0,0,0,.489,0l.01,0a.689.689,0,0,0,.22-.145l3.383-3.383a.67.67,0,0,0-.948-.947Zm.473,4.593H7.934a.67.67,0,1,0,0,1.339H14.7a.67.67,0,0,0,0-1.339Z" stroke="none"/>
      <path d="M 11.31711387634277 2.677103042602539 C 10.94779396057129 2.677103042602539 10.6474437713623 2.977442741394043 10.6474437713623 3.346773147583008 L 10.6474437713623 10.32513236999512 L 8.408503532409668 8.084762573242188 C 8.146964073181152 7.823214530944824 7.723023414611816 7.823212623596191 7.461483955383301 8.084762573242188 C 7.199934005737305 8.34630298614502 7.199934005737305 8.770233154296875 7.461483955383301 9.031783103942871 L 10.84432411193848 12.41462326049805 C 10.90611362457275 12.47641277313232 10.98084354400635 12.52671241760254 11.06419372558594 12.55976295471191 C 11.06706428527832 12.56120300292969 11.07137393951416 12.56120300292969 11.07425403594971 12.56264305114746 C 11.15041351318359 12.59282302856445 11.23233413696289 12.61006355285645 11.31855392456055 12.61006355285645 C 11.4047737121582 12.61006355285645 11.48668384552002 12.59282302856445 11.56285381317139 12.56264305114746 C 11.56572437286377 12.56120300292969 11.57004356384277 12.56120300292969 11.57291412353516 12.55976295471191 C 11.65626430511475 12.52527236938477 11.72955417633057 12.47641277313232 11.79278373718262 12.41462326049805 L 15.17562389373779 9.031783103942871 C 15.43717384338379 8.770233154296875 15.43717384338379 8.34630298614502 15.17562389373779 8.084762573242188 C 14.9126443862915 7.823213577270508 14.48870372772217 7.823213577270508 14.22716426849365 8.084762573242188 L 11.98678398132324 10.32513236999512 L 11.98678398132324 3.346773147583008 C 11.98678398132324 2.977442741394043 11.68644428253174 2.677103042602539 11.31711387634277 2.677103042602539 M 7.934273719787598 12.67760276794434 C 7.564953804016113 12.67760276794434 7.264603614807129 12.97795295715332 7.264603614807129 13.3472728729248 C 7.264603614807129 13.71660327911377 7.564953804016113 14.01694297790527 7.934273719787598 14.01694297790527 L 14.69995403289795 14.01694297790527 C 15.06928443908691 14.01694297790527 15.36962413787842 13.71660327911377 15.36962413787842 13.3472728729248 C 15.36962413787842 12.97795295715332 15.07071399688721 12.67760276794434 14.69995403289795 12.67760276794434 L 7.934273719787598 12.67760276794434 M 11.31711387634277 2.177103042602539 C 11.96207427978516 2.177103042602539 12.48678398132324 2.701812744140625 12.48678398132324 3.346773147583008 L 12.48678398132324 9.118036270141602 L 13.87361431121826 7.731212615966797 C 14.09452438354492 7.510283470153809 14.38831424713135 7.388603210449219 14.70085334777832 7.388603210449219 C 15.01287460327148 7.388603210449219 15.30670356750488 7.509933471679688 15.52821350097656 7.730253219604492 C 15.75011444091797 7.952133178710938 15.87178421020508 8.24586296081543 15.87178421020508 8.558273315429688 C 15.87178421020508 8.870673179626465 15.75011444091797 9.164402961730957 15.52917385101318 9.385333061218262 L 12.73690414428711 12.17760276794434 L 14.69995403289795 12.17760276794434 C 15.34491348266602 12.17760276794434 15.86962413787842 12.70231246948242 15.86962413787842 13.3472728729248 C 15.86962413787842 13.99223327636719 15.34491348266602 14.51694297790527 14.69995403289795 14.51694297790527 L 7.934273719787598 14.51694297790527 C 7.289314270019531 14.51694297790527 6.764603614807129 13.99223327636719 6.764603614807129 13.3472728729248 C 6.764603614807129 12.70231246948242 7.289314270019531 12.17760276794434 7.934273719787598 12.17760276794434 L 9.900203704833984 12.17760276794434 L 7.10793399810791 9.385333061218262 C 6.886994361877441 9.164402961730957 6.765323638916016 8.870673179626465 6.765323638916016 8.558273315429688 C 6.765323638916016 8.24586296081543 6.886994361877441 7.952133178710938 7.10793399810791 7.731203079223633 C 7.32884407043457 7.510283470153809 7.622573852539062 7.388603210449219 7.934993743896484 7.388603210449219 C 8.247413635253906 7.388603210449219 8.541144371032715 7.510283470153809 8.762073516845703 7.731223106384277 L 10.1474437713623 9.117477416992188 L 10.1474437713623 3.346773147583008 C 10.1474437713623 2.701812744140625 10.67215347290039 2.177103042602539 11.31711387634277 2.177103042602539 Z" stroke="none" fill="rgba(0,0,0,0.67)"/>
    </g>
  </g>
</svg>
