<svg id="icon_del_purple" xmlns="http://www.w3.org/2000/svg" width="24" height="24" viewBox="0 0 24 24">
  <rect id="Rectangle_31702" data-name="Rectangle 31702" width="24" height="24" rx="5" fill="#281fae" opacity="0.3"/>
  <path id="Path_2030" data-name="Path 2030" d="M7.667,1123h4.667M3,1125.333H17m-1.556,0-.545,8.182a5.7,5.7,0,0,1-.388,2.31,2.336,2.336,0,0,1-1.01.941,5.689,5.689,0,0,1-2.327.233H8.826a5.689,5.689,0,0,1-2.327-.233,2.336,2.336,0,0,1-1.01-.941,5.7,5.7,0,0,1-.388-2.31l-.545-8.182m3.889,3.5v3.889m3.111-3.889v3.889" transform="translate(2 -1118)" fill="none" stroke="#fff" stroke-linecap="round" stroke-linejoin="round" stroke-width="1.5"/>
</svg>
