<svg xmlns="http://www.w3.org/2000/svg" width="23.048" height="23.048" viewBox="0 0 23.048 23.048">
  <path id="loadingalt" d="M21.607,12.964H19.672a8.687,8.687,0,0,0,.495-2.881h1.44a1.46,1.46,0,0,1,1.44,1.452,1.36,1.36,0,0,1-.428,1.013A1.4,1.4,0,0,1,21.607,12.964Zm-.72-5.244-.923.54a8.111,8.111,0,0,0-1.081-2.679l.585-.337a1.317,1.317,0,0,1,1.081-.157,1.417,1.417,0,0,1,.867.675,1.363,1.363,0,0,1,.147,1.092,1.379,1.379,0,0,1-.675.867ZM17.6,3.939A8.232,8.232,0,0,0,15.238,2.3l.09-.135a1.377,1.377,0,0,1,.867-.675,1.362,1.362,0,0,1,1.092.147,1.42,1.42,0,0,1,.675.867A1.314,1.314,0,0,1,17.8,3.579Zm.2,15.53a1.317,1.317,0,0,1,.157,1.081,1.417,1.417,0,0,1-.675.867,1.363,1.363,0,0,1-1.092.147,1.379,1.379,0,0,1-.867-.675l-1.463-2.5a8.314,8.314,0,0,0,2.611-1.215Zm-6.291,3.579a1.421,1.421,0,0,1-1.429-1.44V18.546a5.925,5.925,0,0,0,1.44.18,8.3,8.3,0,0,0,1.44-.135v3.016a1.374,1.374,0,0,1-.428,1.024A1.414,1.414,0,0,1,11.512,23.048Zm.012-14.4a1.356,1.356,0,0,1-1.17-.608,5.725,5.725,0,0,0-3.32,1.61,4.535,4.535,0,0,0-1.271,3.32H1.44a1.4,1.4,0,0,1-1.013-.416A1.36,1.36,0,0,1,0,11.535a1.4,1.4,0,0,1,.428-1.024,1.384,1.384,0,0,1,1.013-.428H6.19L2.161,7.72a1.377,1.377,0,0,1-.675-.867,1.362,1.362,0,0,1,.147-1.092A1.42,1.42,0,0,1,2.5,5.087a1.314,1.314,0,0,1,1.081.157l3.962,2.3-2.3-3.962A1.317,1.317,0,0,1,5.088,2.5a1.417,1.417,0,0,1,.675-.867,1.417,1.417,0,0,1,1.957.53L10.083,6.19V1.44A1.4,1.4,0,0,1,10.5.428a1.441,1.441,0,0,1,2.049,0,1.4,1.4,0,0,1,.416,1.013V7.2a1.374,1.374,0,0,1-.428,1.024A1.4,1.4,0,0,1,11.524,8.643ZM2.161,15.327l3.624-2.116a5.475,5.475,0,0,0,.855,2.814L3.579,17.8a1.317,1.317,0,0,1-1.081.157,1.417,1.417,0,0,1-.867-.675,1.363,1.363,0,0,1-.147-1.092A1.377,1.377,0,0,1,2.161,15.327Zm4.816,1.148a5.451,5.451,0,0,0,2.273,1.778L7.72,20.886a1.377,1.377,0,0,1-.867.675,1.362,1.362,0,0,1-1.092-.147,1.42,1.42,0,0,1-.675-.867,1.314,1.314,0,0,1,.157-1.081ZM19.086,14.27l1.8,1.058a1.377,1.377,0,0,1,.675.867,1.362,1.362,0,0,1-.147,1.092,1.42,1.42,0,0,1-.867.675,1.314,1.314,0,0,1-1.081-.157l-2.206-1.283A8.414,8.414,0,0,0,19.086,14.27Z" fill="#fff"/>
</svg>
