<svg xmlns="http://www.w3.org/2000/svg" width="44.188" height="41.408" viewBox="0 0 44.188 41.408">
  <g id="banner_design" transform="translate(43.785 -0.728) rotate(87)">
    <path id="Path_160973" data-name="Path 160973" d="M.9.156l11.344,10.9a.564.564,0,0,1,.17.464.533.533,0,0,1-.261.408L4.535,16.344a.528.528,0,0,1-.482.023.562.562,0,0,1-.314-.38L.017.67A.531.531,0,0,1,.9.156Z" transform="matrix(0.485, -0.875, 0.875, 0.485, 19.993, 37.687)" fill="#fe7d43"/>
    <path id="Path_160974" data-name="Path 160974" d="M.378,4.362,15.1.021a.536.536,0,0,1,.476.09A.564.564,0,0,1,15.8.553l.1,9.017a.537.537,0,0,1-.212.437.524.524,0,0,1-.475.08L.389,5.41A.55.55,0,0,1,.378,4.362Z" transform="matrix(0.485, -0.875, 0.875, 0.485, 0, 13.907)" fill="#00f2a6"/>
    <path id="Path_160976" data-name="Path 160976" d="M4.351,9.361.162,5.1a.554.554,0,0,1-.009-.774L4.248.156a.531.531,0,0,1,.761.009L9.2,4.427a.555.555,0,0,1,.009.774L5.111,9.37A.531.531,0,0,1,4.351,9.361Z" transform="matrix(0.485, -0.875, 0.875, 0.485, 23.766, 17.53)" fill="#8ac9fe"/>
  </g>
</svg>
