<svg xmlns="http://www.w3.org/2000/svg" xmlns:xlink="http://www.w3.org/1999/xlink" width="13" height="13" viewBox="0 0 13 13">
  <defs>
    <clipPath id="clip-path">
      <rect id="矩形_30776" data-name="矩形 30776" width="13" height="13" transform="translate(1125 216)" fill="#fff" stroke="#707070" stroke-width="1"/>
    </clipPath>
  </defs>
  <g id="tips_hook" transform="translate(-1125 -216)" clip-path="url(#clip-path)">
    <path id="_34568" data-name="34568" d="M.5,8.932m11.015,0M.879,8.721m4.563.984c1.11-1.552,2.259-2.929,3.113-3.9.5-.572.977-1.093,1.431-1.561.41-.424.817-.813,1.207-1.178a15.054,15.054,0,0,1,1.935-1.61L12.5.628C11.6,1.2,10.722,1.8,10.048,2.267c-.393.271-.757.532-1.1.781s-.692.516-1.062.8C7.243,4.34,6.416,5,5.616,5.686L3.609,3.79,1.252,5.647ZM13.5,8.721" transform="translate(1124.499 217.333)" fill="#272636"/>
  </g>
</svg>
