<svg xmlns="http://www.w3.org/2000/svg" width="150.506" height="272.452" viewBox="0 0 150.506 272.452">
  <g id="top_banner_design" opacity="0.786">
    <path id="Path_160973" data-name="Path 160973" d="M1.119,19.657,14.961,6.609a.663.663,0,0,0-.123-1.057L5.376.089A.663.663,0,0,0,4.4.511L.019,19.022a.663.663,0,0,0,1.1.635Z" transform="matrix(0.485, 0.875, -0.875, 0.485, 143.151, 215.188)" fill="#fe7d43"/>
    <path id="Path_160974" data-name="Path 160974" d="M.473,6.762l18.221,5.463a.663.663,0,0,0,.854-.635V.663a.663.663,0,0,0-.854-.635L.473,5.491A.663.663,0,0,0,.473,6.762Z" transform="matrix(0.485, 0.875, -0.875, 0.485, 112.255, 248.365)" fill="#00f2a6"/>
    <path id="Path_160975" data-name="Path 160975" d="M15.55,5.512.7,9.966A.54.54,0,0,1,0,9.448V.541A.54.54,0,0,1,.7.023L15.55,4.477A.541.541,0,0,1,15.55,5.512Z" transform="translate(136.4 7.063) rotate(135)" fill="#fe7d43"/>
    <path id="Path_160976" data-name="Path 160976" d="M5.3.194.194,5.3a.663.663,0,0,0,0,.938L5.3,11.349a.663.663,0,0,0,.938,0L11.348,6.24a.664.664,0,0,0,0-.938L6.24.194A.663.663,0,0,0,5.3.194Z" transform="matrix(0.485, 0.875, -0.875, 0.485, 140.402, 244.191)" fill="#8ac9fe"/>
    <path id="Path_160977" data-name="Path 160977" d="M4.323,9.252.158,5.087a.541.541,0,0,1,0-.765L4.323.158a.541.541,0,0,1,.765,0L9.252,4.323a.541.541,0,0,1,0,.765L5.087,9.251a.54.54,0,0,1-.765,0Z" transform="translate(150.506 56.137) rotate(135)" fill="#00f2a6"/>
    <ellipse id="Ellipse_3010" data-name="Ellipse 3010" cx="3.5" cy="3" rx="3.5" ry="3" transform="translate(0 266.452)" fill="#fe7d43"/>
  </g>
</svg>
