<svg xmlns="http://www.w3.org/2000/svg" xmlns:xlink="http://www.w3.org/1999/xlink" width="32" height="32" viewBox="0 0 32 32">
  <defs>
    <clipPath id="clip-path">
      <rect id="Rectangle_31849" data-name="Rectangle 31849" width="32" height="32" transform="translate(-2.768 -2.863)" fill="#fff" stroke="#707070" stroke-width="1"/>
    </clipPath>
    <linearGradient id="linear-gradient" x1="0.5" y1="0.053" x2="0.5" y2="0.918" gradientUnits="objectBoundingBox">
      <stop offset="0" stop-color="#281fae"/>
      <stop offset="1" stop-color="#281fae" stop-opacity="0.549"/>
    </linearGradient>
    <linearGradient id="linear-gradient-2" x1="0.5" y1="0.152" x2="0.5" y2="0.872" gradientUnits="objectBoundingBox">
      <stop offset="0" stop-color="#281fae" stop-opacity="0"/>
      <stop offset="1" stop-color="#281fae" stop-opacity="0.549"/>
    </linearGradient>
  </defs>
  <g id="icon_laoding" transform="translate(2.768 2.863)" clip-path="url(#clip-path)">
    <path id="路径" d="M12.83.031A2.2,2.2,0,0,1,13.56,4.37,11,11,0,0,0,15.4,26.215v4.4A15.4,15.4,0,0,1,12.83.031Z" transform="translate(-2.166 -2.268)" fill="url(#linear-gradient)"/>
    <path id="路径-2" data-name="路径" d="M17.675,2.905a2.2,2.2,0,0,1,3.106-.168A15.4,15.4,0,0,1,10.5,29.6V25.2A11,11,0,0,0,17.843,6.012,2.2,2.2,0,0,1,17.675,2.905Z" transform="translate(2.732 -1.253)" fill="url(#linear-gradient-2)"/>
  </g>
</svg>
