<svg xmlns="http://www.w3.org/2000/svg" xmlns:xlink="http://www.w3.org/1999/xlink" width="36" height="36" viewBox="0 0 36 36">
  <defs>
    <clipPath id="clip-path">
      <rect id="矩形_31591" data-name="矩形 31591" width="36" height="36" transform="translate(1013 5810)" fill="#fff" stroke="#707070" stroke-width="1"/>
    </clipPath>
    <linearGradient id="linear-gradient" x1="0.278" y1="-1.044" x2="0.861" y2="1" gradientUnits="objectBoundingBox">
      <stop offset="0" stop-color="#caf"/>
      <stop offset="0.258" stop-color="#b392ff"/>
      <stop offset="1" stop-color="#6d4dff"/>
    </linearGradient>
  </defs>
  <g id="蒙版组_7991" data-name="蒙版组 7991" transform="translate(-1013 -5810)" clip-path="url(#clip-path)">
    <path id="联合_221" data-name="联合 221" d="M16073.639,18856.277l-5.57-3.238-7.266,2.914a.938.938,0,0,1-.937-.148l-4.652-3.816-5.758,2.176a.929.929,0,0,1-1.182-.5.918.918,0,0,1,.432-1.191l12.326-6.164a.9.9,0,0,1,.84.008l3.422,1.773,7.7-2.82a.859.859,0,0,1,.277-.059h.105a.306.306,0,0,1,.084.008h.018a.48.48,0,0,1,.07.012l.018,0a.572.572,0,0,1,.07.016c.01.012.025.012.029.02.021,0,.039.012.055.016s.01,0,.014,0l5.941,2.941a.952.952,0,0,1,.5.625,1.037,1.037,0,0,1-.168.8l-5.17,6.41a.945.945,0,0,1-.725.344A.977.977,0,0,1,16073.639,18856.277Zm-4.072-4.5,4.3,2.5,3.938-4.9-4.262-2.109Zm-13.08-1.141,3.609,2.965,3.813-4.16-2.471-1.281Zm9.6-.863-3,3.262,4.488-1.8,2.617-2.973Zm-8.963-16.508a8.278,8.278,0,0,1,16.557,0c0,4.559-8.279,12.6-8.279,12.6S16057.125,18837.82,16057.125,18833.262Zm3.918-.012a4.36,4.36,0,1,0,4.359-4.348A4.359,4.359,0,0,0,16061.043,18833.25Z" transform="translate(-15033.195 -13012.605)" fill="url(#linear-gradient)"/>
  </g>
</svg>
