<svg xmlns="http://www.w3.org/2000/svg" xmlns:xlink="http://www.w3.org/1999/xlink" width="36" height="36" viewBox="0 0 36 36">
  <defs>
    <clipPath id="clip-path">
      <rect id="矩形_31594" data-name="矩形 31594" width="36" height="36" transform="translate(1023 6160)" fill="#fff" stroke="#707070" stroke-width="1"/>
    </clipPath>
    <linearGradient id="linear-gradient" x1="0.278" y1="-1.044" x2="0.861" y2="1" gradientUnits="objectBoundingBox">
      <stop offset="0" stop-color="#caf"/>
      <stop offset="0.258" stop-color="#b392ff"/>
      <stop offset="1" stop-color="#6d4dff"/>
    </linearGradient>
  </defs>
  <g id="蒙版组_7994" data-name="蒙版组 7994" transform="translate(-1023 -6160)" clip-path="url(#clip-path)">
    <path id="减去_2" data-name="减去 2" d="M12.373,33a2.063,2.063,0,0,1-1.458-.6L.6,22.087a2.074,2.074,0,0,1-.509-2.071,13.622,13.622,0,0,1,3.492-5.725A31.686,31.686,0,0,1,10.3,9.565l.011-.007A28.018,28.018,0,0,0,16.183,5.48a9.618,9.618,0,0,0,2.471-4.027A2.068,2.068,0,0,1,20.626,0a2.048,2.048,0,0,1,1.459.607l10.31,10.311a2.054,2.054,0,0,1,.512,2.066,13.629,13.629,0,0,1-3.5,5.728A31.473,31.473,0,0,1,22.7,23.437l-.007,0-.033.018a28.22,28.22,0,0,0-5.84,4.06,9.624,9.624,0,0,0-2.471,4.031A2.069,2.069,0,0,1,12.373,33Zm2.8-10.122a18.016,18.016,0,0,0-1.854,1.6,15.467,15.467,0,0,0-1.508,1.752l-.706.963,0,0a.516.516,0,0,0,.068.645.511.511,0,0,0,.73,0,.39.39,0,0,0,.078-.1l.659-.9a14.278,14.278,0,0,1,1.4-1.633,16.794,16.794,0,0,1,1.766-1.517v0l.012-.01a.137.137,0,0,0,.037-.033.514.514,0,0,0-.687-.762v0Zm.764-3.973a.708.708,0,0,0-.455.207.668.668,0,0,0-.25.512.885.885,0,0,0,.261.583,2.168,2.168,0,0,0,.678.494,2.662,2.662,0,0,0,.931.236c.05,0,.1,0,.15,0a2.5,2.5,0,0,0,.93-.177A3.066,3.066,0,0,0,19.316,20c.157.154.328.312.541.5a.411.411,0,0,0,.257.091h.026a.377.377,0,0,0,.276-.147.386.386,0,0,0,.1-.3.356.356,0,0,0-.128-.251c-.2-.164-.382-.314-.545-.459a5.576,5.576,0,0,0,.737-1.173,3.511,3.511,0,0,0,.33-1.135,2.028,2.028,0,0,0-.121-.97,2.006,2.006,0,0,0-.616-.8,2.73,2.73,0,0,0-1.014-.565,2.915,2.915,0,0,0-.826-.116c-.064,0-.13,0-.194,0a3.925,3.925,0,0,0-1.031.236c-.373.147-.716.3-1.045.454-.544-.633-1.1-1.256-1.663-1.851a1.165,1.165,0,0,1,.728-.347c.036,0,.07,0,.107,0a2.323,2.323,0,0,1,.565.071c.186.046.382.091.6.139a.5.5,0,0,0,.114.012.565.565,0,0,0,.373-.137.671.671,0,0,0,.244-.5.826.826,0,0,0-.235-.595,1.331,1.331,0,0,0-.792-.454,2.428,2.428,0,0,0-.426-.036,2.509,2.509,0,0,0-.534.058,3.31,3.31,0,0,0-.93.37,3.7,3.7,0,0,0-.706.522l-.2-.187a.379.379,0,0,0-.261-.1h-.017a.36.36,0,0,0-.28.134.378.378,0,0,0-.1.294.384.384,0,0,0,.133.263c.031.028.063.053.1.079l.037.033.034.026.034.028a4.632,4.632,0,0,0-.652,1.043,3.466,3.466,0,0,0-.315,1.1,2.169,2.169,0,0,0,.107,1,1.91,1.91,0,0,0,.611.816,2.308,2.308,0,0,0,1.535.54c.061,0,.122,0,.184,0a5.218,5.218,0,0,0,2.142-.648l.027.031c.554.638,1.182,1.362,1.8,2.018a1.641,1.641,0,0,1-.68.383,1.066,1.066,0,0,1-.246.03,1.1,1.1,0,0,1-.292-.043,1.62,1.62,0,0,1-.448-.215,3.375,3.375,0,0,0-.407-.238.91.91,0,0,0-.412-.107ZM21.49,5.116a.521.521,0,0,0-.361.147.49.49,0,0,0-.09.124l-.683.939a13.824,13.824,0,0,1-1.4,1.629,16.789,16.789,0,0,1-1.729,1.491.524.524,0,0,0-.269.383.54.54,0,0,0,.147.443.511.511,0,0,0,.365.15.531.531,0,0,0,.358-.137,17.743,17.743,0,0,0,1.858-1.6,15.346,15.346,0,0,0,1.5-1.747l.706-.968a.523.523,0,0,0-.4-.854Zm-2.543,13.47h0c-.583-.6-1.166-1.23-1.733-1.882l.08-.035.033-.015.057-.025c.1-.043.2-.088.3-.129a2.175,2.175,0,0,1,.5-.147,1.085,1.085,0,0,1,.2-.015,1.34,1.34,0,0,1,.308.036,1.017,1.017,0,0,1,.473.276.929.929,0,0,1,.275.461,1.222,1.222,0,0,1,.014.5,1.65,1.65,0,0,1-.186.516,2.154,2.154,0,0,1-.321.458Zm-4.591-2.519a1.017,1.017,0,0,1-.72-.3.784.784,0,0,1-.2-.332A1.022,1.022,0,0,1,13.4,15a1.4,1.4,0,0,1,.139-.479,1.957,1.957,0,0,1,.337-.483c.582.592,1.093,1.14,1.564,1.679a2.435,2.435,0,0,1-1.03.347C14.39,16.068,14.374,16.068,14.357,16.068Z" transform="translate(1030.173 6158.02) rotate(17)" fill="url(#linear-gradient)"/>
  </g>
</svg>
