<svg xmlns="http://www.w3.org/2000/svg" xmlns:xlink="http://www.w3.org/1999/xlink" width="36" height="36" viewBox="0 0 36 36">
  <defs>
    <clipPath id="clip-path">
      <rect id="矩形_31592" data-name="矩形 31592" width="36" height="36" transform="translate(1016 5899)" fill="#fff" stroke="#707070" stroke-width="1"/>
    </clipPath>
    <linearGradient id="linear-gradient" x1="0.278" y1="-1.044" x2="0.861" y2="1" gradientUnits="objectBoundingBox">
      <stop offset="0" stop-color="#caf"/>
      <stop offset="0.258" stop-color="#b392ff"/>
      <stop offset="1" stop-color="#6d4dff"/>
    </linearGradient>
  </defs>
  <g id="蒙版组_7992" data-name="蒙版组 7992" transform="translate(-1016 -5899)" clip-path="url(#clip-path)">
    <path id="路径_166123" data-name="路径 166123" d="M63.11,47.529A15.541,15.541,0,1,0,45.636,62.94a7.765,7.765,0,0,0,1.586.144,4.994,4.994,0,0,0,.51-.026A15.535,15.535,0,0,0,63.11,47.529Zm-2.222.22c-.045-.775.894-1.318.738-2.055.014-.263-1.023-.728-1.03-.96a13.357,13.357,0,0,1,.294,2.8C60.89,47.6,60.889,47.676,60.888,47.749Zm-26.64-.22a13.359,13.359,0,0,1,.284-2.746,1.411,1.411,0,0,0,2.262-.319c.592.353,1.387.417,1.387,1.122,0,2.326.083,4.82,2.2,4.858a3.012,3.012,0,0,1,1.711,1.805c.184.477.913,0,1.711,0,.4,0,0,.672,0,2.125s3.12,3.675,3.12,3.675a16.748,16.748,0,0,0,.1,2.351,5.224,5.224,0,0,0-1.764.239A13.317,13.317,0,0,1,34.248,47.529Zm16.6,12.9c-.069-.338-.371-.523-.922-.378.44-1.873.654-2.922,1.572-3.719a1.241,1.241,0,0,0-.853-2.281c-.8.12-.293-.987-1-1.048S48,51.534,46.978,51.047c-.543-.258-1.076-.948-1.912-.979-.742-.029-1.825.627-1.825.122a31.418,31.418,0,0,0-.2-3.254c-.027-.373-.244-.126.759-.1.546.015.279-1.1.819-1.139s1.794.5,2.116.282c.3-.2,2.2,4.987,2.2.857,0-.49-.254-1.342,0-1.806a21.756,21.756,0,0,0,1.859-3.547,2.754,2.754,0,0,0-1.81.038c-.264.088.084.5-.3.591-1.423.328-2.679-.384-2.239-1.053.451-.686,2.084-.3,2.227-1.675.082-.788.151-1.7.2-2.379,1.914.3,1.7-2.485-1.143-2.783a13.326,13.326,0,0,1,12.43,8.948.543.543,0,0,0-.318-.145c-.861-2.15-2.95-.594-2.241,1.3-3.8,2.919-2.825,4.954-1.578,6.12a11.3,11.3,0,0,1,1.69,2.2c-.443,1.293,1.634.775,2.659-1.419a13.341,13.341,0,0,1-9.522,9.212Z" transform="translate(986.391 5869.166)" stroke="rgba(0,0,0,0)" stroke-width="1" fill="url(#linear-gradient)"/>
  </g>
</svg>
