<svg xmlns="http://www.w3.org/2000/svg" xmlns:xlink="http://www.w3.org/1999/xlink" width="130" height="46" viewBox="0 0 130 46">
  <defs>
    <clipPath id="clip-path">
      <rect id="Rectangle_30666" data-name="Rectangle 30666" width="130" height="46" transform="translate(291 26)" fill="#fff" stroke="#707070" stroke-width="1"/>
    </clipPath>
  </defs>
  <g id="vidqu_logo_mob" transform="translate(-291 -26)" clip-path="url(#clip-path)">
    <path id="Path_175452" data-name="Path 175452" d="M10.206,0,.882-30.66h7.1L15.372-4.788l-1.6-.8H18.06l-1.68.8L23.226-30.66h6.888L21.42,0ZM34.524,0V-23.016l6.72.042V0ZM31.458-18.06v-4.956l9.786.042v4.914Zm5.67-7.224a3.608,3.608,0,0,1-2.793-.987,3.56,3.56,0,0,1-.9-2.5,3.542,3.542,0,0,1,.9-2.52A3.775,3.775,0,0,1,37.128-32.3a3.608,3.608,0,0,1,2.793.987,3.471,3.471,0,0,1,.861,2.541,3.411,3.411,0,0,1-.861,2.5A3.608,3.608,0,0,1,37.128-25.284ZM56.952.756a10.84,10.84,0,0,1-4.431-.882,10.49,10.49,0,0,1-3.465-2.457A10.75,10.75,0,0,1,46.809-6.3a13.448,13.448,0,0,1-.777-4.62v-.966a14.143,14.143,0,0,1,.735-4.62,11.2,11.2,0,0,1,2.142-3.759,9.87,9.87,0,0,1,3.381-2.52,10.48,10.48,0,0,1,4.41-.9,9.208,9.208,0,0,1,4.788,1.2,8.086,8.086,0,0,1,3.15,3.528A14.268,14.268,0,0,1,65.9-13.23l-1.764-1.638V-30.66H70.9V0H65.562V-9.534h.924a12.738,12.738,0,0,1-1.365,5.586A8.6,8.6,0,0,1,61.782-.441,9.581,9.581,0,0,1,56.952.756Zm1.68-5.628a5.861,5.861,0,0,0,2.835-.693A5.231,5.231,0,0,0,63.525-7.6a6.358,6.358,0,0,0,.777-3.234V-12.39a5.7,5.7,0,0,0-.8-3.108,5.357,5.357,0,0,0-2.1-1.932A6.046,6.046,0,0,0,58.59-18.1a5.384,5.384,0,0,0-3,.861,5.955,5.955,0,0,0-2.079,2.352,7.564,7.564,0,0,0-.756,3.465,7.532,7.532,0,0,0,.756,3.486,5.489,5.489,0,0,0,2.1,2.268A5.81,5.81,0,0,0,58.632-4.872ZM93.7,8.4,93.66-6.8,95.466-9.24a12.326,12.326,0,0,1-1.239,5.355A8.228,8.228,0,0,1,91.014-.441a9.436,9.436,0,0,1-4.83,1.2,10.377,10.377,0,0,1-4.368-.9,10.125,10.125,0,0,1-3.381-2.478,10.739,10.739,0,0,1-2.142-3.717,14.143,14.143,0,0,1-.735-4.62v-.966a13.5,13.5,0,0,1,.777-4.6,10.935,10.935,0,0,1,2.247-3.759,10.608,10.608,0,0,1,3.465-2.5,10.623,10.623,0,0,1,4.431-.9,9.379,9.379,0,0,1,4.893,1.239,8.49,8.49,0,0,1,3.255,3.57,13.288,13.288,0,0,1,1.26,5.691h-.8v-9.828l5.292.042L100.422,8.4ZM88.158-4.914a5.413,5.413,0,0,0,2.835-.672,5.381,5.381,0,0,0,2.058-2.058,6.662,6.662,0,0,0,.819-3.234v-1.554a5.959,5.959,0,0,0-.84-3.108,5.4,5.4,0,0,0-2.079-1.932,6.008,6.008,0,0,0-2.835-.672,5.384,5.384,0,0,0-3,.861,5.955,5.955,0,0,0-2.079,2.352,7.662,7.662,0,0,0-.756,3.507,7.434,7.434,0,0,0,.756,3.444,5.682,5.682,0,0,0,2.079,2.289A5.406,5.406,0,0,0,88.158-4.914ZM114.282.714a7.515,7.515,0,0,1-6.132-2.583q-2.142-2.583-2.142-7.791V-23.016h6.72V-9.324a4.063,4.063,0,0,0,1.05,2.94,3.722,3.722,0,0,0,2.814,1.092,3.978,3.978,0,0,0,2.94-1.134,4.143,4.143,0,0,0,1.134-3.066V-23.016h6.72V0h-5.334V-9.7h.462a16.219,16.219,0,0,1-.9,5.817A6.93,6.93,0,0,1,118.944-.42,7.919,7.919,0,0,1,114.576.714Z" transform="translate(291 61)" fill="#1b1e37"/>
  </g>
</svg>
