<svg xmlns="http://www.w3.org/2000/svg" xmlns:xlink="http://www.w3.org/1999/xlink" width="71.684" height="62" viewBox="0 0 71.684 62">
  <defs>
    <clipPath id="clip-path">
      <rect width="51.535" height="29.353" fill="none"/>
    </clipPath>
    <linearGradient id="linear-gradient" x1="0.5" x2="0.954" y2="0.828" gradientUnits="objectBoundingBox">
      <stop offset="0" stop-color="#f82324"/>
      <stop offset="1" stop-color="#d93434"/>
    </linearGradient>
    <filter id="_1" x="28.577" y="18.893" width="43.107" height="43.107" filterUnits="userSpaceOnUse">
      <feOffset dy="3" input="SourceAlpha"/>
      <feGaussianBlur stdDeviation="3" result="blur"/>
      <feFlood flood-opacity="0.161"/>
      <feComposite operator="in" in2="blur"/>
      <feComposite in="SourceGraphic"/>
    </filter>
  </defs>
  <g id="win_icon_no_times" transform="translate(-1029 -485)">
    <g id="Group_13225" data-name="Group 13225" transform="translate(1028 484)">
      <path id="Path_160731" data-name="Path 160731" d="M57.439,13.031l.254,29.859A4.013,4.013,0,0,1,53.8,47.014H5.146A4.013,4.013,0,0,1,1.254,42.89L1,13.031,1.973,12H56.466Z" fill="#d5dff7"/>
      <path id="Path_160732" data-name="Path 160732" d="M57.432,5v8H1V5A3.947,3.947,0,0,1,4.892,1H53.54A3.947,3.947,0,0,1,57.432,5Z" fill="#f8d823"/>
      <g id="Group_13224" data-name="Group 13224" transform="translate(52.432 35.023)">
        <path id="Path_160733" data-name="Path 160733" d="M54,34v0Z" transform="translate(-54 -33.969)" fill="#293e72"/>
      </g>
      <path id="Path_160734" data-name="Path 160734" d="M57.432,30.543V28.479H40.892V13H38.946V28.479H19.486V13H17.54V28.479H1v2.064H17.54V47.053H40.892V30.543ZM38.946,47.053H19.486V30.543H38.946Z" fill="#abbad3"/>
      <g id="Repeat_Grid_35" data-name="Repeat Grid 35" transform="translate(3.579 15.876)" clip-path="url(#clip-path)">
        <g transform="translate(-4.156 -15.623)">
          <path id="Path_160735" data-name="Path 160735" d="M5.568,20.257l2.775,2.475,4.31-5.708" transform="translate(1.103 1.888)" fill="none" stroke="#39325a" stroke-linecap="round" stroke-width="2"/>
        </g>
        <g transform="translate(15.844 -15.623)">
          <path id="Path_160735-2" data-name="Path 160735" d="M5.568,20.257l2.775,2.475,4.31-5.708" transform="translate(1.103 1.888)" fill="none" stroke="#39325a" stroke-linecap="round" stroke-width="2"/>
        </g>
        <g transform="translate(35.844 -15.623)">
          <path id="Path_160735-3" data-name="Path 160735" d="M5.568,20.257l2.775,2.475,4.31-5.708" transform="translate(1.103 1.888)" fill="none" stroke="#39325a" stroke-linecap="round" stroke-width="2"/>
        </g>
        <g transform="translate(-4.156 -0.623)">
          <path id="Path_160735-4" data-name="Path 160735" d="M5.568,20.257l2.775,2.475,4.31-5.708" transform="translate(1.103 1.888)" fill="none" stroke="#39325a" stroke-linecap="round" stroke-width="2"/>
        </g>
        <g transform="translate(15.844 -0.623)">
          <path id="Path_160735-5" data-name="Path 160735" d="M5.568,20.257l2.775,2.475,4.31-5.708" transform="translate(1.103 1.888)" fill="none" stroke="#39325a" stroke-linecap="round" stroke-width="2"/>
        </g>
        <g transform="translate(35.844 -0.623)">
          <path id="Path_160735-6" data-name="Path 160735" d="M5.568,20.257l2.775,2.475,4.31-5.708" transform="translate(1.103 1.888)" fill="none" stroke="#39325a" stroke-linecap="round" stroke-width="2"/>
        </g>
      </g>
    </g>
    <g id="组_13215" data-name="组 13215" transform="translate(377.995 -16.689)">
      <g transform="matrix(1, 0, 0, 1, 651, 501.69)" filter="url(#_1)">
        <path id="_1-2" data-name="1" d="M12.554,0A12.554,12.554,0,1,1,0,12.554,12.554,12.554,0,0,1,12.554,0Z" transform="translate(37.58 24.89)" fill="url(#linear-gradient)"/>
      </g>
      <path id="_1-3" data-name="1" d="M-10.466-28.314l-.831,8.931h-.914l-.872-8.931a1.1,1.1,0,0,1,.363-.862,1.276,1.276,0,0,1,.955-.426,1.273,1.273,0,0,1,.945.405A1.1,1.1,0,0,1-10.466-28.314ZM-11.712-17.6a1.227,1.227,0,0,1,.9.363,1.252,1.252,0,0,1,.363.924,1.217,1.217,0,0,1-.384.924,1.323,1.323,0,0,1-.945.363,1.184,1.184,0,0,1-.914-.384,1.331,1.331,0,0,1-.353-.935,1.172,1.172,0,0,1,.384-.9A1.345,1.345,0,0,1-11.712-17.6Z" transform="translate(712.658 561.34)" fill="#fff" stroke="rgba(0,0,0,0)" stroke-width="1"/>
    </g>
  </g>
</svg>
