<svg xmlns="http://www.w3.org/2000/svg" width="42" height="42" viewBox="0 0 42 42">
  <g id="icon_avatar" transform="translate(-194 -192)">
    <circle id="Ellipse_3127" data-name="Ellipse 3127" cx="21" cy="21" r="21" transform="translate(194 192)" fill="#2d3036"/>
    <path id="Path_175451" data-name="Path 175451" d="M115.183,278.512a2.47,2.47,0,0,1-.361,2.207,16.477,16.477,0,0,1-26.66,0,2.47,2.47,0,0,1-.361-2.207l.837-2.6a5.186,5.186,0,0,1,6.71-3.3,18.778,18.778,0,0,0,12.288,0,5.192,5.192,0,0,1,6.71,3.3Z" transform="translate(113.508 -57.965)" fill="#eef3ff" opacity="0.2"/>
    <circle id="Ellipse_3128" data-name="Ellipse 3128" cx="8.113" cy="8.113" r="8.113" transform="translate(206.887 196.446)" fill="#eef3ff" opacity="0.12"/>
  </g>
</svg>
