<svg xmlns="http://www.w3.org/2000/svg" xmlns:xlink="http://www.w3.org/1999/xlink" width="20" height="20" viewBox="0 0 20 20">
  <defs>
    <clipPath id="clip-path">
      <rect id="Rectangle_31918" data-name="Rectangle 31918" width="20" height="20" transform="translate(19 66)" fill="#fff" stroke="#707070" stroke-width="1"/>
    </clipPath>
  </defs>
  <g id="icon_edit-profile" transform="translate(-19 -66)" clip-path="url(#clip-path)">
    <path id="Path_175442" data-name="Path 175442" d="M7.444,172.722H6.278a7.8,7.8,0,0,0-2.07.134,3.111,3.111,0,0,0-2.074,2.074A7.787,7.787,0,0,0,2,177m9.722-10.5a3.5,3.5,0,1,1-3.5-3.5A3.5,3.5,0,0,1,11.722,166.5ZM9,177l2.412-.689a1.654,1.654,0,0,0,.227-.075.764.764,0,0,0,.136-.079,1.647,1.647,0,0,0,.175-.163l5.022-5.022a1.375,1.375,0,0,0-1.944-1.944l-5.022,5.022a1.64,1.64,0,0,0-.163.175.78.78,0,0,0-.08.136,1.585,1.585,0,0,0-.074.227Z" transform="translate(19.313 -94)" fill="none" stroke="#cfcfcf" stroke-linecap="round" stroke-linejoin="round" stroke-width="2"/>
  </g>
</svg>
