<svg xmlns="http://www.w3.org/2000/svg" xmlns:xlink="http://www.w3.org/1999/xlink" width="124" height="124" viewBox="0 0 124 124">
  <defs>
    <clipPath id="clip-path">
      <rect id="_1" data-name="1" width="124" height="124" transform="translate(685.363 523.363)" fill="#fff" stroke="#707070" stroke-width="1"/>
    </clipPath>
    <linearGradient id="linear-gradient" x1="0.5" x2="0.954" y2="0.828" gradientUnits="objectBoundingBox">
      <stop offset="0" stop-color="#f82324"/>
      <stop offset="1" stop-color="#d93434"/>
    </linearGradient>
    <filter id="_1-2" x="-1.873" y="1.127" width="127.747" height="127.747" filterUnits="userSpaceOnUse">
      <feOffset dy="3" input="SourceAlpha"/>
      <feGaussianBlur stdDeviation="3" result="blur"/>
      <feFlood flood-opacity="0.161"/>
      <feComposite operator="in" in2="blur"/>
      <feComposite in="SourceGraphic"/>
    </filter>
  </defs>
  <g id="icon_mistake" transform="translate(-685.363 -523.363)" clip-path="url(#clip-path)">
    <g transform="matrix(1, 0, 0, 1, 685.36, 523.36)" filter="url(#_1-2)">
      <path id="_1-3" data-name="1" d="M54.873,0A54.873,54.873,0,1,1,0,54.873,54.873,54.873,0,0,1,54.873,0Z" transform="translate(7.13 7.13)" fill="url(#linear-gradient)"/>
    </g>
    <path id="_1-4" data-name="1" d="M-1.631-23.973-5.262,15.065H-9.257L-13.07-23.973a4.8,4.8,0,0,1,1.589-3.768A5.579,5.579,0,0,1-7.3-29.6a5.565,5.565,0,0,1,4.131,1.77A4.8,4.8,0,0,1-1.631-23.973ZM-7.078,22.872a5.361,5.361,0,0,1,3.949,1.589A5.473,5.473,0,0,1-1.54,28.5a5.32,5.32,0,0,1-1.68,4.04A5.783,5.783,0,0,1-7.35,34.13a5.177,5.177,0,0,1-3.995-1.68,5.819,5.819,0,0,1-1.543-4.085,5.124,5.124,0,0,1,1.68-3.949A5.879,5.879,0,0,1-7.078,22.872Z" transform="translate(753.615 582.632)" fill="#fff" stroke="rgba(0,0,0,0)" stroke-width="1"/>
  </g>
</svg>
