<svg xmlns="http://www.w3.org/2000/svg" xmlns:xlink="http://www.w3.org/1999/xlink" width="18" height="18" viewBox="0 0 18 18">
  <defs>
    <clipPath id="clip-path">
      <rect id="矩形_2701" data-name="矩形 2701" width="18" height="18" transform="translate(731 343)" fill="#fff" stroke="#707070" stroke-width="1"/>
    </clipPath>
  </defs>
  <g id="蒙版组_809" data-name="蒙版组 809" transform="translate(-731 -343)" clip-path="url(#clip-path)">
    <g id="组_6450" data-name="组 6450" transform="translate(731.66 343.828)">
      <path id="路径_15248" data-name="路径 15248" d="M3.643,289.647a4.674,4.674,0,0,1,.247-1.491l-2.763-2.067a7.937,7.937,0,0,0,0,7.112l2.762-2.07a4.66,4.66,0,0,1-.242-1.484" transform="translate(0 -281.475)" fill="#fbbc05"/>
      <path id="路径_15249" data-name="路径 15249" d="M61.134,3.4a4.813,4.813,0,0,1,3.023,1.058l2.389-2.337A8.305,8.305,0,0,0,53.764,4.585l2.762,2.068A4.83,4.83,0,0,1,61.131,3.4" transform="translate(-52.636 0)" fill="#ea4335"/>
      <path id="路径_15250" data-name="路径 15250" d="M61.083,611.881a4.835,4.835,0,0,1-4.607-3.254l-2.763,2.067a8.2,8.2,0,0,0,7.371,4.472,7.921,7.921,0,0,0,5.35-2l-2.626-1.986a5.161,5.161,0,0,1-2.727.7" transform="translate(-52.586 -598.935)" fill="#34a853"/>
      <path id="路径_15251" data-name="路径 15251" d="M533.158,422.532a6.543,6.543,0,0,0-.187-1.459h-7.656v3.1h4.4a3.614,3.614,0,0,1-1.677,2.4l2.623,1.986a7.9,7.9,0,0,0,2.489-6.028" transform="translate(-516.764 -414.333)" fill="#4285f4"/>
    </g>
  </g>
</svg>
