<svg xmlns="http://www.w3.org/2000/svg" xmlns:xlink="http://www.w3.org/1999/xlink" width="38" height="38" viewBox="0 0 38 38">
  <defs>
    <clipPath id="clip-path">
      <rect id="矩形_30714" data-name="矩形 30714" width="38" height="38" transform="translate(60 151)" fill="#fff" stroke="#707070" stroke-width="1"/>
    </clipPath>
  </defs>
  <g id="icon_back" transform="translate(-60 -151)" clip-path="url(#clip-path)">
    <path id="back" d="M16.267,22.429l0,0C16.262,22.427,16.262,22.428,16.267,22.429Zm-14.779-5.3L11.634,27.278a1.794,1.794,0,0,0,2.538-2.537L7.089,17.656H29.337a1.795,1.795,0,0,0,0-3.589H7.089l6.084-6.084a1.795,1.795,0,1,0-2.538-2.538L1.488,14.593A1.793,1.793,0,0,0,1.488,17.131Z" transform="translate(62.55 154.139)" fill="#39325a"/>
  </g>
</svg>
