<svg xmlns="http://www.w3.org/2000/svg" xmlns:xlink="http://www.w3.org/1999/xlink" width="56" height="56" viewBox="0 0 56 56">
  <defs>
    <clipPath id="clip-path">
      <rect id="_1" data-name="1" width="56" height="56" transform="translate(685.363 523.363)" fill="#fff" stroke="#707070" stroke-width="1"/>
    </clipPath>
    <linearGradient id="linear-gradient" x1="0.5" x2="0.954" y2="0.828" gradientUnits="objectBoundingBox">
      <stop offset="0" stop-color="#f82324"/>
      <stop offset="1" stop-color="#d93434"/>
    </linearGradient>
    <filter id="_1-2" x="-5.781" y="-2.781" width="67.563" height="67.563" filterUnits="userSpaceOnUse">
      <feOffset dy="3" input="SourceAlpha"/>
      <feGaussianBlur stdDeviation="3" result="blur"/>
      <feFlood flood-opacity="0.161"/>
      <feComposite operator="in" in2="blur"/>
      <feComposite in="SourceGraphic"/>
    </filter>
  </defs>
  <g id="icon_mistake" transform="translate(-685.363 -523.363)" clip-path="url(#clip-path)">
    <g transform="matrix(1, 0, 0, 1, 685.36, 523.36)" filter="url(#_1-2)">
      <path id="_1-3" data-name="1" d="M24.781,0A24.781,24.781,0,1,1,0,24.781,24.781,24.781,0,0,1,24.781,0Z" transform="translate(3.22 3.22)" fill="url(#linear-gradient)"/>
    </g>
    <path id="_1-4" data-name="1" d="M-7.913-27.06-9.553-9.43h-1.8l-1.722-17.63a2.167,2.167,0,0,1,.718-1.7,2.52,2.52,0,0,1,1.886-.84,2.513,2.513,0,0,1,1.865.8A2.167,2.167,0,0,1-7.913-27.06ZM-10.373-5.9a2.421,2.421,0,0,1,1.783.718,2.472,2.472,0,0,1,.718,1.824A2.4,2.4,0,0,1-8.63-1.538,2.612,2.612,0,0,1-10.5-.82a2.338,2.338,0,0,1-1.8-.759A2.628,2.628,0,0,1-13-3.423a2.314,2.314,0,0,1,.759-1.784A2.655,2.655,0,0,1-10.373-5.9Z" transform="translate(723.363 566.363)" fill="#fff" stroke="rgba(0,0,0,0)" stroke-width="1"/>
  </g>
</svg>
