<svg xmlns="http://www.w3.org/2000/svg" xmlns:xlink="http://www.w3.org/1999/xlink" width="81" height="81" viewBox="0 0 81 81">
  <defs>
    <clipPath id="clip-path">
      <rect id="矩形_30722" data-name="矩形 30722" width="81" height="81" transform="translate(321 1189)" fill="none" stroke="#707070" stroke-width="1"/>
    </clipPath>
    <clipPath id="clip-path-2">
      <rect id="矩形_1303" data-name="矩形 1303" width="52" height="52" transform="translate(7.026 36.634)" fill="none"/>
    </clipPath>
    <linearGradient id="linear-gradient" x1="0.932" y1="0.9" x2="0.337" y2="0.045" gradientUnits="objectBoundingBox">
      <stop offset="0" stop-color="#8f87ff" stop-opacity="0"/>
      <stop offset="0.14" stop-color="#857cfe" stop-opacity="0.169"/>
      <stop offset="0.46" stop-color="#7167fe" stop-opacity="0.522"/>
      <stop offset="0.72" stop-color="#6257fe" stop-opacity="0.78"/>
      <stop offset="0.9" stop-color="#594dfe" stop-opacity="0.941"/>
      <stop offset="1" stop-color="#564afe"/>
    </linearGradient>
    <linearGradient id="linear-gradient-2" x1="0.412" y1="0.208" x2="0.533" y2="0.959" gradientUnits="objectBoundingBox">
      <stop offset="0" stop-color="#8f87ff" stop-opacity="0"/>
      <stop offset="0.09" stop-color="#8c84fe" stop-opacity="0.039"/>
      <stop offset="0.23" stop-color="#877efe" stop-opacity="0.141"/>
      <stop offset="0.41" stop-color="#7d74fe" stop-opacity="0.302"/>
      <stop offset="0.62" stop-color="#7066fe" stop-opacity="0.529"/>
      <stop offset="0.86" stop-color="#6055fe" stop-opacity="0.82"/>
      <stop offset="1" stop-color="#564afe"/>
    </linearGradient>
    <linearGradient id="linear-gradient-3" x1="0.24" y1="0.953" x2="0.827" y2="-0.019" xlink:href="#linear-gradient"/>
  </defs>
  <g id="icon_no_watermark" transform="translate(-321 -1189)" clip-path="url(#clip-path)">
    <g id="win_icon_remove_watermark" transform="translate(-127 737.84)">
      <g id="组_1685" data-name="组 1685" transform="translate(452.975 428.366)" clip-path="url(#clip-path-2)">
        <g id="组_1684" data-name="组 1684" transform="translate(10.477 38.961)">
          <g id="组_1682" data-name="组 1682">
            <path id="路径_6439" data-name="路径 6439" d="M22.34,55.55a22.807,22.807,0,0,0,1.291,5.768c1.389,3.121,3.333,7.026,7.5-2.173a48.348,48.348,0,0,1,7.892-12.369A124.629,124.629,0,0,0,22.912,38.7,10.147,10.147,0,0,0,10.38,42.756a14.913,14.913,0,0,1,11.977,12.81Z" transform="translate(-8.125 -37.921)" fill="#8f87ff"/>
            <path id="路径_6440" data-name="路径 6440" d="M49.963,48.246c-.686-.507-1.389-1-2.075-1.487a18.982,18.982,0,0,0-7.794,7.353c-3.039,5.653-5.9,11.846-8.4,15a4.669,4.669,0,0,1-5.637,1.34c-6.47-3.006-9.673-13.48-11.094-20.277a5.172,5.172,0,0,0-5.555-4.085Q8.992,51.212,9,56.432A129.127,129.127,0,0,0,9.833,71.17a10.122,10.122,0,0,0,13.954,8.186A127.457,127.457,0,0,0,49.946,64.667a10.139,10.139,0,0,0,.033-16.4Z" transform="translate(-9 -32.757)" fill="#8f87ff"/>
          </g>
          <g id="组_1683" data-name="组 1683">
            <path id="路径_6441" data-name="路径 6441" d="M22.34,55.55a22.807,22.807,0,0,0,1.291,5.768c1.389,3.121,3.333,7.026,7.5-2.173a48.348,48.348,0,0,1,7.892-12.369A124.629,124.629,0,0,0,22.912,38.7,10.147,10.147,0,0,0,10.38,42.756a14.913,14.913,0,0,1,11.977,12.81Z" transform="translate(-8.125 -37.921)" fill="url(#linear-gradient)"/>
            <path id="路径_6442" data-name="路径 6442" d="M20.944,73.745a14.82,14.82,0,0,0,10.114-3.97,4.65,4.65,0,0,1-5,.686c-6.47-3.006-9.673-13.48-11.094-20.277A5.172,5.172,0,0,0,9.408,46.1Q8.992,51.222,9,56.442c0,4.036.2,8.023.556,11.944a14.849,14.849,0,0,0,11.421,5.359Z" transform="translate(-9 -32.751)" fill="url(#linear-gradient-2)"/>
            <path id="路径_6443" data-name="路径 6443" d="M9.32,68.117a14.858,14.858,0,0,0,21.535,1.389,4.831,4.831,0,0,0,.637-.654c2.5-3.154,5.359-9.346,8.4-15A19.073,19.073,0,0,1,47.685,46.5c.7.49,1.389.98,2.075,1.487a10.139,10.139,0,0,1-.033,16.4A127.457,127.457,0,0,1,23.568,79.081,10.122,10.122,0,0,1,9.614,70.895l-.278-2.778Z" transform="translate(-8.797 -32.482)" fill="url(#linear-gradient-3)"/>
          </g>
        </g>
      </g>
      <g id="组_13215" data-name="组 13215" transform="translate(-200.363 -34.587)">
        <g id="_1" data-name="1" transform="translate(692.26 528.26)" fill="#fff">
          <path d="M 12.46520900726318 23.930419921875 C 9.402738571166992 23.930419921875 6.523579120635986 22.73782920837402 4.358078956604004 20.57233810424805 C 2.192589044570923 18.4068489074707 0.9999989867210388 15.52767944335938 0.9999989867210388 12.46520900726318 C 0.9999989867210388 9.402738571166992 2.192589044570923 6.523579120635986 4.358078956604004 4.358078956604004 C 6.523579120635986 2.192589044570923 9.402738571166992 0.9999989867210388 12.46520900726318 0.9999989867210388 C 15.52767944335938 0.9999989867210388 18.4068489074707 2.192589044570923 20.57233810424805 4.358078956604004 C 22.73782920837402 6.523579120635986 23.930419921875 9.402738571166992 23.930419921875 12.46520900726318 C 23.930419921875 15.52767944335938 22.73782920837402 18.4068489074707 20.57233810424805 20.57233810424805 C 18.4068489074707 22.73782920837402 15.52767944335938 23.930419921875 12.46520900726318 23.930419921875 Z" stroke="none"/>
          <path d="M 12.46520900726318 1.999998092651367 C 6.694669723510742 1.999998092651367 1.999998092651367 6.694669723510742 1.999998092651367 12.46520900726318 C 1.999998092651367 18.23574829101562 6.694669723510742 22.930419921875 12.46520900726318 22.930419921875 C 18.23574829101562 22.930419921875 22.930419921875 18.23574829101562 22.930419921875 12.46520900726318 C 22.930419921875 6.694669723510742 18.23574829101562 1.999998092651367 12.46520900726318 1.999998092651367 M 12.46520900726318 -1.9073486328125e-06 C 19.34954833984375 -1.9073486328125e-06 24.930419921875 5.58085823059082 24.930419921875 12.46520900726318 C 24.930419921875 19.34954833984375 19.34954833984375 24.930419921875 12.46520900726318 24.930419921875 C 5.58085823059082 24.930419921875 -1.9073486328125e-06 19.34954833984375 -1.9073486328125e-06 12.46520900726318 C -1.9073486328125e-06 5.58085823059082 5.58085823059082 -1.9073486328125e-06 12.46520900726318 -1.9073486328125e-06 Z" stroke="none" fill="#f82324"/>
        </g>
        <line id="直线_227" data-name="直线 227" x2="16.746" y2="15.425" transform="translate(696.256 533.674)" fill="none" stroke="#f82324" stroke-width="2"/>
      </g>
    </g>
  </g>
</svg>
