<svg id="icon_add_avatar" xmlns="http://www.w3.org/2000/svg" xmlns:xlink="http://www.w3.org/1999/xlink" width="64" height="64" viewBox="0 0 64 64">
  <defs>
    <clipPath id="clip-path">
      <rect id="矩形_31958" data-name="矩形 31958" width="25" height="25" transform="translate(0.135)" fill="#281fae" stroke="#707070" stroke-width="1"/>
    </clipPath>
  </defs>
  <g id="add">
    <path id="路径_175626" data-name="路径 175626" d="M32,0A32,32,0,1,1,0,32,32,32,0,0,1,32,0Z" fill="#ebeaf8"/>
    <g id="椭圆_2930" data-name="椭圆 2930" transform="translate(2 2)" fill="none" stroke="#fff" stroke-width="2" stroke-dasharray="4">
      <circle cx="30" cy="30" r="30" stroke="none"/>
      <circle cx="30" cy="30" r="29" fill="none"/>
    </g>
  </g>
  <g id="蒙版组_8057" data-name="蒙版组 8057" transform="translate(19.865 20)" clip-path="url(#clip-path)">
    <path id="add_5_" data-name="add (5)" d="M13.974,10.328h8.506a1.823,1.823,0,0,1,0,3.645H13.974v8.506a1.823,1.823,0,1,1-3.645,0V13.974H1.823a1.823,1.823,0,1,1,0-3.645h8.506V1.823a1.823,1.823,0,1,1,3.645,0v8.506Z" transform="translate(0.349 0.349)" fill="#281fae"/>
  </g>
</svg>
