<svg xmlns="http://www.w3.org/2000/svg" xmlns:xlink="http://www.w3.org/1999/xlink" width="31" height="31" viewBox="0 0 31 31">
  <defs>
    <clipPath id="clip-path">
      <rect id="Rectangle_31804" data-name="Rectangle 31804" width="31" height="31" transform="translate(10.273 -0.585)" fill="#fff" stroke="#707070" stroke-width="1"/>
    </clipPath>
  </defs>
  <g id="icon_credits" transform="translate(-10.273 0.585)" clip-path="url(#clip-path)">
    <path id="Path_175248" data-name="Path 175248" d="M37.253,44.034a14.275,14.275,0,1,0-23.96,0Z" transform="translate(0.5 -20.714)" fill="#32258a"/>
    <path id="Path_175249" data-name="Path 175249" d="M386.065,352.72h-4.14a.588.588,0,0,1,.588.588v1.309a.588.588,0,0,1-.588.588h4.14a.588.588,0,0,0,.587-.588v-1.309A.588.588,0,0,0,386.065,352.72Z" transform="translate(-348.815 -332.169)" fill="#ffdd40"/>
    <path id="Path_175250" data-name="Path 175250" d="M381.925,397.832h2.886a14.345,14.345,0,0,0,1.757-2.2.587.587,0,0,0-.5-.286h-4.14a.588.588,0,0,1,.588.587v1.309A.587.587,0,0,1,381.925,397.832Z" transform="translate(-348.815 -372.314)" fill="#ffc839"/>
    <path id="Path_175251" data-name="Path 175251" d="M381.926,437.975a.588.588,0,0,1,.587.588v1.309c0,.006,0,.011,0,.017a14.344,14.344,0,0,0,2.3-1.913Z" transform="translate(-348.816 -412.457)" fill="#ffdd40"/>
    <path id="Path_175252" data-name="Path 175252" d="M417.667,353.419V354.5a.7.7,0,0,0,.7.7h1.358a.588.588,0,0,0,.588-.588v-1.309a.588.588,0,0,0-.588-.588h-1.358A.7.7,0,0,0,417.667,353.419Z" transform="translate(-382.474 -332.169)" fill="#fee884"/>
    <path id="Path_175253" data-name="Path 175253" d="M419.724,395.348h-1.358a.7.7,0,0,0-.7.7v1.085a.7.7,0,0,0,.7.7h.1a14.344,14.344,0,0,0,1.757-2.2A.587.587,0,0,0,419.724,395.348Z" transform="translate(-382.474 -372.314)" fill="#ffdd40"/>
    <path id="Path_175254" data-name="Path 175254" d="M417.667,438.674v.064q.416-.366.8-.763h-.1A.7.7,0,0,0,417.667,438.674Z" transform="translate(-382.474 -412.457)" fill="#fee884"/>
    <path id="Path_175255" data-name="Path 175255" d="M240.825,261.069h1.735V275.1h-1.735Z" transform="translate(-215.936 -245.858)" fill="#ff9433"/>
    <path id="Path_175256" data-name="Path 175256" d="M125.416,267.465h-6.868a.588.588,0,0,0-.588.588v1.309a.588.588,0,0,0,.588.588h6.868a.588.588,0,0,0,.588-.588v-1.309A.587.587,0,0,0,125.416,267.465Z" transform="translate(-100.23 -251.882)" fill="#ffdd40"/>
    <path id="Path_175257" data-name="Path 175257" d="M263.455,395.348h-6.868a.588.588,0,0,0-.587.587v1.309a.588.588,0,0,0,.587.588h6.868a.588.588,0,0,0,.588-.588v-1.309A.587.587,0,0,0,263.455,395.348Z" transform="translate(-230.226 -372.314)" fill="#ffb332"/>
    <path id="Path_175258" data-name="Path 175258" d="M263.455,352.72h-6.868a.588.588,0,0,0-.587.588v1.309a.588.588,0,0,0,.587.588h6.868a.588.588,0,0,0,.588-.588v-1.309A.587.587,0,0,0,263.455,352.72Z" transform="translate(-230.226 -332.169)" fill="#ffc839"/>
    <path id="Path_175259" data-name="Path 175259" d="M263.455,310.092h-6.868a.588.588,0,0,0-.587.588v1.309a.588.588,0,0,0,.587.588h6.868a.588.588,0,0,0,.588-.588V310.68A.587.587,0,0,0,263.455,310.092Z" transform="translate(-230.226 -292.025)" fill="#ffb332"/>
    <path id="Path_175260" data-name="Path 175260" d="M158.31,227.321h-6.868a.588.588,0,0,0-.588.588v1.309a.588.588,0,0,0,.588.588h6.868a.588.588,0,0,0,.588-.588v-1.309A.587.587,0,0,0,158.31,227.321Zm-6.505-2.484h-6.868a.588.588,0,0,0-.588.588v1.309a.588.588,0,0,0,.588.588h6.868a.588.588,0,0,0,.588-.588v-1.309A.588.588,0,0,0,151.805,224.837Z" transform="translate(-125.082 -211.737)" fill="#ffc839"/>
    <path id="Path_175261" data-name="Path 175261" d="M151.805,182.209h-6.868a.588.588,0,0,0-.588.588v1.309a.588.588,0,0,0,.588.588h6.868a.588.588,0,0,0,.588-.588V182.8A.588.588,0,0,0,151.805,182.209Z" transform="translate(-125.082 -171.593)" fill="#ffdd40"/>
    <path id="Path_175262" data-name="Path 175262" d="M125.416,139.581h-6.868a.588.588,0,0,0-.588.588v1.309a.588.588,0,0,0,.588.588h6.868a.588.588,0,0,0,.588-.588v-1.309A.588.588,0,0,0,125.416,139.581Z" transform="translate(-100.23 -131.448)" fill="#ffc839"/>
    <path id="Path_175263" data-name="Path 175263" d="M151.009,56.461l-6.417,2.447a.587.587,0,0,0-.34.758l.466,1.223a.588.588,0,0,0,.758.34l6.417-2.447a.588.588,0,0,0,.34-.758l-.466-1.223A.588.588,0,0,0,151.009,56.461Z" transform="translate(-124.954 -53.135)" fill="#ffdd40"/>
    <path id="Path_175264" data-name="Path 175264" d="M250.264,58.024,249.8,56.8a.587.587,0,0,0-.758-.34l-.565.215a.61.61,0,0,0-.126.634l.484,1.27a.61.61,0,0,0,.59.392l.5-.191A.588.588,0,0,0,250.264,58.024Z" transform="translate(-222.984 -53.135)" fill="#fee884"/>
    <path id="Path_175265" data-name="Path 175265" d="M148.04,80.406l-.483-1.266a.609.609,0,0,1,.19-.693l-3.153,1.2a.587.587,0,0,0-.34.758l.466,1.223a.587.587,0,0,0,.758.34l3.08-1.175A.608.608,0,0,1,148.04,80.406Z" transform="translate(-124.955 -73.876)" fill="#ffc839"/>
    <path id="Path_175266" data-name="Path 175266" d="M53.081,311.988V310.68a.588.588,0,0,1,.588-.588h-4.14a.588.588,0,0,0-.588.588v1.309a.588.588,0,0,0,.588.587h4.14A.587.587,0,0,1,53.081,311.988Z" transform="translate(-35.232 -292.025)" fill="#ffb332"/>
    <path id="Path_175267" data-name="Path 175267" d="M53.081,354.616v-1.309a.588.588,0,0,1,.588-.588h-4.14a.588.588,0,0,0-.588.588v1.309a.588.588,0,0,0,.588.588h4.14A.587.587,0,0,1,53.081,354.616Z" transform="translate(-35.232 -332.169)" fill="#ffc839"/>
    <path id="Path_175268" data-name="Path 175268" d="M79.873,311.988V310.68a.588.588,0,0,1,.588-.588h-3.07a.588.588,0,0,1,.588.588v1.309a.588.588,0,0,1-.588.587h3.07A.587.587,0,0,1,79.873,311.988Z" transform="translate(-62.024 -292.025)" fill="#ff9433"/>
    <path id="Path_175269" data-name="Path 175269" d="M54.44,354.616v-1.309a.588.588,0,0,1,.588-.588h-3.07a.588.588,0,0,1,.588.588v1.309a.588.588,0,0,1-.588.588h3.07A.587.587,0,0,1,54.44,354.616Zm.588.588h-4.14a.587.587,0,0,0-.5.286,14.338,14.338,0,0,0,1.757,2.2h2.886a.588.588,0,0,1-.588-.587v-1.309A.588.588,0,0,1,55.028,355.2Z" transform="translate(-36.591 -332.169)" fill="#ffb332"/>
    <path id="Path_175270" data-name="Path 175270" d="M79.979,397.572c-.168-.249-.071-.35-.1-1.637a.588.588,0,0,1,.587-.588H77.4a.587.587,0,0,1,.587.588v1.309a.587.587,0,0,1-.426.564l.022.023h2.886A.587.587,0,0,1,79.979,397.572Z" transform="translate(-62.03 -372.313)" fill="#ff9433"/>
    <path id="Path_175271" data-name="Path 175271" d="M256,482.432a14.209,14.209,0,0,0,6.995-1.829h-6.407a.588.588,0,0,0-.587.587Z" transform="translate(-230.226 -452.601)" fill="#ffb332"/>
    <path id="Path_175272" data-name="Path 175272" d="M263.455,437.975h-6.868a.588.588,0,0,0-.587.588v1.309a.588.588,0,0,0,.587.588h6.407q.538-.3,1.048-.651v-1.245A.587.587,0,0,0,263.455,437.975Z" transform="translate(-230.226 -412.457)" fill="#ffc839"/>
    <path id="Path_175273" data-name="Path 175273" d="M258.973,397.243v-1.309a.588.588,0,0,1,.587-.588h-2.973a.588.588,0,0,0-.587.588v1.309a.588.588,0,0,0,.587.588h2.973A.588.588,0,0,1,258.973,397.243Z" transform="translate(-230.226 -372.313)" fill="#ff9433"/>
    <path id="Path_175274" data-name="Path 175274" d="M258.973,354.616v-1.309a.588.588,0,0,1,.587-.588h-2.973a.588.588,0,0,0-.587.588v1.309a.588.588,0,0,0,.587.588h2.973A.588.588,0,0,1,258.973,354.616Z" transform="translate(-230.226 -332.169)" fill="#ffb332"/>
    <path id="Path_175275" data-name="Path 175275" d="M258.973,311.988V310.68a.588.588,0,0,1,.587-.588h-2.973a.588.588,0,0,0-.587.588v1.309a.588.588,0,0,0,.587.587h2.973A.588.588,0,0,1,258.973,311.988Z" transform="translate(-230.226 -292.025)" fill="#ff9433"/>
    <path id="Path_175276" data-name="Path 175276" d="M258.973,269.36v-1.309a.588.588,0,0,1,.587-.588h-2.973a.588.588,0,0,0-.587.588v1.309a.588.588,0,0,0,.587.587h2.973A.587.587,0,0,1,258.973,269.36Z" transform="translate(-230.226 -251.881)" fill="#ffb332"/>
    <path id="Path_175277" data-name="Path 175277" d="M258.973,481.19a.588.588,0,0,1,.587-.587h-2.973a.588.588,0,0,0-.587.587v1.242a14.316,14.316,0,0,0,2.973-.311Z" transform="translate(-230.226 -452.601)" fill="#ff9433"/>
    <path id="Path_175278" data-name="Path 175278" d="M93.742,439.871v-1.309a.588.588,0,0,1,.588-.588H91.356a.588.588,0,0,0-.588.588v1.309a.588.588,0,0,0,.588.588h2.973a.588.588,0,0,1-.588-.588Zm-10.9.017c0-.006,0-.011,0-.017v-1.309a.588.588,0,0,1,.588-.588H80.546A14.344,14.344,0,0,0,82.845,439.888Z" transform="translate(-64.996 -412.457)" fill="#ffb332"/>
    <path id="Path_175279" data-name="Path 175279" d="M308.177,2.389h-2.521L306.916.205,307,.156A.486.486,0,0,0,306.644,0h-2.306a.486.486,0,0,0-.356.157l.084.049,1.261,2.184h-2.521l-.084-.049a.486.486,0,0,0,.043.387l1.153,2a.486.486,0,0,0,.314.23v-.1l1.261-2.184,1.261,2.184v.1a.486.486,0,0,0,.314-.23l1.153-2a.486.486,0,0,0,.043-.387Z" transform="translate(-274.205 0)" fill="#52ceaa"/>
    <path id="Path_175280" data-name="Path 175280" d="M302.689,3.538h2.793l-1.4-2.418a.486.486,0,0,0-.178.178l-1.153,2A.486.486,0,0,0,302.689,3.538Z" transform="translate(-274.195 -1.054)" fill="#42ba9b"/>
    <path id="Path_175281" data-name="Path 175281" d="M326.655,5.955a.486.486,0,0,0,.243.065H329.2a.486.486,0,0,0,.243-.065l-1.4-2.418Zm1.4-2.419h2.793a.486.486,0,0,0-.065-.243l-1.153-2a.486.486,0,0,0-.178-.178Z" transform="translate(-296.765 -1.053)" fill="#68eac2"/>
    <path id="Path_175282" data-name="Path 175282" d="M372.384,112.479l-.8-.091a.721.721,0,0,0-.424.082l-1.233.665,1.508.594,1.337-1.029A.576.576,0,0,0,372.384,112.479Z" transform="translate(-337.519 -105.836)" fill="#9bd8f9"/>
    <path id="Path_175283" data-name="Path 175283" d="M125.416,395.348h-6.868a.588.588,0,0,0-.588.587v1.309a.588.588,0,0,0,.588.588h6.868a.588.588,0,0,0,.588-.588v-1.309A.587.587,0,0,0,125.416,395.348Z" transform="translate(-100.23 -372.314)" fill="#ffc839"/>
    <path id="Path_175284" data-name="Path 175284" d="M125.416,352.72h-6.868a.588.588,0,0,0-.588.588v1.309a.588.588,0,0,0,.588.588h6.868a.588.588,0,0,0,.588-.588v-1.309A.588.588,0,0,0,125.416,352.72Z" transform="translate(-100.23 -332.169)" fill="#ffdd40"/>
    <path id="Path_175285" data-name="Path 175285" d="M121.662,314.472v-1.309a.588.588,0,0,1,.588-.588h-3.7a.588.588,0,0,0-.588.588v1.309a.588.588,0,0,0,.588.588h3.7A.588.588,0,0,1,121.662,314.472Zm3.754-4.38h-6.868a.588.588,0,0,0-.588.588v1.309a.588.588,0,0,0,.588.588h6.868a.588.588,0,0,0,.588-.588V310.68A.588.588,0,0,0,125.416,310.092Z" transform="translate(-100.23 -292.025)" fill="#ffc839"/>
    <g id="Group_13818" data-name="Group 13818" transform="translate(23.938 8.133)">
      <path id="Path_175286" data-name="Path 175286" d="M227.864,146.444v-1.309a.588.588,0,0,0-.588-.588h-.661a.588.588,0,0,0-.588.588v1.309a.588.588,0,0,0,.588.588h.661A.588.588,0,0,0,227.864,146.444Zm-1.538-4.967v-1.309a.588.588,0,0,0-.588-.588h-.661a.588.588,0,0,0-.588.588v1.309a.588.588,0,0,0,.588.588h.661A.588.588,0,0,0,226.327,141.477Zm0,14.9V155.07a.588.588,0,0,0-.588-.588h-.661a.588.588,0,0,0-.588.588v1.309a.588.588,0,0,0,.588.588h.661A.588.588,0,0,0,226.327,156.379Zm0-4.967V150.1a.588.588,0,0,0-.588-.588h-.661a.588.588,0,0,0-.588.588v1.309a.588.588,0,0,0,.588.588h.661A.588.588,0,0,0,226.327,151.412Z" transform="translate(-224.491 -139.581)" fill="#ffdd40"/>
    </g>
    <path id="Path_175287" data-name="Path 175287" d="M121.662,269.36v-1.309a.588.588,0,0,1,.588-.588h-3.7a.588.588,0,0,0-.588.588v1.309a.588.588,0,0,0,.588.587h3.7A.588.588,0,0,1,121.662,269.36Z" transform="translate(-100.23 -251.881)" fill="#ffc839"/>
    <path id="Path_175288" data-name="Path 175288" d="M148.052,226.732v-1.309a.588.588,0,0,1,.588-.588h-3.7a.588.588,0,0,0-.588.588v1.309a.588.588,0,0,0,.588.588h3.7A.588.588,0,0,1,148.052,226.732Z" transform="translate(-125.083 -211.736)" fill="#ffb332"/>
    <path id="Path_175289" data-name="Path 175289" d="M148.052,184.106V182.8a.588.588,0,0,1,.588-.587h-3.7a.588.588,0,0,0-.588.587v1.309a.588.588,0,0,0,.588.588h3.7A.588.588,0,0,1,148.052,184.106Z" transform="translate(-125.083 -171.594)" fill="#ffc839"/>
    <path id="Path_175290" data-name="Path 175290" d="M121.662,141.477v-1.309a.588.588,0,0,1,.588-.588h-3.7a.588.588,0,0,0-.588.588v1.309a.588.588,0,0,0,.588.588h3.7A.588.588,0,0,1,121.662,141.477Zm0,14.9V155.07a.588.588,0,0,1,.588-.588h-3.7a.588.588,0,0,0-.588.588v1.309a.588.588,0,0,0,.588.588h3.7A.588.588,0,0,1,121.662,156.379Zm0-4.967V150.1a.588.588,0,0,1,.588-.588h-3.7a.588.588,0,0,0-.588.588v1.309a.588.588,0,0,0,.588.588h3.7A.588.588,0,0,1,121.662,151.412Z" transform="translate(-100.23 -131.448)" fill="#ffb332"/>
    <path id="Path_175291" data-name="Path 175291" d="M142.357,480.6H135.95a14.209,14.209,0,0,0,6.995,1.829V481.19A.588.588,0,0,0,142.357,480.6Z" transform="translate(-117.171 -452.601)" fill="#ffc839"/>
    <path id="Path_175292" data-name="Path 175292" d="M224.491,481.19v1.125a14.4,14.4,0,0,0,1.836.117V481.19a.588.588,0,0,0-.588-.587h-.661A.588.588,0,0,0,224.491,481.19Z" transform="translate(-200.553 -452.601)" fill="#ffdd40"/>
    <path id="Path_175293" data-name="Path 175293" d="M138.563,481.19a.588.588,0,0,1,.588-.587h-3.2a14.2,14.2,0,0,0,2.613,1.143Z" transform="translate(-117.171 -452.601)" fill="#ffb332"/>
    <path id="Path_175294" data-name="Path 175294" d="M125.416,437.975h-6.868a.588.588,0,0,0-.588.588v1.245q.51.348,1.048.651h6.407a.588.588,0,0,0,.588-.588v-1.309A.588.588,0,0,0,125.416,437.975Z" transform="translate(-100.23 -412.457)" fill="#ffdd40"/>
    <path id="Path_175295" data-name="Path 175295" d="M226.327,189.073v-1.309a.588.588,0,0,0-.588-.588h-.661a.588.588,0,0,0-.588.588v1.309a.588.588,0,0,0,.588.588h.661A.588.588,0,0,0,226.327,189.073Zm1.538-4.967V182.8a.588.588,0,0,0-.588-.587h-.661a.588.588,0,0,0-.588.587v1.309a.588.588,0,0,0,.588.588h.661A.588.588,0,0,0,227.864,184.106Zm-1.538,9.935v-1.309a.588.588,0,0,0-.588-.588h-.661a.588.588,0,0,0-.588.588v1.309a.588.588,0,0,0,.588.588h.661a.588.588,0,0,0,.588-.587Zm0,4.967V197.7a.588.588,0,0,0-.588-.588h-.661a.588.588,0,0,0-.588.588v1.309a.588.588,0,0,0,.588.588h.661A.588.588,0,0,0,226.327,199.008Z" transform="translate(-200.553 -171.594)" fill="#fee884"/>
    <path id="Path_175296" data-name="Path 175296" d="M121.667,439.871v-1.309a.588.588,0,0,1,.588-.588h-3.706a.588.588,0,0,0-.588.588v1.245q.51.348,1.048.651h3.246a.588.588,0,0,1-.588-.588Z" transform="translate(-100.23 -412.457)" fill="#ffc839"/>
    <path id="Path_175297" data-name="Path 175297" d="M330.131,140.69l-.116.793a.576.576,0,0,0,.114.435l1.337-1.03-.189-1.609-.958,1.022A.721.721,0,0,0,330.131,140.69Z" transform="translate(-299.924 -131.164)" fill="#49b1f7"/>
    <path id="Path_175298" data-name="Path 175298" d="M352.816,125.279h0a3.87,3.87,0,0,0-1.058.815l.119,1.663,2.517-1.938Z" transform="translate(-320.405 -117.98)" fill="#73c3f9"/>
    <path id="Path_175299" data-name="Path 175299" d="M333.318,167.813l-1.267.976h0a.972.972,0,0,0,.518.346l4.042,1.082a.557.557,0,0,0,.514-.12Z" transform="translate(-301.846 -158.036)" fill="#1e9ef4"/>
    <path id="Path_175300" data-name="Path 175300" d="M397,118.788l1.311,4.2a.556.556,0,0,0,.17-.4l-.013-4.184a.971.971,0,0,0-.2-.59Z" transform="translate(-363.012 -110.948)" fill="#73c3f9"/>
    <path id="Path_175301" data-name="Path 175301" d="M353.8,136.495l3.305,2.317a.4.4,0,0,0,.606-.467l-1.395-3.788Z" transform="translate(-322.333 -126.717)" fill="#49b1f7"/>
    <path id="Path_175302" data-name="Path 175302" d="M85.6,205.911H83.08l1.261-2.184.084-.049a.485.485,0,0,0-.356-.156H81.762a.486.486,0,0,0-.356.156l.084.049,1.261,2.184H80.229l-.084-.049a.486.486,0,0,0,.043.387l1.153,2a.486.486,0,0,0,.314.23v-.1l1.261-2.184,1.261,2.184v.1a.485.485,0,0,0,.314-.23l1.153-2a.486.486,0,0,0,.043-.387Z" transform="translate(-64.597 -191.664)" fill="#ff4155"/>
    <path id="Path_175303" data-name="Path 175303" d="M80.114,207.06h2.793l-1.4-2.418a.485.485,0,0,0-.178.178l-1.153,2A.486.486,0,0,0,80.114,207.06Z" transform="translate(-64.588 -192.718)" fill="#e80054"/>
    <path id="Path_175304" data-name="Path 175304" d="M104.08,248.57a.486.486,0,0,0,.243.065h2.306a.486.486,0,0,0,.243-.065l-1.4-2.418Z" transform="translate(-87.158 -231.809)" fill="#ff7186"/>
    <path id="Path_175305" data-name="Path 175305" d="M128.045,207.06h2.793a.486.486,0,0,0-.065-.243l-1.153-2a.486.486,0,0,0-.178-.178Z" transform="translate(-109.727 -192.719)" fill="#ff7186"/>
  </g>
</svg>
