<svg xmlns="http://www.w3.org/2000/svg" xmlns:xlink="http://www.w3.org/1999/xlink" width="64" height="64" viewBox="0 0 64 64">
  <defs>
    <clipPath id="clip-path">
      <rect id="Rectangle_31686" data-name="Rectangle 31686" width="64" height="64" transform="translate(14 10)" fill="#fff" stroke="#707070" stroke-width="1"/>
    </clipPath>
  </defs>
  <g id="icon_discord" transform="translate(-14 -10)" clip-path="url(#clip-path)">
    <g id="Group_13810" data-name="Group 13810" transform="translate(7.598 7.598)">
      <circle id="Ellipse_3069" data-name="Ellipse 3069" cx="32" cy="32" r="32" transform="translate(6.402 2.402)" fill="#5865f2"/>
      <circle id="Ellipse_3070" data-name="Ellipse 3070" cx="27" cy="27" r="27" transform="translate(11.402 7.402)" fill="#fff"/>
      <path id="Path_175249" data-name="Path 175249" d="M164.967,239.956v-.021a4.582,4.582,0,1,1,0,.021Z" transform="translate(-133.444 -207.936)" fill="#5865f2"/>
      <path id="Path_175250" data-name="Path 175250" d="M34.8,6A28.8,28.8,0,1,0,63.6,34.8,28.8,28.8,0,0,0,34.8,6ZM45.458,50s-1.451-1.614-2.495-3.038c5.028-1.424,6.924-4.271,6.924-4.271A26.217,26.217,0,0,1,34.8,47,26.217,26.217,0,0,1,19.717,42.69s1.9,2.848,6.924,4.271C25.6,48.386,24.147,50,24.147,50c-8.626-.19-11.972-5.468-12.165-5.24a46.26,46.26,0,0,1,5.705-21.32A19.508,19.508,0,0,1,28.459,19.6l.58.551c-6.517,1.822-9.67,4.67-9.67,4.67A36.248,36.248,0,0,1,34.8,21.117a36.258,36.258,0,0,1,15.433,3.709s-3.152-2.848-9.67-4.67l.58-.551A19.5,19.5,0,0,1,51.917,23.44a46.259,46.259,0,0,1,5.705,21.32c-.193-.228-3.539,5.05-12.164,5.24Z" transform="translate(3.6 -0.4)" fill="#5865f2"/>
      <path id="Path_175251" data-name="Path 175251" d="M286.836,239.933v.021a4.561,4.561,0,1,0,0-.021Z" transform="translate(-241.554 -207.935)" fill="#5865f2"/>
    </g>
  </g>
</svg>
