<svg xmlns="http://www.w3.org/2000/svg" xmlns:xlink="http://www.w3.org/1999/xlink" width="12" height="12" viewBox="0 0 12 12">
  <defs>
    <clipPath id="clip-path">
      <rect id="Rectangle_30345" data-name="Rectangle 30345" width="12" height="12" transform="translate(168.832 51.832)" fill="#fff" stroke="#707070" stroke-width="1"/>
    </clipPath>
    <linearGradient id="linear-gradient" x1="0.5" x2="0.5" y2="1" gradientUnits="objectBoundingBox">
      <stop offset="0" stop-color="#fcd12e"/>
      <stop offset="1" stop-color="#ffa229"/>
    </linearGradient>
  </defs>
  <g id="Mask_Group_819" data-name="Mask Group 819" transform="translate(-168.832 -51.832)" clip-path="url(#clip-path)">
    <path id="Path_24407" data-name="Path 24407" d="M218.754,315.126l-2.384-3.654a.58.58,0,0,0-.964-.012l-2.407,3.5-2.252-1.332a.387.387,0,0,0-.58.384l.675,5.1a.387.387,0,0,0,.384.336H220.3a.387.387,0,0,0,.382-.323l.841-5.03a.387.387,0,0,0-.593-.388l-2.175,1.418Z" transform="translate(-41.013 -257.497)" fill="url(#linear-gradient)"/>
  </g>
</svg>
