<svg xmlns="http://www.w3.org/2000/svg" width="56" height="55.998" viewBox="0 0 56 55.998">
  <g id="Facebook" transform="translate(-15.792 -609.792)">
    <path id="Subtraction_15" data-name="Subtraction 15" d="M28,56h0A28.007,28.007,0,0,1,17.1,2.2,28.007,28.007,0,0,1,38.9,53.8,27.823,27.823,0,0,1,28,56ZM20.107,22.856v5.893h4.286V44.069h6.751V28.856h5.035V22.963H31.251V19.427a1.659,1.659,0,0,1,1.822-1.607h4.821V11.927H30.179a5.248,5.248,0,0,0-4.9,3.161,9.573,9.573,0,0,0-.884,3.161v4.607Z" transform="translate(15.791 609.792)" fill="#3c5a99"/>
  </g>
</svg>
