<svg xmlns="http://www.w3.org/2000/svg" xmlns:xlink="http://www.w3.org/1999/xlink" width="28" height="28" viewBox="0 0 28 28">
  <defs>
    <clipPath id="clip-path">
      <rect id="矩形_3318" data-name="矩形 3318" width="17.317" height="18.647" fill="#a556c8"/>
    </clipPath>
  </defs>
  <g id="组_12906" data-name="组 12906" transform="translate(-575 -83)">
    <g id="矩形_3316" data-name="矩形 3316" transform="translate(575 83)" fill="none" stroke="#a556c8" stroke-width="1">
      <rect width="28" height="28" rx="2" stroke="none"/>
      <rect x="0.5" y="0.5" width="27" height="27" rx="1.5" fill="none"/>
    </g>
    <g id="组_12903" data-name="组 12903" transform="translate(580 88)">
      <g id="组_12902" data-name="组 12902" clip-path="url(#clip-path)">
        <path id="路径_16196" data-name="路径 16196" d="M10.906,12.964q-.02-.279-.027-.559c1.98-.2,3.37-.677,3.37-1.231-.005,0,0-.023,0-.032C12.763,9.807,15.527.329,10.382.52A2.594,2.594,0,0,0,8.676,0h.006C1.714.531,4.8,9.483,3.207,11.172h0c.006.542,1.348,1.008,3.271,1.216-.006.132-.017.3-.042.57C5.635,15.11.249,14.508,0,18.647H17.317c-.248-4.14-5.612-3.537-6.411-5.684Z" transform="translate(0 0)" fill="#a556c8"/>
      </g>
    </g>
  </g>
</svg>
