<svg xmlns="http://www.w3.org/2000/svg" xmlns:xlink="http://www.w3.org/1999/xlink" width="28" height="28" viewBox="0 0 28 28">
  <defs>
    <clipPath id="clip-path">
      <rect id="矩形_3351" data-name="矩形 3351" width="18.204" height="17.002" fill="#ff8da0"/>
    </clipPath>
  </defs>
  <g id="组_14071" data-name="组 14071" transform="translate(-896 -635)">
    <g id="矩形_3350" data-name="矩形 3350" transform="translate(896 635)" fill="none" stroke="#ff8da0" stroke-width="1">
      <rect width="28" height="28" rx="2" stroke="none"/>
      <rect x="0.5" y="0.5" width="27" height="27" rx="1.5" fill="none"/>
    </g>
    <g id="组_12927" data-name="组 12927" transform="translate(902 641)">
      <g id="组_12926" data-name="组 12926" transform="translate(0 0)" clip-path="url(#clip-path)">
        <path id="路径_16208" data-name="路径 16208" d="M0,3.034A3.034,3.034,0,0,1,3.034,0h8.494a3.034,3.034,0,0,1,3.034,3.034V4.958a1.82,1.82,0,0,0-2.414,1.494l-.109.891A1.213,1.213,0,0,1,10.983,8.4l-.891.109a1.82,1.82,0,0,0-.417,3.512l-.115.115H3.034A3.034,3.034,0,0,1,0,9.1Zm5.461.388V8.713a.388.388,0,0,0,.591.33l3.955-2.416a.655.655,0,0,0,0-1.119L6.05,3.092a.388.388,0,0,0-.59.331m9.1,3.178a.607.607,0,0,0-1.2,0l-.109.891A2.427,2.427,0,0,1,11.131,9.6l-.891.109a.607.607,0,0,0,0,1.2l.891.109a2.427,2.427,0,0,1,2.111,2.113l.109.891a.607.607,0,0,0,1.2,0l.109-.891a2.427,2.427,0,0,1,2.113-2.111l.891-.109a.607.607,0,0,0,0-1.2L16.778,9.6a2.427,2.427,0,0,1-2.111-2.113ZM12.71,10.314a3.659,3.659,0,0,0,1.245-1.245A3.659,3.659,0,0,0,15.2,10.314a3.659,3.659,0,0,0-1.245,1.245,3.641,3.641,0,0,0-1.245-1.245m-.752,2.856a.607.607,0,0,0-.858-.859l-3.64,3.637a.607.607,0,1,0,.821.893l.035-.035Z" transform="translate(0 0)" fill="#ff8da0"/>
      </g>
    </g>
  </g>
</svg>
