<svg xmlns="http://www.w3.org/2000/svg" xmlns:xlink="http://www.w3.org/1999/xlink" width="18" height="18" viewBox="0 0 18 18">
  <defs>
    <clipPath id="clip-path">
      <rect id="矩形_2701" data-name="矩形 2701" width="18" height="18" transform="translate(731 343)" fill="#597ee3" stroke="#707070" stroke-width="1"/>
    </clipPath>
  </defs>
  <g id="蒙版组_809" data-name="蒙版组 809" transform="translate(-731 -343)" clip-path="url(#clip-path)">
    <path id="路径_15254" data-name="路径 15254" d="M79.064,64H65.155A1.164,1.164,0,0,0,64,65.17V79.053a1.164,1.164,0,0,0,1.155,1.17H79.064a1.167,1.167,0,0,0,1.159-1.17V65.17A1.167,1.167,0,0,0,79.064,64ZM68.9,77.905H66.5V70.163h2.408v7.742Zm-1.2-8.8A1.394,1.394,0,1,1,69.1,67.712,1.395,1.395,0,0,1,67.7,69.106Zm10.215,8.8h-2.4V74.139c0-.9-.018-2.053-1.249-2.053-1.253,0-1.445.978-1.445,1.988v3.831h-2.4V70.163H72.72v1.057h.033a2.533,2.533,0,0,1,2.278-1.249c2.433,0,2.886,1.6,2.886,3.69Z" transform="translate(667.888 279.889)" fill="#3e799b"/>
  </g>
</svg>
