<svg xmlns="http://www.w3.org/2000/svg" width="20" height="20" viewBox="0 0 20 20">
  <g id="password_hidden" transform="translate(2.301 2.301)">
    <path id="Vector" d="M4.7.808.808,4.7A2.755,2.755,0,1,1,4.7.808Z" transform="translate(4.943 4.943)" fill="none" stroke="#8c8c97" stroke-linecap="round" stroke-linejoin="round" stroke-width="1.5"/>
    <path id="Vector-2" data-name="Vector" d="M12.015,1.571A7.415,7.415,0,0,0,7.534,0C4.816,0,2.283,1.6.52,4.373a4.1,4.1,0,0,0,0,4A11.03,11.03,0,0,0,2.606,10.81" transform="translate(0.166 1.332)" fill="none" stroke="#8c8c97" stroke-linecap="round" stroke-linejoin="round" stroke-width="1.5"/>
    <path id="Vector-3" data-name="Vector" d="M0,8.931a7.1,7.1,0,0,0,2.756.57c2.718,0,5.251-1.6,7.014-4.373a4.1,4.1,0,0,0,0-4A12.489,12.489,0,0,0,8.954,0" transform="translate(4.943 4.566)" fill="none" stroke="#8c8c97" stroke-linecap="round" stroke-linejoin="round" stroke-width="1.5"/>
    <path id="Vector-4" data-name="Vector" d="M2.171,0A2.745,2.745,0,0,1,0,2.171" transform="translate(8.23 8.238)" fill="none" stroke="#8c8c97" stroke-linecap="round" stroke-linejoin="round" stroke-width="1.5"/>
    <path id="Vector-5" data-name="Vector" d="M5.751,0,0,5.751" transform="translate(0 9.647)" fill="none" stroke="#8c8c97" stroke-linecap="round" stroke-linejoin="round" stroke-width="1.5"/>
    <path id="Vector-6" data-name="Vector" d="M5.751,0,0,5.751" transform="translate(9.647)" fill="none" stroke="#8c8c97" stroke-linecap="round" stroke-linejoin="round" stroke-width="1.5"/>
    <rect id="Rectangle_2318" data-name="Rectangle 2318" width="20" height="20" transform="translate(-2.301 -2.301)" fill="#fff" opacity="0"/>
  </g>
</svg>
