<svg xmlns="http://www.w3.org/2000/svg" xmlns:xlink="http://www.w3.org/1999/xlink" width="76" height="70" viewBox="0 0 76 70">
  <defs>
    <radialGradient id="radial-gradient" cx="0.699" cy="0.506" fx="1.3136590719223022" fy="0.7488333582878113" r="0.857" gradientUnits="objectBoundingBox">
      <stop offset="0" stop-color="#1d2943"/>
      <stop offset="1" stop-color="#4c5c75"/>
    </radialGradient>
    <filter id="路径_160860" x="0" y="0" width="76" height="70" filterUnits="userSpaceOnUse">
      <feOffset dy="3" input="SourceAlpha"/>
      <feGaussianBlur stdDeviation="3" result="blur"/>
      <feFlood flood-color="#bed5ff" flood-opacity="0.533"/>
      <feComposite operator="in" in2="blur"/>
      <feComposite in="SourceGraphic"/>
    </filter>
    <linearGradient id="linear-gradient" x1="0.979" y1="0.812" x2="-0.123" y2="1.11" gradientUnits="objectBoundingBox">
      <stop offset="0" stop-color="#588bff"/>
      <stop offset="0.368" stop-color="#58acff"/>
      <stop offset="0.619" stop-color="#6a65ff"/>
      <stop offset="1" stop-color="#9f65b9"/>
    </linearGradient>
    <linearGradient id="linear-gradient-2" x1="0.5" y1="0.672" x2="0.569" y2="0.778" gradientUnits="objectBoundingBox">
      <stop offset="0" stop-color="#fff"/>
      <stop offset="1" stop-color="#f2f4fa"/>
    </linearGradient>
  </defs>
  <g id="banner_icon_15s" transform="translate(8 2)">
    <path id="路径_160859" data-name="路径 160859" d="M50.316,5H9.568A7.639,7.639,0,0,0,2,12.738V47.262A7.639,7.639,0,0,0,9.568,55H50.432A7.639,7.639,0,0,0,58,47.262V12.738A7.814,7.814,0,0,0,50.316,5Z" transform="translate(0 0)" fill="url(#radial-gradient)"/>
    <g transform="matrix(1, 0, 0, 1, -8, -2)" filter="url(#路径_160860)">
      <path id="路径_160860-2" data-name="路径 160860" d="M50.316,5H9.568A7.639,7.639,0,0,0,2,12.738V47.262A7.639,7.639,0,0,0,9.568,55H50.432A7.639,7.639,0,0,0,58,47.262V12.738A7.814,7.814,0,0,0,50.316,5Z" transform="translate(8 2)" fill="#fff" stroke="#5999ff" stroke-width="2"/>
    </g>
    <path id="路径_160861" data-name="路径 160861" d="M11.885,41.733a6.266,6.266,0,0,1-6.285-6.3V14.9a6.266,6.266,0,0,1,6.285-6.3h34.8a6.266,6.266,0,0,1,6.285,6.3V35.433a6.266,6.266,0,0,1-6.285,6.3Z" transform="translate(0.6 0.6)" stroke="rgba(0,0,0,0)" stroke-width="1" fill="url(#linear-gradient)"/>
    <path id="路径_160862" data-name="路径 160862" d="M11.885,41.733a6.266,6.266,0,0,1-6.285-6.3V14.9a6.266,6.266,0,0,1,6.285-6.3h34.8a6.266,6.266,0,0,1,6.285,6.3V35.433a6.266,6.266,0,0,1-6.285,6.3Z" transform="translate(0.6 0.6)" fill="none"/>
    <path id="路径_160864" data-name="路径 160864" d="M29.937,19.162,21.2,14.227a2.261,2.261,0,0,0-3.4,1.942V26.04a2.261,2.261,0,0,0,3.4,1.942l8.739-4.936a2.212,2.212,0,0,0,0-3.884Z" transform="translate(5.511 5.031)" fill="url(#linear-gradient-2)"/>
    <path id="路径_160865" data-name="路径 160865" d="M49.971,40.3H8.313a1.517,1.517,0,0,0,0,3.033H49.971a1.542,1.542,0,0,0,1.513-1.517A1.469,1.469,0,0,0,49.971,40.3Z" transform="translate(0.8 6.883)" fill="#454545"/>
    <path id="路径_160866" data-name="路径 160866" d="M-4.117,40.3H22.5a1.517,1.517,0,0,1,0,3.033H-4.117Z" transform="translate(28.268 6.883)" fill="#f7847d"/>
    <path id="路径_160867" data-name="路径 160867" d="M20.567,45.083A1.843,1.843,0,0,1,18.7,43.217v-2.45a1.867,1.867,0,0,1,3.733,0v2.45A1.775,1.775,0,0,1,20.567,45.083Z" transform="translate(2.74 6.65)" fill="#454545"/>
  </g>
</svg>
