<svg xmlns="http://www.w3.org/2000/svg" xmlns:xlink="http://www.w3.org/1999/xlink" width="62.002" height="84" viewBox="0 0 62.002 84">
  <defs>
    <linearGradient id="linear-gradient" x1="0.86" y1="0.105" x2="0.135" y2="1" gradientUnits="objectBoundingBox">
      <stop offset="0" stop-color="#588bff"/>
      <stop offset="0.368" stop-color="#58acff"/>
      <stop offset="0.619" stop-color="#6a65ff"/>
      <stop offset="1" stop-color="#9f65b9"/>
    </linearGradient>
  </defs>
  <g id="icon_logo_footer" transform="translate(-212 -1495)">
    <rect id="Rectangle_31511" data-name="Rectangle 31511" width="54" height="54" rx="27" transform="translate(216 1495)" fill="url(#linear-gradient)"/>
    <path id="logo_vidqu" d="M5.447-5.423.588-20.647H3.654L7.679-7.467,6.8-7.884H9.055l-.9.417,3.712-13.18h2.961l-4.5,15.224Zm11.762,0V-16.747h2.9V-5.423Zm-1.585-9.155v-2.169h4.484v2.169ZM18.252-18.1a1.593,1.593,0,0,1-1.241-.448,1.6,1.6,0,0,1-.407-1.116,1.618,1.618,0,0,1,.407-1.147,1.645,1.645,0,0,1,1.262-.438,1.609,1.609,0,0,1,1.251.438,1.644,1.644,0,0,1,.4,1.147,1.624,1.624,0,0,1-.4,1.116A1.617,1.617,0,0,1,18.252-18.1ZM28.138-5.048a5.4,5.4,0,0,1-2.19-.438,5.111,5.111,0,0,1-1.731-1.23,5.609,5.609,0,0,1-1.126-1.846,6.434,6.434,0,0,1-.4-2.284v-.438a6.615,6.615,0,0,1,.386-2.273,5.728,5.728,0,0,1,1.084-1.856,4.936,4.936,0,0,1,1.689-1.241,5.275,5.275,0,0,1,2.2-.448,4.675,4.675,0,0,1,2.346.574,4.126,4.126,0,0,1,1.616,1.721,6.657,6.657,0,0,1,.667,2.878l-.855-1v-7.716h2.9V-5.423H32.434v-4.818h.5a6.342,6.342,0,0,1-.709,2.888,4.292,4.292,0,0,1-1.7,1.731A4.911,4.911,0,0,1,28.138-5.048Zm.647-2.44a3.219,3.219,0,0,0,1.564-.386A2.9,2.9,0,0,0,31.485-9a3.422,3.422,0,0,0,.428-1.741v-.834a3.032,3.032,0,0,0-.438-1.679A2.955,2.955,0,0,0,30.327-14.3a3.322,3.322,0,0,0-1.543-.365,3.069,3.069,0,0,0-1.658.448A3.06,3.06,0,0,0,26-12.952a4.193,4.193,0,0,0-.407,1.9,4.041,4.041,0,0,0,.417,1.887,3.073,3.073,0,0,0,1.137,1.241A3.085,3.085,0,0,0,28.784-7.488ZM46.407-1.252V-8.781l.855-1.335a6.35,6.35,0,0,1-.667,2.763,4.189,4.189,0,0,1-1.627,1.721,4.666,4.666,0,0,1-2.357.584,5.2,5.2,0,0,1-2.19-.448,4.9,4.9,0,0,1-1.679-1.251A5.878,5.878,0,0,1,37.658-8.6a6.589,6.589,0,0,1-.386-2.284v-.438a6.4,6.4,0,0,1,.4-2.252,5.47,5.47,0,0,1,1.126-1.846,5.341,5.341,0,0,1,1.721-1.23,5.275,5.275,0,0,1,2.2-.448,4.819,4.819,0,0,1,2.461.6,4.192,4.192,0,0,1,1.637,1.762,6.693,6.693,0,0,1,.657,2.826h-.459v-4.838h2.273l.021,15.5ZM43.362-7.529a3.2,3.2,0,0,0,1.575-.386,2.921,2.921,0,0,0,1.126-1.126,3.422,3.422,0,0,0,.428-1.741v-.834a3.032,3.032,0,0,0-.438-1.679A2.955,2.955,0,0,0,44.9-14.339a3.322,3.322,0,0,0-1.543-.365,3.069,3.069,0,0,0-1.658.448,3.06,3.06,0,0,0-1.126,1.262,4.242,4.242,0,0,0-.407,1.919,3.946,3.946,0,0,0,.417,1.846,3.175,3.175,0,0,0,1.126,1.251A3.017,3.017,0,0,0,43.362-7.529Zm13.1,2.461a3.724,3.724,0,0,1-3.034-1.293A5.888,5.888,0,0,1,52.35-10.2v-6.569h2.9v6.82a2.309,2.309,0,0,0,.584,1.658,2.081,2.081,0,0,0,1.585.615,2.2,2.2,0,0,0,1.637-.647,2.389,2.389,0,0,0,.636-1.752v-6.694h2.9V-5.423H60.3v-4.818h.229a8.069,8.069,0,0,1-.438,2.857,3.506,3.506,0,0,1-1.314,1.731,3.864,3.864,0,0,1-2.19.584Z" transform="translate(211.412 1580.252)" fill="#fffdf5"/>
    <path id="logo_vidqu-2" data-name="logo_vidqu" d="M8.775,3.353l-8.187-24H5.753L12.535.131,11.059-.527h3.8L13.343.131,19.6-20.647h4.99L17,3.353Z" transform="translate(230.413 1530.647)" fill="#fffdf5"/>
  </g>
</svg>
