<svg xmlns="http://www.w3.org/2000/svg" xmlns:xlink="http://www.w3.org/1999/xlink" width="28" height="28" viewBox="0 0 28 28">
  <defs>
    <clipPath id="clip-path">
      <rect id="矩形_3334" data-name="矩形 3334" width="17" height="17" transform="translate(0 -0.008)" fill="#ffd13b"/>
    </clipPath>
  </defs>
  <g id="组_14068" data-name="组 14068" transform="translate(-727 -358)">
    <g id="矩形_3317" data-name="矩形 3317" transform="translate(727 358)" fill="none" stroke="#ffd13b" stroke-width="1">
      <rect width="28" height="28" rx="2" stroke="none"/>
      <rect x="0.5" y="0.5" width="27" height="27" rx="1.5" fill="none"/>
    </g>
    <g id="组_12916" data-name="组 12916" transform="translate(732 363.008)">
      <g id="组_12915" data-name="组 12915" clip-path="url(#clip-path)">
        <path id="路径_16202" data-name="路径 16202" d="M5.806.321,5.411,1.535A2.493,2.493,0,0,1,3.827,3.118l-1.215.394-.025.007a.479.479,0,0,0,0,.9L3.8,4.818A2.493,2.493,0,0,1,5.387,6.4l.394,1.213a.479.479,0,0,0,.9,0L7.081,6.4a2.493,2.493,0,0,1,1.586-1.59l1.215-.394a.479.479,0,0,0,0-.9L8.666,3.118A2.494,2.494,0,0,1,7.105,1.535L6.71.322a.479.479,0,0,0-.905,0M.247,9.309l.868-.281A1.791,1.791,0,0,0,2.246,7.9l.283-.866a.342.342,0,0,1,.646,0l.281.866A1.791,1.791,0,0,0,4.571,9.028l.867.281a.342.342,0,0,1,0,.646l-.867.282a1.791,1.791,0,0,0-1.133,1.136l-.281.866a.342.342,0,0,1-.646,0l-.282-.866A1.79,1.79,0,0,0,1.1,10.241L.23,9.96a.342.342,0,0,1,0-.646ZM3.4,13.489a1.476,1.476,0,0,0,.277-.148,1.584,1.584,0,0,0,.544-.7l.295-.909a.587.587,0,0,1,.159-.249.72.72,0,0,1,.249-.159l.864-.283a1.559,1.559,0,0,0,.737-.545A1.437,1.437,0,0,0,6.8,9.639a1.47,1.47,0,0,0-.136-.623,1.5,1.5,0,0,0,.51-.238,1.7,1.7,0,0,0,.59-.784l.408-1.238A1.433,1.433,0,0,1,8.5,6.223a1.485,1.485,0,0,1,.534-.33l1.2-.4a1.623,1.623,0,0,0,1-2.1h2.934A2.833,2.833,0,0,1,17,6.235v7.933a2.82,2.82,0,0,1-.469,1.563l-4.968-4.968a1.927,1.927,0,0,0-2.725,0L3.87,15.731A2.833,2.833,0,0,1,3.4,14.168Zm9.631-4.983A1.136,1.136,0,1,0,11.9,7.371a1.136,1.136,0,0,0,1.135,1.135m-2.27,3.058,4.968,4.968A2.833,2.833,0,0,1,14.167,17H6.234a2.82,2.82,0,0,1-1.563-.469L9.64,11.564a.794.794,0,0,1,1.122,0" transform="translate(0 0)" fill="#ffd13b"/>
      </g>
    </g>
  </g>
</svg>
