<svg xmlns="http://www.w3.org/2000/svg" xmlns:xlink="http://www.w3.org/1999/xlink" width="18" height="18" viewBox="0 0 18 18">
  <defs>
    <clipPath id="clip-path">
      <rect id="Rectangle_31803" data-name="Rectangle 31803" width="18" height="18" transform="translate(397 739)" fill="#fff" stroke="#707070" stroke-width="1"/>
    </clipPath>
  </defs>
  <g id="btn_heart_normal" transform="translate(-397 -739)" clip-path="url(#clip-path)">
    <path id="Path_1910" data-name="Path 1910" d="M9.845,724.677a4.271,4.271,0,0,0-6.153-.648,4.675,4.675,0,0,0-.7,6.476,73.026,73.026,0,0,0,6.443,6.265.908.908,0,0,0,.3.214.4.4,0,0,0,.224,0,.908.908,0,0,0,.3-.214A73.027,73.027,0,0,0,16.7,730.5a4.641,4.641,0,0,0-.7-6.476A4.282,4.282,0,0,0,9.845,724.677Z" transform="translate(396.15 18)" fill="none" stroke="#fff" stroke-linecap="round" stroke-linejoin="round" stroke-width="2" fill-rule="evenodd" opacity="0.7"/>
  </g>
</svg>
