<svg xmlns="http://www.w3.org/2000/svg" xmlns:xlink="http://www.w3.org/1999/xlink" width="16" height="16" viewBox="0 0 16 16">
  <defs>
    <clipPath id="clip-path">
      <rect id="Rectangle_31799" data-name="Rectangle 31799" width="16" height="16" transform="translate(201.15 439.15)" fill="#fff" stroke="#707070" stroke-width="1"/>
    </clipPath>
  </defs>
  <g id="icon_new" transform="translate(-201.15 -439.15)" clip-path="url(#clip-path)">
    <path id="Path_175246" data-name="Path 175246" d="M14.5,202l1.094,2.845a6,6,0,0,0,.6,1.308,2.782,2.782,0,0,0,.656.656,6,6,0,0,0,1.308.6L21,208.5l-2.846,1.095a6.008,6.008,0,0,0-1.308.6,2.784,2.784,0,0,0-.656.656,6,6,0,0,0-.6,1.308L14.5,215l-1.094-2.845a6,6,0,0,0-.6-1.308,2.784,2.784,0,0,0-.656-.656,6.008,6.008,0,0,0-1.308-.6L8,208.5l2.846-1.095a6,6,0,0,0,1.308-.6,2.782,2.782,0,0,0,.656-.656,6,6,0,0,0,.6-1.308Z" transform="translate(194.65 238.65)" fill="none" stroke="#fff" stroke-linecap="round" stroke-linejoin="round" stroke-width="1.5"/>
  </g>
</svg>
