<svg xmlns="http://www.w3.org/2000/svg" xmlns:xlink="http://www.w3.org/1999/xlink" width="24" height="24" viewBox="0 0 24 24">
  <defs>
    <clipPath id="clip-path">
      <rect id="Rectangle_31643" data-name="Rectangle 31643" width="24" height="24" stroke="#707070" stroke-width="1"/>
    </clipPath>
  </defs>
  <g id="icon_chat" clip-path="url(#clip-path)">
    <path id="Path_2259" data-name="Path 2259" d="M8.358,373.716H8.37m5.346,0h.012m5.346,0h.012m-5.37,10.716a10.706,10.706,0,1,0-9.932-6.685,3.318,3.318,0,0,1,.167.453,1.084,1.084,0,0,1,.029.261,2.742,2.742,0,0,1-.054.42l-.706,4.236a1.685,1.685,0,0,0-.042.826.592.592,0,0,0,.312.312,1.68,1.68,0,0,0,.826-.042l4.236-.706a2.769,2.769,0,0,1,.421-.054,1.063,1.063,0,0,1,.26.029,3.4,3.4,0,0,1,.453.167A10.694,10.694,0,0,0,13.716,384.432ZM8.953,373.716a.6.6,0,1,1-.6-.6A.6.6,0,0,1,8.953,373.716Zm5.358,0a.6.6,0,1,1-.6-.6A.6.6,0,0,1,14.311,373.716Zm5.358,0a.6.6,0,1,1-.6-.6A.6.6,0,0,1,19.669,373.716Z" transform="translate(-1.622 -361.81)" fill="none" stroke="#fffdf5" stroke-linecap="round" stroke-linejoin="round" stroke-width="2"/>
  </g>
</svg>
