<svg xmlns="http://www.w3.org/2000/svg" xmlns:xlink="http://www.w3.org/1999/xlink" width="88" height="88" viewBox="0 0 88 88">
  <defs>
    <clipPath id="clip-path">
      <rect id="矩形_1546" data-name="矩形 1546" width="88" height="88" transform="translate(145 141)" fill="#fff" stroke="#707070" stroke-width="1"/>
    </clipPath>
    <linearGradient id="linear-gradient" x1="0.5" x2="0.5" y2="1" gradientUnits="objectBoundingBox">
      <stop offset="0" stop-color="#39d668"/>
      <stop offset="1" stop-color="#4de694"/>
    </linearGradient>
  </defs>
  <g id="successful" transform="translate(-145 -141)" clip-path="url(#clip-path)">
    <path id="路径_6994" data-name="路径 6994" d="M54.736,16A38.736,38.736,0,1,0,93.472,54.736,38.736,38.736,0,0,0,54.736,16ZM75.921,45.535,50.67,70.785a1.513,1.513,0,0,1-2.14,0L33.551,55.806a1.513,1.513,0,0,1,0-2.14l4.708-4.708a1.513,1.513,0,0,1,2.14,0l9.2,9.2L69.074,38.687a1.513,1.513,0,0,1,2.14,0l4.708,4.708a1.513,1.513,0,0,1,0,2.14Z" transform="translate(134.264 130.264)" fill="url(#linear-gradient)"/>
  </g>
</svg>
