<svg xmlns="http://www.w3.org/2000/svg" width="24" height="24" viewBox="0 0 24 24">
  <g id="icon_loading_white" transform="translate(-661.999 -408)">
    <path id="Path_160887" data-name="Path 160887" d="M15.3,3.3a12,12,0,1,1-12,12A12,12,0,0,1,15.3,3.3Zm0,3.6a8.4,8.4,0,1,0,8.4,8.4,8.4,8.4,0,0,0-8.4-8.4Z" transform="translate(658.699 404.7)" fill="rgba(207,207,207,0.33)"/>
    <path id="Path_160888" data-name="Path 160888" d="M24.618,23.449A11.8,11.8,0,0,0,7.926,6.757a1.77,1.77,0,1,0,2.5,2.5A8.262,8.262,0,0,1,22.115,20.946a1.77,1.77,0,1,0,2.5,2.5Z" transform="translate(657.924 404.7)" fill="#cfcfcf"/>
  </g>
</svg>
