<svg id="icon_small_coins" xmlns="http://www.w3.org/2000/svg" width="18.747" height="18.749" viewBox="0 0 18.747 18.749">
  <path id="路径_175507" data-name="路径 175507" d="M7.554,14a2.377,2.377,0,0,0-.133.781v3.765a13.285,13.285,0,0,1-1.953.141C2.75,18.687,0,17.882,0,16.343V14Z" transform="translate(0 -3.063)" fill="#ffc107"/>
  <path id="路径_175508" data-name="路径 175508" d="M8.015,13a2.369,2.369,0,0,0-.383.6.717.717,0,0,0-.07.18H7.554a2.377,2.377,0,0,0-.133.781v2.2a13.285,13.285,0,0,1-1.953.141C2.75,16.906,0,16.1,0,14.562V13Z" transform="translate(0 -2.844)" fill="#ffd54f"/>
  <path id="路径_175509" data-name="路径 175509" d="M10.936,10v.711a5.38,5.38,0,0,0-2.921,1.633,2.369,2.369,0,0,0-.383.6.717.717,0,0,0-.07.18H7.554a2.377,2.377,0,0,0-.133.781v.641a13.285,13.285,0,0,1-1.953.141c-2.211,0-4.453-.531-5.2-1.562A1.292,1.292,0,0,1,0,12.343V10Z" transform="translate(0 -2.188)" fill="#ffc107"/>
  <path id="路径_175510" data-name="路径 175510" d="M10.936,9v1.492a5.38,5.38,0,0,0-2.921,1.633,2.369,2.369,0,0,0-.383.6,12.905,12.905,0,0,1-2.164.18,10.078,10.078,0,0,1-4.179-.781C.5,11.742,0,11.218,0,10.562V9Z" transform="translate(0 -1.969)" fill="#ffd54f"/>
  <path id="路径_175511" data-name="路径 175511" d="M0,6V8.343c0,1.539,2.75,2.343,5.468,2.343s5.468-.8,5.468-2.343V6Z" transform="translate(0 -1.313)" fill="#ffc107"/>
  <path id="路径_175512" data-name="路径 175512" d="M0,5V6.562C0,8.1,2.75,8.906,5.468,8.906s5.468-.8,5.468-2.343V5Z" transform="translate(0 -1.094)" fill="#ffd54f"/>
  <path id="路径_175513" data-name="路径 175513" d="M0,3V4.562C0,6.1,2.75,6.906,5.468,6.906s5.468-.8,5.468-2.343V3Z" transform="translate(0 -0.656)" fill="#ffc107"/>
  <path id="路径_175514" data-name="路径 175514" d="M10.936,2.343c0,1.294-2.448,2.343-5.468,2.343S0,3.638,0,2.343,2.448,0,5.468,0,10.936,1.049,10.936,2.343Z" fill="#ffd54f"/>
  <path id="路径_175515" data-name="路径 175515" d="M11,18v2.343c0,1.539,2.554,2.343,5.077,2.343s5.077-.8,5.077-2.343V18Z" transform="translate(-2.407 -3.938)" fill="#ffc107"/>
  <path id="路径_175516" data-name="路径 175516" d="M11,17v1.562c0,1.539,2.554,2.343,5.077,2.343s5.077-.8,5.077-2.343V17Z" transform="translate(-2.407 -3.719)" fill="#ffd54f"/>
  <path id="路径_175517" data-name="路径 175517" d="M11,15v1.562c0,1.539,2.554,2.343,5.077,2.343s5.077-.8,5.077-2.343V15Z" transform="translate(-2.407 -3.281)" fill="#ffc107"/>
  <path id="路径_175518" data-name="路径 175518" d="M21.155,14.343c0,1.294-2.273,2.343-5.077,2.343S11,15.638,11,14.343,13.273,12,16.077,12,21.155,13.049,21.155,14.343Z" transform="translate(-2.407 -2.625)" fill="#ffd54f"/>
</svg>
