<svg xmlns="http://www.w3.org/2000/svg" xmlns:xlink="http://www.w3.org/1999/xlink" width="24" height="24" viewBox="0 0 24 24">
  <defs>
    <clipPath id="clip-path">
      <rect id="Rectangle_32156" data-name="Rectangle 32156" width="24" height="24" transform="translate(615 861)" fill="#fff" stroke="#707070" stroke-width="1"/>
    </clipPath>
  </defs>
  <g id="btn_ai-tip_hover" transform="translate(-615 -861)" clip-path="url(#clip-path)">
    <g id="Group_14259" data-name="Group 14259" transform="translate(-1.25)">
      <path id="Path_173384" data-name="Path 173384" d="M208.5,407.75H204m4.5,0a9.169,9.169,0,0,1,.034-1.176,1.866,1.866,0,0,1,.568-1.271c.136-.168.641-.619,1.649-1.523a6.75,6.75,0,1,0-9,0c1.008.9,1.513,1.354,1.649,1.523a1.866,1.866,0,0,1,.568,1.271A9.165,9.165,0,0,1,204,407.75m4.5,0a3.343,3.343,0,0,1-.181,1.575,1.354,1.354,0,0,1-.494.494,6.945,6.945,0,0,1-3.15,0,1.354,1.354,0,0,1-.494-.494A3.343,3.343,0,0,1,204,407.75" transform="translate(422 472)" fill="none" stroke="#fffdf5" stroke-width="1.5"/>
      <path id="Path_173385" data-name="Path 173385" d="M207.341,398.5l-1.7,2.377h2.377l-1.7,2.377" transform="translate(421.419 470.294)" fill="none" stroke="#fffdf5" stroke-linecap="round" stroke-linejoin="round" stroke-width="1.5"/>
    </g>
  </g>
</svg>
