<svg id="btn_del_" xmlns="http://www.w3.org/2000/svg" xmlns:xlink="http://www.w3.org/1999/xlink" width="14" height="14" viewBox="0 0 14 14">
  <defs>
    <clipPath id="clip-path">
      <rect id="Rectangle_32155" data-name="Rectangle 32155" width="14" height="14" transform="translate(1396 423)" fill="#fff" stroke="#707070" stroke-width="1"/>
    </clipPath>
  </defs>
  <g id="btn_del_hover" transform="translate(-1396 -423)" clip-path="url(#clip-path)">
    <path id="Path_2030" data-name="Path 2030" d="M7,1123h4m-8,2H15m-1.333,0-.468,7.013a4.889,4.889,0,0,1-.332,1.98,2,2,0,0,1-.866.807,4.876,4.876,0,0,1-1.995.2H7.994A4.876,4.876,0,0,1,6,1134.8a2,2,0,0,1-.866-.807,4.889,4.889,0,0,1-.332-1.98L4.333,1125m3.333,3v3.333M10.333,1128v3.333" transform="translate(1394 -699)" fill="none" stroke="#eef3ff" stroke-linecap="round" stroke-linejoin="round" stroke-width="1.5"/>
  </g>
</svg>
