<svg xmlns="http://www.w3.org/2000/svg" xmlns:xlink="http://www.w3.org/1999/xlink" width="26" height="26" viewBox="0 0 26 26">
  <defs>
    <clipPath id="clip-path">
      <rect id="Rectangle_31836" data-name="Rectangle 31836" width="26" height="26" fill="#fff" stroke="#707070" stroke-width="1"/>
    </clipPath>
  </defs>
  <g id="btn_more_hover" clip-path="url(#clip-path)">
    <g id="Path_175383" data-name="Path 175383" transform="translate(1 -1759)" fill="#fffdf5" stroke-linecap="round" stroke-linejoin="round">
      <path d="M 12 1773.400024414062 C 11.22803974151611 1773.400024414062 10.60000038146973 1772.77197265625 10.60000038146973 1772 C 10.60000038146973 1771.22802734375 11.22803974151611 1770.599975585938 12 1770.599975585938 C 12.77196025848389 1770.599975585938 13.39999961853027 1771.22802734375 13.39999961853027 1772 C 13.39999961853027 1772.77197265625 12.77196025848389 1773.400024414062 12 1773.400024414062 Z" stroke="none"/>
      <path d="M 12 1773 C 12.55230045318604 1773 13 1772.550048828125 13 1772 C 13 1771.449951171875 12.55230045318604 1771 12 1771 C 11.44769954681396 1771 11 1771.449951171875 11 1772 C 11 1772.550048828125 11.44769954681396 1773 12 1773 M 12 1773.800048828125 C 11.00747966766357 1773.800048828125 10.19999980926514 1772.992553710938 10.19999980926514 1772 C 10.19999980926514 1771.007446289062 11.00747966766357 1770.199951171875 12 1770.199951171875 C 12.99252033233643 1770.199951171875 13.80000019073486 1771.007446289062 13.80000019073486 1772 C 13.80000019073486 1772.992553710938 12.99252033233643 1773.800048828125 12 1773.800048828125 Z" stroke="none" fill="#fffdf5"/>
    </g>
    <g id="Path_175384" data-name="Path 175384" transform="translate(-0.4 -1759)" fill="#fffdf5" stroke-linecap="round" stroke-linejoin="round">
      <path d="M 19 1773.400024414062 C 18.22804069519043 1773.400024414062 17.60000038146973 1772.77197265625 17.60000038146973 1772 C 17.60000038146973 1771.22802734375 18.22804069519043 1770.599975585938 19 1770.599975585938 C 19.77195930480957 1770.599975585938 20.39999961853027 1771.22802734375 20.39999961853027 1772 C 20.39999961853027 1772.77197265625 19.77195930480957 1773.400024414062 19 1773.400024414062 Z" stroke="none"/>
      <path d="M 19 1773 C 19.55229949951172 1773 20 1772.550048828125 20 1772 C 20 1771.449951171875 19.55229949951172 1771 19 1771 C 18.44770050048828 1771 18 1771.449951171875 18 1772 C 18 1772.550048828125 18.44770050048828 1773 19 1773 M 19 1773.800048828125 C 18.00748062133789 1773.800048828125 17.20000076293945 1772.992553710938 17.20000076293945 1772 C 17.20000076293945 1771.007446289062 18.00748062133789 1770.199951171875 19 1770.199951171875 C 19.99251937866211 1770.199951171875 20.79999923706055 1771.007446289062 20.79999923706055 1772 C 20.79999923706055 1772.992553710938 19.99251937866211 1773.800048828125 19 1773.800048828125 Z" stroke="none" fill="#fffdf5"/>
    </g>
    <g id="Path_175385" data-name="Path 175385" transform="translate(2.4 -1759)" fill="#fffdf5" stroke-linecap="round" stroke-linejoin="round">
      <path d="M 5 1773.400024414062 C 4.228040218353271 1773.400024414062 3.599999904632568 1772.77197265625 3.599999904632568 1772 C 3.599999904632568 1771.22802734375 4.228040218353271 1770.599975585938 5 1770.599975585938 C 5.771959781646729 1770.599975585938 6.400000095367432 1771.22802734375 6.400000095367432 1772 C 6.400000095367432 1772.77197265625 5.771959781646729 1773.400024414062 5 1773.400024414062 Z" stroke="none"/>
      <path d="M 5 1773 C 5.552279949188232 1773 6 1772.550048828125 6 1772 C 6 1771.449951171875 5.552279949188232 1771 5 1771 C 4.447720050811768 1771 4 1771.449951171875 4 1772 C 4 1772.550048828125 4.447720050811768 1773 5 1773 M 5 1773.800048828125 C 4.007480144500732 1773.800048828125 3.200000047683716 1772.992553710938 3.200000047683716 1772 C 3.200000047683716 1771.007446289062 4.007480144500732 1770.199951171875 5 1770.199951171875 C 5.992519855499268 1770.199951171875 6.800000190734863 1771.007446289062 6.800000190734863 1772 C 6.800000190734863 1772.992553710938 5.992519855499268 1773.800048828125 5 1773.800048828125 Z" stroke="none" fill="#fffdf5"/>
    </g>
  </g>
</svg>
