<svg xmlns="http://www.w3.org/2000/svg" xmlns:xlink="http://www.w3.org/1999/xlink" width="24" height="24" viewBox="0 0 24 24">
  <defs>
    <clipPath id="clip-path">
      <rect id="Rectangle_31953" data-name="Rectangle 31953" width="24" height="24" transform="translate(1 1)" fill="#fff" stroke="#707070" stroke-width="1"/>
    </clipPath>
  </defs>
  <g id="btn_more_normal" transform="translate(-1 -1)" clip-path="url(#clip-path)">
    <path id="Path_176245" data-name="Path 176245" d="M12,1773a1,1,0,1,0-1-1A1,1,0,0,0,12,1773Z" transform="translate(1 -1759)" fill="#fffdf5" stroke="#fffdf5" stroke-linecap="round" stroke-linejoin="round" stroke-width="1.5" opacity="0.6"/>
    <path id="Path_176246" data-name="Path 176246" d="M19,1773a1,1,0,1,0-1-1A1,1,0,0,0,19,1773Z" transform="translate(-0.4 -1759)" fill="#fffdf5" stroke="#fffdf5" stroke-linecap="round" stroke-linejoin="round" stroke-width="1.5" opacity="0.6"/>
    <path id="Path_176247" data-name="Path 176247" d="M5,1773a1,1,0,1,0-1-1A1,1,0,0,0,5,1773Z" transform="translate(2.4 -1759)" fill="#fffdf5" stroke="#fffdf5" stroke-linecap="round" stroke-linejoin="round" stroke-width="1.5" opacity="0.6"/>
  </g>
</svg>
