<svg xmlns="http://www.w3.org/2000/svg" xmlns:xlink="http://www.w3.org/1999/xlink" width="16" height="16" viewBox="0 0 16 16">
  <defs>
    <clipPath id="clip-path">
      <rect id="Rectangle_31949" data-name="Rectangle 31949" width="16" height="16" transform="translate(17 155)" fill="#fff" stroke="#707070" stroke-width="1"/>
    </clipPath>
  </defs>
  <g id="icon_user" transform="translate(-17 -155)" clip-path="url(#clip-path)">
    <path id="Path_2199" data-name="Path 2199" d="M16.444,297a7.788,7.788,0,0,0-.134-2.07,3.111,3.111,0,0,0-2.074-2.074,7.8,7.8,0,0,0-2.07-.134H8.278a7.8,7.8,0,0,0-2.07.134,3.111,3.111,0,0,0-2.074,2.074A7.786,7.786,0,0,0,4,297m9.722-10.5a3.5,3.5,0,1,1-3.5-3.5A3.5,3.5,0,0,1,13.722,286.5Z" transform="translate(14.777 -127)" fill="none" stroke="#fffdf5" stroke-linecap="round" stroke-linejoin="round" stroke-width="1.5"/>
  </g>
</svg>
