<svg xmlns="http://www.w3.org/2000/svg" xmlns:xlink="http://www.w3.org/1999/xlink" width="36" height="36" viewBox="0 0 36 36">
  <defs>
    <clipPath id="clip-path">
      <rect id="Rectangle_31754" data-name="Rectangle 31754" width="36" height="36" transform="translate(29.73 5.73)" stroke="#707070" stroke-width="1"/>
    </clipPath>
  </defs>
  <g id="icon_heart" transform="translate(-29.73 -5.73)" clip-path="url(#clip-path)">
    <path id="Path_175351" data-name="Path 175351" d="M30.939,8.441a9.394,9.394,0,0,0-13.269,0l-.85.849-.849-.849a9.392,9.392,0,0,0-13.268,0,9.49,9.49,0,0,0-.054,13.213c3.24,3.6,12.8,11.38,13.2,11.71a1.478,1.478,0,0,0,.936.333h.032a1.432,1.432,0,0,0,.968-.332c.405-.329,9.963-8.109,13.2-11.71a9.49,9.49,0,0,0-.054-13.213ZM28.784,19.667c-2.526,2.807-9.471,8.6-11.964,10.65-2.493-2.054-9.437-7.842-11.963-10.649A6.558,6.558,0,0,1,4.8,10.542a6.419,6.419,0,0,1,9.067,0l1.867,1.868a1.437,1.437,0,0,0,.8.4,1.488,1.488,0,0,0,1.366-.4l1.868-1.868a6.42,6.42,0,0,1,9.068,0A6.558,6.558,0,0,1,28.784,19.667Z" transform="translate(30.91 4.034)" fill="#fffdf5"/>
  </g>
</svg>
