<svg xmlns="http://www.w3.org/2000/svg" xmlns:xlink="http://www.w3.org/1999/xlink" width="16" height="16" viewBox="0 0 16 16">
  <defs>
    <clipPath id="clip-path">
      <rect id="Rectangle_31949" data-name="Rectangle 31949" width="16" height="16" transform="translate(17 155)" fill="#fff" stroke="#707070" stroke-width="1"/>
    </clipPath>
  </defs>
  <g id="icon_chat" transform="translate(-17 -155)" clip-path="url(#clip-path)">
    <path id="Path_2276" data-name="Path 2276" d="M6.611,367.694H9.5m-2.889,2.528h5.056M9.5,376a6.494,6.494,0,1,0-6.025-4.055,2.017,2.017,0,0,1,.1.274.658.658,0,0,1,.017.158,1.663,1.663,0,0,1-.033.255l-.428,2.57a1.022,1.022,0,0,0-.026.5.359.359,0,0,0,.19.189,1.019,1.019,0,0,0,.5-.025l2.57-.428a1.672,1.672,0,0,1,.255-.032.645.645,0,0,1,.158.017,2.068,2.068,0,0,1,.275.1A6.486,6.486,0,0,0,9.5,376Z" transform="translate(16 -206)" fill="none" stroke="#fffdf5" stroke-linecap="round" stroke-linejoin="round" stroke-width="1.5"/>
  </g>
</svg>
