<svg xmlns="http://www.w3.org/2000/svg" xmlns:xlink="http://www.w3.org/1999/xlink" width="16" height="16" viewBox="0 0 16 16">
  <defs>
    <clipPath id="clip-path">
      <rect id="Rectangle_31951" data-name="Rectangle 31951" width="16" height="16" transform="translate(17 155)" fill="#fff" stroke="#707070" stroke-width="1"/>
    </clipPath>
  </defs>
  <g id="icon_allchat" transform="translate(-17 -155)" clip-path="url(#clip-path)">
    <g id="vuesax_linear_direct" data-name="vuesax/linear/direct" transform="translate(-410 -30)">
      <g id="direct" transform="translate(428 186)">
        <path id="Vector" d="M4.083,11.667h3.5c2.917,0,4.083-1.167,4.083-4.083v-3.5C11.667,1.167,10.5,0,7.583,0h-3.5C1.167,0,0,1.167,0,4.083v3.5C0,10.5,1.167,11.667,4.083,11.667Z" transform="translate(1.167 1.167)" fill="none" stroke="#fffdf5" stroke-linecap="round" stroke-linejoin="round" stroke-width="1.5"/>
        <path id="Vector-2" data-name="Vector" d="M0,.006H2.193A1.167,1.167,0,0,1,3.238.653L3.757,1.7a1.119,1.119,0,0,0,1.05.642H6.866A1.167,1.167,0,0,0,7.91,1.692L8.429.648A1.167,1.167,0,0,1,9.473,0h2.182" transform="translate(1.167 7.578)" fill="none" stroke="#fffdf5" stroke-linecap="round" stroke-linejoin="round" stroke-width="1.5"/>
        <path id="Vector-3" data-name="Vector" d="M0,0H1.942" transform="translate(6.032 4.083)" fill="none" stroke="#fffdf5" stroke-linecap="round" stroke-linejoin="round" stroke-width="1.5"/>
        <path id="Vector-4" data-name="Vector" d="M0,0H2.917" transform="translate(5.542 5.833)" fill="none" stroke="#fffdf5" stroke-linecap="round" stroke-linejoin="round" stroke-width="1.5"/>
        <path id="Vector-5" data-name="Vector" d="M0,0H14V14H0Z" fill="none" opacity="0"/>
      </g>
    </g>
  </g>
</svg>
