<svg xmlns="http://www.w3.org/2000/svg" xmlns:xlink="http://www.w3.org/1999/xlink" width="200" height="164" viewBox="0 0 200 164">
  <defs>
    <linearGradient id="linear-gradient" x1="0.5" x2="0.5" y2="0.5" gradientUnits="objectBoundingBox">
      <stop offset="0" stop-color="#dee3f0"/>
      <stop offset="1" stop-color="#dee3f0" stop-opacity="0"/>
    </linearGradient>
    <linearGradient id="linear-gradient-2" x1="382.268" y1="632.585" x2="382.268" y2="197.645" gradientUnits="objectBoundingBox">
      <stop offset="0" stop-color="#9caaba"/>
      <stop offset="1" stop-color="#c2c9d6"/>
    </linearGradient>
    <linearGradient id="linear-gradient-3" x1="396.123" y1="632.585" x2="396.123" y2="197.645" gradientUnits="objectBoundingBox">
      <stop offset="0" stop-color="#abb8c9"/>
      <stop offset="1" stop-color="#cfd5e0"/>
    </linearGradient>
    <linearGradient id="linear-gradient-4" x1="96.772" y1="610.127" x2="96.772" y2="804.751" gradientUnits="objectBoundingBox">
      <stop offset="0" stop-color="#e1e7f2"/>
      <stop offset="1" stop-color="#b7bfc9"/>
    </linearGradient>
  </defs>
  <g id="pic_no-message" transform="translate(-36.8 -197.7)" opacity="0.42">
    <g id="Group_14101" data-name="Group 14101" transform="translate(36.8 276.995)">
      <path id="Path_175432" data-name="Path 175432" d="M236.8,696.69l-.063,1.071-.147,1.071-.274,1.071-.358,1.092-.484,1.092-.61,1.092-.8,1.2-.947,1.218-1.136,1.239-1.3,1.26-1.494,1.26-1.473,1.134-1.662,1.134-1.81,1.134-2.02,1.155-2.21,1.134-2.715,1.281-2.967,1.281-3.262,1.239-3.556,1.239-3.767,1.2-4,1.134-4.251,1.071-4.251.966-4.44.9-4.651.84-4.651.735-4.8.651-4.945.588-4.966.483-5.072.4-5.177.315-5.177.231-5.261.147-5.3.042-5.3-.042-5.261-.147-5.177-.231-5.177-.315-5.072-.4-4.966-.483-4.945-.588-4.8-.651-4.651-.735-4.651-.84-4.44-.9-4.251-.966-4.251-1.071-4-1.134-3.767-1.2-3.556-1.239L59.275,717.6l-2.967-1.281-2.715-1.281-2.21-1.134-2.02-1.155-1.81-1.134-1.662-1.134-1.473-1.134-1.494-1.26-1.3-1.26-1.136-1.239-.947-1.218-.8-1.2-.61-1.092-.484-1.092-.358-1.092-.274-1.071-.147-1.071L36.8,696.69l.063-1.071.147-1.071.274-1.071.358-1.092.484-1.092.61-1.092.8-1.2.947-1.218,1.136-1.239,1.3-1.26,1.494-1.26,1.473-1.134,1.662-1.134,1.81-1.134,2.02-1.155,2.21-1.134,2.715-1.281,2.967-1.281,3.262-1.239,3.556-1.239,3.767-1.2,4-1.134,4.251-1.071,4.251-.966,4.44-.9,4.651-.84,4.651-.735,4.8-.651,4.945-.588,4.966-.483,5.072-.4,5.177-.315,5.177-.231,5.261-.147,5.3-.042,5.3.042,5.261.147,5.177.231,5.177.315,5.072.4,4.966.483,4.945.588,4.8.651,4.651.735,4.651.84,4.44.9,4.251.966,4.251,1.071,4,1.134,3.767,1.2,3.556,1.239,3.262,1.239,2.967,1.281,2.715,1.281,2.21,1.134,2.02,1.155,1.81,1.134,1.662,1.134,1.473,1.134,1.494,1.26,1.3,1.26,1.136,1.239.947,1.218.8,1.2.61,1.092.484,1.092.358,1.092.274,1.071.147,1.071Z" transform="translate(-36.8 -645.074)" opacity="0.26" fill="url(#linear-gradient)"/>
      <g id="Group_14098" data-name="Group 14098" transform="translate(14.541 0)">
        <path id="Path_175433" data-name="Path 175433" d="M124.04,618.833l-.042.945-.147.882-.21.861-.316.84-.842,1.533-1.094,1.344-1.347,1.092-1.536.84-.842.315-.863.21-.884.147-.947.042-.947-.042-.884-.147-.863-.21-.842-.315-1.536-.84-1.347-1.092-1.094-1.344-.842-1.533-.316-.84-.21-.861-.147-.882-.042-.945.147-1.785.568-2.646.526-1.68.652-1.68.758-1.6.589-1.05,1.242-1.806.715-.819.737-.672.715-.525.61-.336.589-.252.61-.126.61-.063.61.063.61.126.589.252.61.336.715.525.737.672.715.819L120.8,608.4l.589,1.05.758,1.6.652,1.68.526,1.68.568,2.646Z" transform="translate(-105.9 -603.8)" fill="#e6eaf0" opacity="0.29"/>
        <path id="Path_175434" data-name="Path 175434" d="M135.933,649.512l-.231-.063-.21.042-.189.1-.147.189-2.8,5.648V644.788l-.042-.231-.126-.189-.189-.126-.231-.042-.231.042-.189.126-.126.189-.042.231v5.459l-2.988-2.981-.189-.126-.21-.042-.231.042-.189.126-.126.189-.042.231.042.21.126.189,3.6,3.59.21.084v15.768l.042.231.126.189.189.126.231.042.231-.042.316-.315.042-.231v-9.49l3.83-7.748.063-.21-.021-.231-.105-.189Z" transform="translate(-122.718 -635.718)" fill="#d0d6e0"/>
      </g>
      <g id="Group_14099" data-name="Group 14099" transform="translate(162.668 6.848)">
        <path id="Path_175435" data-name="Path 175435" d="M824.615,634.483l-.063,1.008-.211.966-.316.9-.421.861-.526.777-.631.714-.715.63-.779.525-.863.42-.9.315-.968.21-1.01.063-1.01-.063-.968-.21-.9-.315-.863-.42-.779-.525-.715-.63-.631-.714-.526-.777-.421-.861-.316-.9-.21-.966-.063-1.008.063-1.05.21-1.281.295-1.281.442-1.386.526-1.365,1.115-2.163,1.031-1.47.568-.672.589-.546.61-.441.631-.357.652-.189.673-.084.673.084.652.189.631.357.61.441.589.546.568.651,1.031,1.491,1.115,2.163.526,1.365.442,1.365.295,1.3.211,1.26Z" transform="translate(-809.8 -622.2)" fill="#e6eaf0" opacity="0.34"/>
        <path id="Path_175436" data-name="Path 175436" d="M834.65,659.546l-.358-.021-.274.231-2.273,4.6-.042-8.881-.231-.231-.189-.042-.316.147-.147.315v4.451l-2.441-2.436-.168-.1h-.337l-.274.273v.336l.105.168,2.946,2.939.168.063v12.871l.147.336.316.126.189-.042.231-.231.042-.189V666.5l3.135-6.32v-.357Z" transform="translate(-823.854 -648.271)" fill="#d0d6e0"/>
      </g>
      <g id="Group_14100" data-name="Group 14100" transform="translate(176.242 34.004)">
        <path id="Path_175437" data-name="Path 175437" d="M885.369,732.254l-.063.756-.126.714-.253.672-.316.651-.4.588-.463.525-.526.462-.589.4-.652.315-.673.252-.716.126-.758.063-.758-.063-.716-.126-.673-.252-.652-.315-.589-.4-.526-.462-.463-.525-.4-.588-.316-.651-.253-.672-.126-.714-.063-.756.063-.966.211-1.155.337-1.2.463-1.218.547-1.2.652-1.071.989-1.239.968-.735.421-.21.884-.168.884.168.863.483.526.462.505.567.484.672.652,1.071.547,1.2.463,1.218.337,1.2.21,1.155Z" transform="translate(-874.3 -723.1)" fill="#e6eaf0" opacity="0.43"/>
        <path id="Path_175438" data-name="Path 175438" d="M892.782,750.933l-.274-.021-.189.189-1.7,3.443-.021-6.614-.21-.21-.126-.021-.253.1-.105.252v3.317l-1.81-1.806-.126-.084h-.253l-.21.21v.252l.084.126,2.188,2.184.126.042v9.616l.105.252.253.1.126-.021.21-.21.021-.126V756.14l2.336-4.724.021-.273Z" transform="translate(-884.722 -742.535)" fill="#d0d6e0"/>
      </g>
    </g>
    <path id="Path_175439" data-name="Path 175439" d="M246.141,273.769l1.473-1.554,1.368-1.617,1.326-1.659,1.221-1.764,1.157-1.785,1.052-1.869.968-1.911.9-1.974.779-2.016.694-2.037.589-2.121.505-2.142.379-2.184.274-2.2.168-2.247.063-2.31-.042-2.121-.147-2.079-.253-2.058-.316-2.016-.421-1.974-.526-1.974-.589-1.911-.673-1.89-.758-1.827-.821-1.806-.926-1.764-.989-1.7L251.55,217.6l-1.136-1.617-1.2-1.554-1.578-1.869-1.684-1.785-1.789-1.68-1.873-1.575-1.557-1.2-1.62-1.134-1.662-1.05-1.7-.987-1.768-.924-1.81-.819-1.831-.756-1.894-.672-1.915-.588-1.978-.525-1.978-.42-2.02-.315-2.062-.252-2.083-.147-2.125-.042-2.125.042-2.083.147-2.062.252-2.02.315-1.978.42-1.978.525-1.915.588-1.894.672-1.831.756-1.81.819-1.768.924-1.7.987-1.662,1.05-1.62,1.134-1.557,1.2L184.4,209.1l-1.789,1.68-1.684,1.785-1.578,1.869-1.2,1.554-1.136,1.617-1.052,1.659-.989,1.7-.926,1.764-.821,1.806-.758,1.827-.673,1.89-.589,1.911-.526,1.974-.421,1.974-.316,2.016-.253,2.058-.147,2.079-.042,2.121.042,2.121.147,2.079.253,2.058.316,2.016.421,1.974.526,1.974.589,1.911.673,1.89.758,1.827.821,1.806.926,1.764.989,1.7,1.052,1.659,1.136,1.617,1.2,1.554,1.578,1.869,1.684,1.785,1.789,1.68,1.873,1.575,1.557,1.2,1.62,1.134,1.662,1.05,1.7.987,1.768.924,1.81.819,1.831.756,1.894.672,1.915.588,1.978.525,1.978.42,2.02.315,2.062.252,2.083.147,2.125.042,2.146-.063,2.1-.147,2.083-.231,2.041-.336,2-.441,1.978-.525,1.957-.588,1.894-.693,1.852-.777,1.81-.84,14.983,6.572h3.451v-2.562h-2.5ZM202.854,249.1l-.8-.063-.737-.147-.715-.252-.673-.336-.61-.4-.547-.483-.484-.567-.421-.609-.337-.651-.231-.714-.147-.735-.063-.8.063-.8.147-.735.253-.714.337-.672.4-.609.484-.546.568-.483.61-.42.652-.336.715-.231.737-.147.8-.063.8.063.737.147.715.252.652.336.61.4.568.483.484.567.4.609.337.651.253.714.147.735.063.8-.042.8-.147.735-.253.714-.337.672-.4.609-.505.546-.547.483-.61.42-.673.336-.715.231-.737.147Zm28.662,0-.8-.063-.737-.147-.715-.252-.673-.336-.61-.4-.547-.483-.484-.567-.421-.609-.337-.651-.231-.714-.147-.735-.063-.8.063-.8.147-.735.253-.714.337-.672.4-.609.484-.546.568-.483.61-.42.652-.336.715-.231.737-.147.8-.063.8.063.737.147.715.252.652.336.61.4.568.483.484.567.4.609.337.651.253.714.147.735.063.8-.063.8-.147.735-.231.714-.337.672-.421.609-.484.546-.547.483-.61.42-.673.336-.715.231-.737.147Z" transform="translate(-104.775 0)" opacity="0.47" fill="url(#linear-gradient-2)"/>
    <path id="Path_175440" data-name="Path 175440" d="M257.636,271.481l1.429-1.507,1.327-1.568,1.286-1.609,1.184-1.711,1.123-1.731L265,261.543l.939-1.853.878-1.914.755-1.955.674-1.975.572-2.057.49-2.077.367-2.118.265-2.138.163-2.179.061-2.24-.041-2.057-.143-2.016-.245-2-.306-1.955-.408-1.914-.51-1.914-.572-1.853-.653-1.833-.735-1.772-.8-1.751-.9-1.711-.959-1.65-1.021-1.609-1.1-1.568-1.163-1.507-1.531-1.812-1.633-1.731-1.735-1.629-1.817-1.527-1.51-1.161-1.572-1.1-1.612-1.018-1.653-.957-1.714-.9-1.755-.794-1.776-.733-1.837-.652-1.857-.57-1.919-.509-1.919-.407-1.959-.305-2-.244-2.021-.143-2.061-.041-2.061.041-2.021.143-2,.244-1.959.305-1.919.407-1.919.509-1.857.57-1.837.652-1.776.733-1.755.794-1.715.9-1.653.957-1.612,1.018-1.572,1.1-1.51,1.161-1.817,1.527-1.735,1.629-1.633,1.731-1.531,1.812-1.163,1.507-1.1,1.568-1.021,1.609-.959,1.65-.9,1.711-.8,1.751-.735,1.772-.653,1.833-.572,1.853-.51,1.914-.408,1.914-.306,1.955-.245,2-.143,2.016-.041,2.057.041,2.057.143,2.016.245,2,.306,1.955.408,1.914.51,1.914.572,1.853.653,1.833.735,1.772.8,1.751.9,1.711.959,1.65,1.021,1.609,1.1,1.568,1.163,1.507,1.531,1.812,1.633,1.731,1.735,1.629,1.817,1.527,1.51,1.161,1.572,1.1,1.612,1.018,1.653.957,1.715.9,1.755.794,1.776.733,1.837.652,1.857.57,1.919.509,1.919.407,1.959.305,2,.244,2.021.143,2.061.041,2.082-.061,2.041-.143,2.021-.224,1.98-.326,1.939-.428,1.919-.509,1.9-.57,1.837-.672,1.8-.753,1.755-.815,14.451,6.313.633.061.245-.061.225-.122.163-.183.1-.326.02-.387-.143-.631Zm-44.8-23.928-.776-.061-.714-.143-.694-.244-.653-.326-.592-.387-.531-.468-.469-.55-.408-.591-.327-.631-.225-.692-.143-.713-.061-.774.061-.774.143-.713.245-.692.327-.652.388-.591.469-.529.551-.468.592-.407.633-.326.694-.224.714-.143.776-.061.776.061.714.143.694.244.633.326.592.387.551.468.469.55.388.591.327.631.245.692.143.713.061.774-.041.774-.143.713-.245.692-.327.652-.388.591-.49.529-.531.468-.592.407-.653.326-.694.224-.714.143Zm27.8,0-.776-.061-.714-.143-.694-.244-.653-.326-.592-.387-.531-.468-.469-.55-.408-.591-.327-.631-.225-.692-.143-.713-.061-.774.061-.774.143-.713.245-.692.327-.652.388-.591.469-.529.551-.468.592-.407.633-.326.694-.224.714-.143.776-.061.776.061.714.143.694.244.633.326.592.387.551.468.469.55.388.591.327.631.245.692.143.713.061.774-.061.774-.143.713-.225.692-.327.652-.408.591-.469.529-.531.468-.592.407-.653.326-.694.224-.714.143Z" transform="translate(-112.977 2.746)" fill="url(#linear-gradient-3)"/>
    <path id="Path_175441" data-name="Path 175441" d="M3.895,40.089l-.063.357.105.336.126.063h.4l6.672-2.923,1.367.608,1.409.524,1.473.4,1.515.293,1.536.188,1.6.062,1.662-.064,1.6-.211,1.557-.316,1.515-.442,1.473-.547,1.41-.652,1.347-.778,1.263-.862,1.221-.946L34.2,34.129l1.053-1.113L36.2,31.8l.863-1.26.779-1.344.653-1.407.548-1.47.443-1.512.317-1.554.211-1.6.064-1.659-.062-1.659-.21-1.6-.315-1.554-.441-1.512L38.5,12.2,37.85,10.8l-.778-1.343L36.21,8.194l-.946-1.218L34.213,5.864,33.1,4.815l-1.22-.944-1.262-.86L29.27,2.234l-1.409-.65-1.473-.545L24.873.6,23.317.285l-1.6-.209L20.056.014,18.393.078l-1.6.211L15.237.6l-1.515.442-1.473.547-1.41.652-1.347.778-1.263.862L7.008,4.83,5.892,5.88,4.839,6.994,3.892,8.213l-.863,1.26-.779,1.344L1.6,12.225l-.548,1.47L.605,15.207.289,16.761l-.211,1.6L.014,20.016l.041,1.365L.2,22.725l.21,1.3.315,1.26.84,2.456L2.7,30.031l1.43,2.12,1.661,1.91ZM23.873,20.423l.169-.9.19-.4.568-.672.758-.441.9-.169.9.168.757.44.568.672.315.84.042.462-.042.462-.126.441-.442.756-.674.567-.4.189-.9.168-.9-.167L24.8,22.4l-.568-.672-.189-.4ZM11.06,20.43l.169-.9.442-.756.674-.567.4-.189.9-.169.9.168.757.441.568.672.189.4.168.9-.169.9-.442.756-.674.567-.4.189-.9.168-.9-.167-.4-.189-.673-.567-.441-.756Z" transform="matrix(0.966, 0.259, -0.259, 0.966, 160.246, 278.998)" opacity="0.96" fill="url(#linear-gradient-4)"/>
  </g>
</svg>
