<svg xmlns="http://www.w3.org/2000/svg" xmlns:xlink="http://www.w3.org/1999/xlink" width="36" height="36" viewBox="0 0 36 36">
  <defs>
    <clipPath id="clip-path">
      <rect id="Rectangle_31752" data-name="Rectangle 31752" width="36" height="36" transform="translate(725.622 384.622)" fill="#cfcfcf" stroke="#707070" stroke-width="1"/>
    </clipPath>
  </defs>
  <g id="icon_share" transform="translate(-725.622 -384.622)" clip-path="url(#clip-path)">
    <path id="Path_175350" data-name="Path 175350" d="M11.944,100.416l10.928,6.368m-.016-17.568L11.944,95.584M31.8,86.8A4.8,4.8,0,1,1,27,82,4.8,4.8,0,0,1,31.8,86.8ZM12.6,98a4.8,4.8,0,1,1-4.8-4.8A4.8,4.8,0,0,1,12.6,98Zm19.2,11.2a4.8,4.8,0,1,1-4.8-4.8A4.8,4.8,0,0,1,31.8,109.2Z" transform="translate(726.222 304.623)" fill="none" stroke="#fffdf5" stroke-linecap="round" stroke-linejoin="round" stroke-width="3"/>
  </g>
</svg>
