<svg xmlns="http://www.w3.org/2000/svg" width="42" height="42" viewBox="0 0 42 42">
  <g id="icon_discord" transform="translate(-6 -6)">
    <circle id="Ellipse_3066" data-name="Ellipse 3066" cx="20" cy="20" r="20" transform="translate(7 7)" fill="#fff"/>
    <path id="Path_175236" data-name="Path 175236" d="M163.39,239.949v-.014a2.97,2.97,0,1,1,0,.014Z" transform="translate(-141.508 -214.284)" fill="#5865f2"/>
    <path id="Path_175237" data-name="Path 175237" d="M27,6A21,21,0,1,0,48,27,21,21,0,0,0,27,6Zm7.769,32.081S33.712,36.9,32.95,35.866A9.143,9.143,0,0,0,38,32.751,19.115,19.115,0,0,1,27,35.9a19.115,19.115,0,0,1-11-3.146,9.141,9.141,0,0,0,5.048,3.114c-.761,1.038-1.819,2.215-1.819,2.215a12.144,12.144,0,0,1-8.87-3.82,33.729,33.729,0,0,1,4.16-15.545,14.224,14.224,0,0,1,7.854-2.8l.423.4a18.654,18.654,0,0,0-7.05,3.405A26.429,26.429,0,0,1,27,17.022a26.437,26.437,0,0,1,11.252,2.7,18.654,18.654,0,0,0-7.05-3.405l.423-.4a14.22,14.22,0,0,1,7.854,2.8,33.728,33.728,0,0,1,4.16,15.545,12.143,12.143,0,0,1-8.869,3.82Z" fill="#5865f2"/>
    <path id="Path_175238" data-name="Path 175238" d="M285.259,239.933v.014a2.956,2.956,0,1,0,0-.014Z" transform="translate(-253.14 -214.283)" fill="#5865f2"/>
  </g>
</svg>
