<svg xmlns="http://www.w3.org/2000/svg" xmlns:xlink="http://www.w3.org/1999/xlink" width="418" height="45" viewBox="0 0 418 45">
  <defs>
    <clipPath id="clip-path">
      <rect id="Rectangle_30806" data-name="Rectangle 30806" width="418" height="45" transform="translate(539 729)" fill="#fff" stroke="#707070" stroke-width="1"/>
    </clipPath>
    <linearGradient id="linear-gradient" x1="-0.575" y1="0.501" x2="2.324" y2="0.501" gradientUnits="objectBoundingBox">
      <stop offset="0" stop-color="#007940"/>
      <stop offset="0.229" stop-color="#00873f"/>
      <stop offset="0.743" stop-color="#40a737"/>
      <stop offset="1" stop-color="#5cb531"/>
    </linearGradient>
    <linearGradient id="linear-gradient-2" x1="0.002" y1="0.5" x2="1.003" y2="0.5" xlink:href="#linear-gradient"/>
    <linearGradient id="linear-gradient-3" x1="-0.628" y1="0.499" x2="2.537" y2="0.499" xlink:href="#linear-gradient"/>
    <linearGradient id="linear-gradient-4" x1="0.002" y1="0.5" x2="1.018" y2="0.5" gradientUnits="objectBoundingBox">
      <stop offset="0" stop-color="#1f286f"/>
      <stop offset="0.475" stop-color="#004e94"/>
      <stop offset="0.826" stop-color="#0066b1"/>
      <stop offset="1" stop-color="#006fbc"/>
    </linearGradient>
    <linearGradient id="linear-gradient-5" x1="-0.006" y1="0.499" x2="0.981" y2="0.499" gradientUnits="objectBoundingBox">
      <stop offset="0" stop-color="#6c2c2f"/>
      <stop offset="0.173" stop-color="#882730"/>
      <stop offset="0.573" stop-color="#be1833"/>
      <stop offset="0.859" stop-color="#dc0436"/>
      <stop offset="1" stop-color="#e60039"/>
    </linearGradient>
  </defs>
  <g id="logoList" transform="translate(-539 -729)" clip-path="url(#clip-path)">
    <g id="logoList-2" data-name="logoList" transform="translate(539 734.141)">
      <g id="jcb-emblem-logo" transform="translate(230 3.86)">
        <path id="Vector" d="M167.673,97h2.456c.07,0,.234-.023.3-.023a1.1,1.1,0,0,0,.861-1.1,1.135,1.135,0,0,0-.861-1.1,1.235,1.235,0,0,0-.3-.023h-2.456Z" transform="translate(-142.038 -81.492)" fill="url(#linear-gradient)"/>
        <path id="Vector-2" data-name="Vector" d="M160.255,21.057A4.257,4.257,0,0,0,156,25.314v4.421h6.011a2.4,2.4,0,0,1,.421.023c1.357.07,2.362.772,2.362,1.988a1.989,1.989,0,0,1-1.941,1.941v.047c1.38.1,2.433.865,2.433,2.059,0,1.286-1.169,2.129-2.713,2.129h-6.6v8.654h6.245a4.257,4.257,0,0,0,4.257-4.257V21.057Z" transform="translate(-132.444 -21.056)" fill="url(#linear-gradient-2)"/>
        <path id="Vector-3" data-name="Vector" d="M170.994,77.327a1,1,0,0,0-.861-1.006c-.047,0-.164-.023-.234-.023h-2.226v2.059H169.9a.651.651,0,0,0,.234-.023,1,1,0,0,0,.861-1.006Z" transform="translate(-142.038 -66.356)" fill="url(#linear-gradient-3)"/>
        <path id="Vector-4" data-name="Vector" d="M29.5,21.057a4.257,4.257,0,0,0-4.257,4.257v10.5a8.415,8.415,0,0,0,3.672.956,2.037,2.037,0,0,0,2.269-2.1V29.711h3.649v4.935c0,1.918-1.192,3.486-5.239,3.486a17.956,17.956,0,0,1-4.374-.538v8.958h6.245a4.257,4.257,0,0,0,4.257-4.257V21.057Z" transform="translate(-25.215 -21.056)" fill="url(#linear-gradient-4)"/>
        <path id="Vector-5" data-name="Vector" d="M94.982,21.057a4.257,4.257,0,0,0-4.257,4.257v5.567c1.076-.912,2.947-1.5,5.964-1.357a18.981,18.981,0,0,1,3.347.514v1.8a8.1,8.1,0,0,0-3.229-.933c-2.295-.164-3.672.956-3.672,2.924,0,1.988,1.38,3.111,3.672,2.924a8.5,8.5,0,0,0,3.228-.935v1.8a18.528,18.528,0,0,1-3.347.514c-3.017.141-4.888-.445-5.964-1.357V46.6h6.245a4.257,4.257,0,0,0,4.257-4.257V21.057Z" transform="translate(-78.936 -21.056)" fill="url(#linear-gradient-5)"/>
      </g>
      <g id="mastercard" transform="translate(59 3.86)">
        <path id="Vector-6" data-name="Vector" d="M165.088,1715.532v.066h.061a.062.062,0,0,0,.032-.008.03.03,0,0,0,.012-.025.028.028,0,0,0-.012-.024.06.06,0,0,0-.032-.009h-.061Zm.062-.047a.115.115,0,0,1,.074.022.069.069,0,0,1,.026.058.067.067,0,0,1-.021.051.094.094,0,0,1-.058.025l.082.1h-.063l-.076-.1h-.025v.1h-.053v-.249h.115Zm-.016.335a.191.191,0,0,0,.08-.016.209.209,0,0,0,.066-.044.2.2,0,0,0,.044-.066.211.211,0,0,0,0-.163.207.207,0,1,0-.381.161.2.2,0,0,0,.044.066.212.212,0,0,0,.149.06m0-.478a.274.274,0,0,1,.191.079.265.265,0,0,1,.058.292.275.275,0,0,1-.058.085.294.294,0,0,1-.086.057.262.262,0,0,1-.106.021.267.267,0,0,1-.108-.021.284.284,0,0,1-.087-.057.28.28,0,0,1-.057-.088.265.265,0,0,1,.058-.293.254.254,0,0,1,.087-.057.269.269,0,0,1,.108-.021M140,1714.381a.808.808,0,1,1,.221.609.808.808,0,0,1-.221-.609m2.181,0v-1.347H141.6v.328a1.021,1.021,0,0,0-.851-.395,1.416,1.416,0,0,0,0,2.829,1.022,1.022,0,0,0,.851-.395v.327h.585v-1.347Zm19.794,0a.808.808,0,1,1,.221.609.808.808,0,0,1-.221-.609m2.182,0v-2.425h-.586v1.41a1.021,1.021,0,0,0-.851-.4,1.416,1.416,0,0,0,0,2.83,1.022,1.022,0,0,0,.851-.4v.327h.586Zm-14.7-.89a.669.669,0,0,1,.682.653h-1.4a.693.693,0,0,1,.716-.653m.011-.525a1.416,1.416,0,0,0,.039,2.829,1.639,1.639,0,0,0,1.1-.378l-.287-.434a1.285,1.285,0,0,1-.784.287.748.748,0,0,1-.806-.66h2c.006-.073.011-.146.011-.225a1.292,1.292,0,0,0-1.279-1.414m7.076,1.414a.808.808,0,1,1,.221.609.808.808,0,0,1-.221-.609m2.181,0v-1.346h-.585v.328a1.021,1.021,0,0,0-.851-.395,1.416,1.416,0,0,0,0,2.829,1.022,1.022,0,0,0,.851-.395v.327h.585v-1.347Zm-5.489,0a1.361,1.361,0,0,0,1.434,1.415,1.408,1.408,0,0,0,.969-.321l-.281-.478a1.185,1.185,0,0,1-.706.243.861.861,0,1,1,0-1.721,1.19,1.19,0,0,1,.706.243l.281-.473a1.409,1.409,0,0,0-.969-.321,1.361,1.361,0,0,0-1.434,1.414m7.554-1.414a.8.8,0,0,0-.71.4v-.326h-.58v2.694h.586v-1.51c0-.446.191-.693.574-.693a.95.95,0,0,1,.366.068l.181-.553a1.241,1.241,0,0,0-.418-.074m-15.7.287a2.018,2.018,0,0,0-1.1-.287c-.683,0-1.122.327-1.122.86,0,.439.327.71.93.795l.276.039c.321.045.472.13.472.287,0,.208-.213.327-.614.327a1.435,1.435,0,0,1-.9-.287l-.275.457a1.941,1.941,0,0,0,1.167.35c.778,0,1.229-.366,1.229-.879,0-.478-.355-.721-.941-.806l-.276-.04c-.253-.033-.457-.084-.457-.265,0-.2.191-.316.513-.316a1.738,1.738,0,0,1,.84.231l.253-.478Zm7.554-.281a.794.794,0,0,0-.71.395v-.327h-.58v2.694h.586v-1.51c0-.445.191-.693.574-.693a.95.95,0,0,1,.366.068l.181-.553a1.254,1.254,0,0,0-.417-.074m-5,.068h-.956v-.818h-.592v.818h-.547v.536h.546v1.229c0,.625.243,1,.935,1a1.375,1.375,0,0,0,.733-.208l-.169-.5a1.087,1.087,0,0,1-.518.152c-.293,0-.388-.181-.388-.451v-1.217h.956Zm-8.758,2.694v-1.691a1,1,0,0,0-1.06-1.071,1.044,1.044,0,0,0-.947.478.989.989,0,0,0-.89-.478.892.892,0,0,0-.789.4v-.333h-.586v2.694h.591v-1.494a.63.63,0,0,1,.66-.716c.389,0,.586.253.586.71v1.5h.592v-1.494a.636.636,0,0,1,.659-.716c.4,0,.591.253.591.71v1.5Z" transform="translate(-132.908 -1690.337)" fill="#231f20"/>
        <path id="Vector-7" data-name="Vector" d="M2507.953,1270.577v-.394h-.1l-.119.271-.118-.271h-.1v.394h.073v-.3l.111.256h.075l.111-.256v.3Zm-.651,0v-.327h.131v-.066h-.335v.066h.132v.327h.072Z" transform="translate(-2475.443 -1254.143)" fill="#f79410"/>
        <path id="Vector-8" data-name="Vector" d="M957.349,187.721h-8.878V171.767h8.878Z" transform="translate(-936.494 -169.599)" fill="#ff5f00"/>
        <path id="Vector-9" data-name="Vector" d="M12.54,10.145a10.129,10.129,0,0,1,3.875-7.977,10.146,10.146,0,1,0,0,15.954,10.129,10.129,0,0,1-3.875-7.977" transform="translate(0 0.001)" fill="#eb001b"/>
        <path id="Vector-10" data-name="Vector" d="M1316.354,10.145a10.146,10.146,0,0,1-16.416,7.977,10.147,10.147,0,0,0,0-15.954,10.146,10.146,0,0,1,16.416,7.977" transform="translate(-1283.521 0.001)" fill="#f79e1b"/>
      </g>
      <g id="visa" transform="translate(3 3.86)">
        <path id="Vector-11" data-name="Vector" d="M39.663,33.834a3.406,3.406,0,0,1-3.405,3.405H7.3A3.406,3.406,0,0,1,3.9,33.834V15.1A3.406,3.406,0,0,1,7.3,11.7H36.252A3.406,3.406,0,0,1,39.657,15.1Z" transform="translate(-3.899 -11.698)" fill="#1565c0"/>
        <path id="Vector-12" data-name="Vector" d="M16.571,24.7l-2.236,6.668s-.568-2.821-.624-3.175c-1.273-2.9-3.156-2.742-3.156-2.742l2.214,8.615H15.46L19.187,24.7ZM18.7,34.061H21.15L22.624,24.7H20.15ZM36,24.7H33.43l-4.01,9.365h2.428l.5-1.339h3.06l.26,1.339h2.224Zm-2.976,6.238L34.357,27.4l.7,3.538Zm-6.934-3.509c0-.516.424-.9,1.64-.9a3.858,3.858,0,0,1,1.7.574l.4-1.966a7.459,7.459,0,0,0-2.295-.439c-2.57,0-3.9,1.23-3.9,2.785,0,2.815,3.388,2.429,3.388,3.875,0,.248-.2.82-1.607.82a5.234,5.234,0,0,1-2.349-.518l-.422,1.887a5.743,5.743,0,0,0,2.654.516c1.753,0,4.185-1.311,4.185-3.195,0-2.264-3.39-2.428-3.39-3.442Z" transform="translate(-6.196 -16.181)" fill="#fff"/>
        <path id="Vector-13" data-name="Vector" d="M12.744,29.834l-.822-4.042a1.511,1.511,0,0,0-1.339-.876H6.8S11.621,26.339,12.744,29.834Z" transform="translate(-4.901 -16.258)" fill="#ffc107"/>
      </g>
      <g id="Vector-14" data-name="Vector" transform="translate(112 3.86)">
        <path id="Vector-15" data-name="Vector" d="M121.176,330.992H86.506a3.32,3.32,0,0,1-3.319-3.319v-18.9a3.32,3.32,0,0,1,3.319-3.319h34.67a3.32,3.32,0,0,1,3.319,3.319v18.9a3.32,3.32,0,0,1-3.318,3.32Z" transform="translate(-83.186 -305.451)" fill="#fff"/>
        <path id="Vector-16" data-name="Vector" d="M235.42,596.155a11.421,11.421,0,0,0-2.008-.065c-.021,0-.041.022-.054.03v4.889c.6-.006,1.185.02,1.77-.023a2.469,2.469,0,0,0,2.27-2.257,2.371,2.371,0,0,0-1.979-2.574Zm.7,3.358a1.79,1.79,0,0,1-1.817.636v-3.182a1.767,1.767,0,0,1,1.807.623,1.749,1.749,0,0,1,.006,1.925Zm27.312.451-.755-1.018c.1-.034.167-.057.239-.084a1.243,1.243,0,0,0,.746-.68,1.415,1.415,0,0,0-1.035-2.033,8.927,8.927,0,0,0-1.641-.063h-.357v4.905h.956v-1.92c.15-.058.176.057.223.125.407.6.812,1.2,1.214,1.8H264.2Zm-1.842-1.61v-1.485c.39-.013.78-.053,1.065.287a.8.8,0,0,1,.031.851C262.418,598.4,262.012,598.362,261.587,598.354Zm-4.315,2.638h2.7v-.806c-.587-.033-1.166.02-1.745-.024v-1.311h1.668v-.839h-1.658v-1.084h1.737v-.83h-2.7Zm-2.825-1.609-1.3-3.28h-1.067l2.088,5.024h.52l2.126-5.032h-1.052Zm-12.758-1.177a4.648,4.648,0,0,0-.449-.191,4.735,4.735,0,0,1-.558-.237.447.447,0,0,1-.28-.451.478.478,0,0,1,.334-.421.922.922,0,0,1,.992.151c.053.043.086.116.181.127l.478-.6a2.032,2.032,0,0,0-2.183-.4,1.345,1.345,0,0,0-.8,1.243,1.165,1.165,0,0,0,.778,1.156c.167.075.337.141.506.21s.343.129.508.207a.589.589,0,0,1,.369.611.635.635,0,0,1-.446.587,1.092,1.092,0,0,1-1.148-.318c-.074-.082-.136-.174-.191-.249l-.594.585a1.951,1.951,0,0,0,2.191.856,1.53,1.53,0,0,0,1.181-1.4,1.31,1.31,0,0,0-.866-1.466Zm2.711,1.641a1.785,1.785,0,0,1-.287-2.225,1.555,1.555,0,0,1,.876-.686,1.583,1.583,0,0,1,1.661.454v-1.1a2.572,2.572,0,0,0-3.267,3.819,2.657,2.657,0,0,0,3.26.728,3.748,3.748,0,0,0-.026-1.085,1.626,1.626,0,0,1-2.217.1Zm-6.547,1.147h.929v-4.9h-.929Z" transform="translate(-228.026 -585.676)"/>
        <path id="Vector-17" data-name="Vector" d="M620.656,597.87m-2.6,0a2.6,2.6,0,1,0,2.6-2.6,2.6,2.6,0,0,0-2.6,2.6Z" transform="translate(-599.078 -584.986)" fill="#f07824"/>
        <path id="Vector-18" data-name="Vector" d="M1096.863,602.544h-.177v.364h.075v-.153h.1l.133.153h.084l-.142-.159c.074-.012.124-.046.124-.1C1097.059,602.573,1096.977,602.544,1096.863,602.544Zm-.1.172v-.133h.1c.086,0,.133.016.133.064s-.047.069-.133.069Z" transform="translate(-1060.737 -592.006)"/>
        <path id="Vector-19" data-name="Vector" d="M1091.565,596.669a.391.391,0,1,0,.391.391A.391.391,0,0,0,1091.565,596.669Zm0,.73a.339.339,0,1,1,.338-.339A.339.339,0,0,1,1091.565,597.4Z" transform="translate(-1055.421 -586.34)"/>
        <path id="Vector-20" data-name="Vector" d="M471.88,725.778c-4.082,3.471-19.4,8.769-28.534,10.632H468.56a3.32,3.32,0,0,0,3.319-3.319Z" transform="translate(-430.571 -710.868)" fill="#f07824"/>
      </g>
      <g id="maestro" transform="translate(169.743 5.154)">
        <g id="Group_13409" data-name="Group 13409" transform="translate(3.257 -1.295)">
          <path id="Path_160914" data-name="Path 160914" d="M37.03,102.8a2.189,2.189,0,0,1-2.189,2.189H2.189A2.189,2.189,0,0,1,0,102.8V81.64a2.189,2.189,0,0,1,2.189-2.189H34.841A2.189,2.189,0,0,1,37.03,81.64Z" transform="translate(0 -79.451)" fill="#306fc5"/>
          <path id="Path_160915" data-name="Path 160915" d="M1.556,102.8V81.64a2.189,2.189,0,0,1,2.189-2.189H2.189A2.189,2.189,0,0,0,0,81.64V102.8a2.189,2.189,0,0,0,2.189,2.189H3.745A2.189,2.189,0,0,1,1.556,102.8Z" transform="translate(0 -79.451)" fill="#202121" opacity="0.15"/>
          <path id="Path_160916" data-name="Path 160916" d="M74.59,202.686H75.7l-.553-1.408Zm5.884,4.727v.654h1.861v.7H80.474v.755h2.062l.955-1.056-.905-1.056Zm14.534-6.135-.6,1.408h1.157Zm-9.153,8.65v-2.866l-1.308,1.408Zm2.464-2.062a.508.508,0,0,0-.554-.453H86.71v.905h1.106C88.118,208.318,88.319,208.168,88.319,207.866Zm3.52.352a.392.392,0,0,0,.151-.352.28.28,0,0,0-.151-.352.978.978,0,0,0-.4-.05H90.431v.8h1.006A.979.979,0,0,0,91.839,208.218Z" transform="translate(-69.195 -192.467)" fill="#fff"/>
          <path id="Path_160917" data-name="Path 160917" d="M63.976,183.2v.6l-.3-.6H61.311v.6l-.3-.6H57.79a3.061,3.061,0,0,0-1.408.3v-.3H54.119v.3a1.45,1.45,0,0,0-.955-.3h-8.1l-.553,1.257-.553-1.257H41.4v.6l-.251-.6H38.932l-1.006,2.364-1.157,2.565-.021.05h2.618l.018-.05.3-.754h.654l.3.8h2.917v-.6l.252.6h1.458l.251-.6v.6h6.99v-1.308h.1c.1,0,.1,0,.1.151v1.106h3.621v-.3a3.008,3.008,0,0,0,1.358.3H59.2l.3-.8h.7l.3.8h2.917v-.754l.453.754h2.364V183.2Zm-17.048,4.225h-.8v-2.766l-.05.115h0l-1.17,2.652h-.741l-1.207-2.766v2.766h-1.71l-.352-.754h-1.71l-.352.754h-.884l1.488-3.52h1.257l1.408,3.369V183.9h1.332l.024.05h0l.634,1.381.456,1.035.016-.052L45.57,183.9h1.358v3.52Zm3.47-2.766H48.437v.654h1.911v.7H48.437v.7H50.4v.754H47.582V183.9H50.4Zm3.587,1.3,0,0a.575.575,0,0,1,.049.06.967.967,0,0,1,.178.59v.014s0,.005,0,.008v0c0,.028,0,.056,0,.087v.7h-.754v-.4a1.2,1.2,0,0,0-.151-.7.458.458,0,0,0-.148-.1,1,1,0,0,0-.455-.05h-.905v1.257h-.855V183.9h1.911a1.928,1.928,0,0,1,1.006.151.85.85,0,0,1,.4.782,1,1,0,0,1-.6.928.673.673,0,0,1,.318.19Zm1.693,1.469h-.855V183.9h.855Zm9.807,0H64.378l-1.609-2.665v2.213l-.005-.005v.46h-.85v0h-.855l-.3-.754H59l-.3.8H57.74a1.512,1.512,0,0,1-1.659-1.76,2.062,2.062,0,0,1,.452-1.408,1.584,1.584,0,0,1,1.257-.4h.8v.754h-.8a.927.927,0,0,0-.654.2,1.182,1.182,0,0,0-.251.8,1.1,1.1,0,0,0,.251.855.8.8,0,0,0,.6.2h.352l1.157-2.766h1.257l1.408,3.369v-3.369h1.257l1.458,2.464v-2.464h.855v3.47h0Z" transform="translate(-34.09 -175.695)" fill="#fff"/>
          <path id="Path_160918" data-name="Path 160918" d="M143.2,204.076a.27.27,0,0,0,.039-.054.544.544,0,0,0,.07-.379.281.281,0,0,0-.008-.046s0-.008,0-.012h0a.282.282,0,0,0-.153-.171.985.985,0,0,0-.4-.05h-1.006v.8h1.006a.98.98,0,0,0,.4-.05.191.191,0,0,0,.042-.03h0l.012-.013Zm15.184,7.083a1.927,1.927,0,0,0-.251-.956v-2.263h0v-.151h-2.422a1.431,1.431,0,0,0-.694.3v-.3H152.7a1.6,1.6,0,0,0-1.006.3v-.3h-4.124v.3a1.945,1.945,0,0,0-1.106-.3h-2.716v.3a1.91,1.91,0,0,0-1.157-.3h-3.017l-.7.754-.654-.754H133.7v5.08h4.425l.727-.727.63.727h2.816v-1.157h.252a3.055,3.055,0,0,0,1.157-.151v1.358h2.263v-1.308h.1c.151,0,.151,0,.151.151v1.157h6.839a1.971,1.971,0,0,0,1.157-.3v.3h2.163a2.258,2.258,0,0,0,1.207-.252,1.689,1.689,0,0,0,.8-1.356c0-.017,0-.035.006-.052l0,0C158.386,211.224,158.387,211.192,158.387,211.159Zm-15.841-.3H141.54v1.307h-1.653l-.962-1.107,0,0-.047-.054-1.106,1.157H134.55v-3.52h3.269l.893.978.188.2.025-.026,1.056-1.157h2.665a1.305,1.305,0,0,1,1.316.654,1.422,1.422,0,0,1,.042.352C144,210.656,143.3,210.857,142.546,210.857Zm5.029-.05a1.141,1.141,0,0,1,.151.654v.7h-.855v-.452a1.122,1.122,0,0,0-.151-.7c-.1-.15-.3-.15-.6-.15h-.905v1.307h-.855v-3.571h1.911a2.028,2.028,0,0,1,1.006.151.89.89,0,0,1,.452.8,1,1,0,0,1-.6.956A.857.857,0,0,1,147.575,210.807Zm3.47-1.459h-1.962V210h1.911v.7h-1.911v.7h1.962v.754h-2.816v-3.571h2.816Zm2.112,2.817h-1.609v-.754h1.609a.425.425,0,0,0,.352-.1.365.365,0,0,0,0-.5.427.427,0,0,0-.3-.1c-.8-.05-1.76,0-1.76-1.106,0-.5.3-1.056,1.207-1.056h1.659v.855h-1.559a.746.746,0,0,0-.352.05c-.1.05-.1.151-.1.252,0,.151.1.2.2.251a.637.637,0,0,0,.3.05h.453a1.28,1.28,0,0,1,.955.3,1.041,1.041,0,0,1,.252.754C154.465,211.813,154.012,212.165,153.157,212.165Zm4.325-.352a1.465,1.465,0,0,1-1.056.352h-1.609v-.754h1.609a.424.424,0,0,0,.352-.1.364.364,0,0,0,0-.5.425.425,0,0,0-.3-.1c-.8-.05-1.76,0-1.76-1.106a1.028,1.028,0,0,1,.948-1.038,1.876,1.876,0,0,1,.259-.018h1.66v.855h-1.559a.744.744,0,0,0-.352.05.383.383,0,0,0-.1.252c0,.151.05.2.2.251a.636.636,0,0,0,.3.05h.452a1.571,1.571,0,0,1,.538.081,1.083,1.083,0,0,1,.7.8,1.129,1.129,0,0,1,.016.18A1.023,1.023,0,0,1,157.482,211.813Z" transform="translate(-124.026 -194.402)" fill="#fff"/>
        </g>
      </g>
    </g>
  </g>
</svg>
