<svg id="icon_download_white" xmlns="http://www.w3.org/2000/svg" xmlns:xlink="http://www.w3.org/1999/xlink" width="24" height="24" viewBox="0 0 24 24">
  <defs>
    <clipPath id="clip-path">
      <rect id="_1" data-name="1" width="24" height="24" transform="translate(-0.441)" fill="#fff" stroke="#707070" stroke-width="1"/>
    </clipPath>
  </defs>
  <g id="icon_download_white-2" data-name="icon_download_white" transform="translate(0.441)" clip-path="url(#clip-path)">
    <path id="_1-2" data-name="1" d="M19.17,10.136l-4.51,4.51V.716a1.039,1.039,0,1,0-2.078,0v13.93l-4.508-4.51A1.039,1.039,0,0,0,6.6,11.605l6.283,6.283a1.011,1.011,0,0,0,.341.225l.016,0a1.013,1.013,0,0,0,.758,0l.016,0a1.069,1.069,0,0,0,.341-.225l6.283-6.283a1.04,1.04,0,1,0-1.471-1.469Zm1.768,8.16H6.3a1.039,1.039,0,1,0,0,2.078H20.939a1.039,1.039,0,0,0,0-2.078Z" transform="translate(-1.446 2.149)" fill="#fff"/>
  </g>
</svg>
