<svg id="icon_win_download" xmlns="http://www.w3.org/2000/svg" xmlns:xlink="http://www.w3.org/1999/xlink" width="20" height="20" viewBox="0 0 20 20">
  <g id="icon_download" transform="translate(2.321 1.643)" clip-path="url(#clip-path)">
    <path id="_1-2" data-name="1" d="M14.81,6.856l-3.1,3.1V.39a.713.713,0,0,0-1.426,0V9.952l-3.094-3.1A.713.713,0,0,0,6.185,7.864L10.5,12.177a.694.694,0,0,0,.234.155l.011,0a.7.7,0,0,0,.52,0l.011,0a.734.734,0,0,0,.234-.155L15.82,7.864a.714.714,0,0,0-1.01-1.008Zm1.214,5.6H5.978a.713.713,0,1,0,0,1.426H16.023a.713.713,0,0,0,0-1.426Z" transform="translate(-2.643 1.576)" stroke="#707070" stroke-width="0.032"/>
  </g>
</svg>
