<svg xmlns="http://www.w3.org/2000/svg" xmlns:xlink="http://www.w3.org/1999/xlink" width="20" height="20" viewBox="0 0 20 20">
  <defs>
    <clipPath id="clip-path">
      <rect id="_1" data-name="1" width="20" height="20" transform="translate(0)" stroke="#707070" stroke-width="1"/>
    </clipPath>
  </defs>
  <g id="icon_download" transform="translate(0)" clip-path="url(#clip-path)">
    <path id="_1-2" data-name="1" d="M16.494,8.123l-3.642,3.642V.516a.839.839,0,0,0-1.678,0V11.765L7.533,8.123A.839.839,0,0,0,6.347,9.309l5.074,5.074a.817.817,0,0,0,.275.182l.013,0a.818.818,0,0,0,.612,0l.013,0a.864.864,0,0,0,.275-.182l5.074-5.074a.84.84,0,0,0-1.188-1.186Zm1.428,6.589H6.1a.839.839,0,1,0,0,1.678H17.922a.839.839,0,0,0,0-1.678Z" transform="translate(-1.981 0.967)"/>
  </g>
</svg>
