<svg xmlns="http://www.w3.org/2000/svg" xmlns:xlink="http://www.w3.org/1999/xlink" width="53" height="53" viewBox="0 0 53 53">
  <defs>
    <clipPath id="clip-path">
      <rect id="矩形_31728" data-name="矩形 31728" width="53" height="53" fill="#d50707" stroke="#707070" stroke-width="1"/>
    </clipPath>
  </defs>
  <g id="icon_win_delete" clip-path="url(#clip-path)">
    <g id="垃圾桶_7_" data-name="垃圾桶 (7)" transform="translate(3.433 5.494)">
      <path id="路径_175516" data-name="路径 175516" d="M29.324,38.291H12.845a9.211,9.211,0,0,1-8.754-8.96V8.423a2.06,2.06,0,0,1,4.12,0V29.331a5.185,5.185,0,0,0,4.635,4.841H29.324c2.266,0,3.6-2.472,3.6-4.841V8.423a2.06,2.06,0,0,1,4.12,0V29.331c0,4.429-2.884,8.96-7.724,8.96Z" transform="translate(2.089 2.906)" fill="#d50707"/>
      <path id="路径_175517" data-name="路径 175517" d="M44.621,14.632H3.423a2.06,2.06,0,1,1,0-4.12h41.2a2.06,2.06,0,1,1,0,4.12ZM36.381,6.392H11.663a2.06,2.06,0,1,1,0-4.12H36.381a2.06,2.06,0,0,1,0,4.12Z" transform="translate(-1.364 -2.273)" fill="#d50707"/>
      <path id="路径_175518" data-name="路径 175518" d="M18.936,25.115a2.066,2.066,0,0,1-2.06-2.06V10.7a2.06,2.06,0,1,1,4.12,0V23.055A2.066,2.066,0,0,1,18.936,25.115Zm-8.239,0a2.066,2.066,0,0,1-2.06-2.06V10.7a2.06,2.06,0,1,1,4.12,0V23.055A2.066,2.066,0,0,1,10.7,25.115Z" transform="translate(7.842 5.783)" fill="#d50707"/>
    </g>
  </g>
</svg>
