<svg id="icon_win_Share" xmlns="http://www.w3.org/2000/svg" xmlns:xlink="http://www.w3.org/1999/xlink" width="20" height="20" viewBox="0 0 20 20">
  <g id="icon_share" transform="translate(1.964 1.643)" clip-path="url(#clip-path)">
    <path id="_1-2" data-name="1" d="M13.952,7.7a2.944,2.944,0,0,1-2.189-.979L8.439,8.648a3.279,3.279,0,0,1,.14.868,3.19,3.19,0,0,1-.326,1.373l3.2,1.862a3.04,3.04,0,1,1-.466,1.627,2.406,2.406,0,0,1,.031-.332l-3.634-2.1.015-.016a2.881,2.881,0,0,1-1.8.631,3.039,3.039,0,0,1-.016-6.077,2.943,2.943,0,0,1,2.19.978l3.324-1.926a3.273,3.273,0,0,1-.14-.868,2.99,2.99,0,1,1,3,3.031Zm0,8.508a1.816,1.816,0,1,0-1.786-1.815A1.8,1.8,0,0,0,13.952,16.209ZM5.581,7.7A1.816,1.816,0,1,0,7.367,9.516,1.8,1.8,0,0,0,5.581,7.7Zm8.371-4.862a1.816,1.816,0,1,0,1.786,1.815A1.8,1.8,0,0,0,13.952,2.839Zm0,0" transform="translate(-2.346 -1.159)" fill="black"/>
  </g>
</svg>
