<svg xmlns="http://www.w3.org/2000/svg" xmlns:xlink="http://www.w3.org/1999/xlink" width="28" height="28" viewBox="0 0 28 28">
  <defs>
    <clipPath id="clip-path">
      <rect id="矩形_3336" data-name="矩形 3336" width="17.504" height="17.502" fill="#1faea9"/>
    </clipPath>
  </defs>
  <g id="组_14067" data-name="组 14067" transform="translate(-727 -312)">
    <g id="矩形_3316" data-name="矩形 3316" transform="translate(727 312)" fill="none" stroke="#1faea9" stroke-width="1">
      <rect width="28" height="28" rx="2" stroke="none"/>
      <rect x="0.5" y="0.5" width="27" height="27" rx="1.5" fill="none"/>
    </g>
    <g id="组_12920" data-name="组 12920" transform="translate(732 317)">
      <g id="组_12919" data-name="组 12919" clip-path="url(#clip-path)">
        <path id="路径_16204" data-name="路径 16204" d="M3.366,0A3.366,3.366,0,0,0,0,3.366v9.421a3.35,3.35,0,0,0,.557,1.857l5.9-5.9a2.289,2.289,0,0,1,3.236,0l.458.458,2.811-2.81a3.446,3.446,0,0,1,3.189-.928v-2.1A3.366,3.366,0,0,0,12.787,0Zm9.421,4.713a1.349,1.349,0,0,1-2.7.085c0-.028,0-.057,0-.085a1.349,1.349,0,0,1,2.7,0m2.375,2.028a2.087,2.087,0,0,0-1.247.6l-5.77,5.773a3.77,3.77,0,0,0-.983,1.737l-.409,1.629a.821.821,0,0,0,1,1l1.629-.408a3.77,3.77,0,0,0,1.737-.983l5.773-5.773a2.1,2.1,0,0,0-1.723-3.573M9.2,10.152l-2.01,2.01a5.116,5.116,0,0,0-1.338,2.363l-.407,1.628H3.366A3.357,3.357,0,0,1,1.509,15.6l5.9-5.9a.942.942,0,0,1,1.333,0Z" fill="#1faea9"/>
      </g>
    </g>
  </g>
</svg>
