<svg id="icon_big_coins" xmlns="http://www.w3.org/2000/svg" width="48" height="48" viewBox="0 0 48 48">
  <path id="路径_175507" data-name="路径 175507" d="M19.34,14A6.087,6.087,0,0,0,19,16v9.64A34.014,34.014,0,0,1,14,26C7.04,26,0,23.94,0,20V14Z" transform="translate(0 14)" fill="#ffc107"/>
  <path id="路径_175508" data-name="路径 175508" d="M20.52,13a6.066,6.066,0,0,0-.98,1.54,1.834,1.834,0,0,0-.18.46h-.02A6.087,6.087,0,0,0,19,17v5.64A34.014,34.014,0,0,1,14,23C7.04,23,0,20.94,0,17V13Z" transform="translate(0 13)" fill="#ffd54f"/>
  <path id="路径_175509" data-name="路径 175509" d="M28,10v1.82c-3.36.84-5.96,2.3-7.48,4.18a6.066,6.066,0,0,0-.98,1.54,1.834,1.834,0,0,0-.18.46h-.02A6.087,6.087,0,0,0,19,20v1.64A34.014,34.014,0,0,1,14,22C8.34,22,2.6,20.64.68,18A3.309,3.309,0,0,1,0,16V10Z" transform="translate(0 10)" fill="#ffc107"/>
  <path id="路径_175510" data-name="路径 175510" d="M28,9v3.82c-3.36.84-5.96,2.3-7.48,4.18a6.066,6.066,0,0,0-.98,1.54A33.042,33.042,0,0,1,14,19,25.8,25.8,0,0,1,3.3,17C1.28,16.02,0,14.68,0,13V9Z" transform="translate(0 9)" fill="#ffd54f"/>
  <path id="路径_175511" data-name="路径 175511" d="M0,6v6c0,3.94,7.042,6,14,6s14-2.06,14-6V6Z" transform="translate(0 6)" fill="#ffc107"/>
  <path id="路径_175512" data-name="路径 175512" d="M0,5V9c0,3.94,7.042,6,14,6s14-2.06,14-6V5Z" transform="translate(0 5)" fill="#ffd54f"/>
  <path id="路径_175513" data-name="路径 175513" d="M0,3V7c0,3.94,7.042,6,14,6s14-2.06,14-6V3Z" transform="translate(0 3)" fill="#ffc107"/>
  <path id="路径_175514" data-name="路径 175514" d="M28,6c0,3.314-6.268,6-14,6S0,9.314,0,6,6.268,0,14,0,28,2.686,28,6Z" fill="#ffd54f"/>
  <path id="路径_175515" data-name="路径 175515" d="M11,18v6c0,3.94,6.54,6,13,6s13-2.06,13-6V18Z" transform="translate(11 18)" fill="#ffc107"/>
  <path id="路径_175516" data-name="路径 175516" d="M11,17v4c0,3.94,6.54,6,13,6s13-2.06,13-6V17Z" transform="translate(11 17)" fill="#ffd54f"/>
  <path id="路径_175517" data-name="路径 175517" d="M11,15v4c0,3.94,6.54,6,13,6s13-2.06,13-6V15Z" transform="translate(11 15)" fill="#ffc107"/>
  <path id="路径_175518" data-name="路径 175518" d="M37,18c0,3.314-5.82,6-13,6s-13-2.686-13-6,5.82-6,13-6S37,14.686,37,18Z" transform="translate(11 12)" fill="#ffd54f"/>
</svg>
