<svg xmlns="http://www.w3.org/2000/svg" width="55.993" height="56.003" viewBox="0 0 55.993 56.003">
  <g id="Discord_off" transform="translate(-15.796 -609.787)">
    <path id="Subtraction_16" data-name="Subtraction 16" d="M28,56A27.973,27.973,0,0,1,0,28v-.009A28,28,0,0,1,53.8,17.1a27.822,27.822,0,0,1,2.2,10.9V28A27.973,27.973,0,0,1,28,56ZM38.966,34.272h0a8.946,8.946,0,0,1-5.051,3.39c.585.751,1.205,1.528,1.845,2.308a11.155,11.155,0,0,0,6.583-2.242A8.2,8.2,0,0,0,44.3,35.638,39.1,39.1,0,0,0,40.28,19.02a13.7,13.7,0,0,0-7.813-2.993h-.03l-.391.456A18.636,18.636,0,0,1,39,20.105a22.318,22.318,0,0,0-8.4-2.736,23.166,23.166,0,0,0-5.638.055,2.34,2.34,0,0,0-.4.043l-.07.011a20.484,20.484,0,0,0-6.338,1.8c-1.02.478-1.641.825-1.647.828l0-.006a19.168,19.168,0,0,1,7.337-3.729l-.28-.343h-.03a13.7,13.7,0,0,0-7.813,2.995A39,39,0,0,0,11.7,35.637a8.078,8.078,0,0,0,1.943,2.091,11.088,11.088,0,0,0,6.572,2.241c0-.005,1.031-1.281,1.872-2.363A8.8,8.8,0,0,1,17.2,34.239c.006,0,.29.209.778.487l.006.006a.328.328,0,0,0,.105.077,1,1,0,0,0,.134.077,1.109,1.109,0,0,1,.119.067,16.078,16.078,0,0,0,2.036.969,22.955,22.955,0,0,0,4.106,1.227,19.156,19.156,0,0,0,7.231.027,18.082,18.082,0,0,0,4.045-1.224A16.04,16.04,0,0,0,38.966,34.272Zm-5.914-1.667a2.722,2.722,0,1,1,2.92-2.714A2.825,2.825,0,0,1,33.053,32.605Zm-10.444,0a2.722,2.722,0,1,1,0-5.429,3.053,3.053,0,0,1,2.173.888,2.531,2.531,0,0,1,.745,1.827A2.825,2.825,0,0,1,22.609,32.605Z" transform="translate(15.793 609.79)" fill="#8c8c97"/>
  </g>
</svg>
