<svg xmlns="http://www.w3.org/2000/svg" width="56" height="56" viewBox="0 0 56 56">
  <g id="Linkedln_off" transform="translate(-15.358 -609.355)">
    <path id="Subtraction_14" data-name="Subtraction 14" d="M28,56A28.007,28.007,0,0,1,17.1,2.2,28.007,28.007,0,0,1,38.9,53.8,27.826,27.826,0,0,1,28,56Zm6.672-30.077c1.874,0,2.864,1.33,2.864,3.847v9.1h5.654V29.112c0-4.794-2.433-7.656-6.509-7.656-.074,0-.15,0-.224,0a5.649,5.649,0,0,0-4.871,2.805v-2.4H25.928c.064,1.386.017,13.231,0,16.828v.18h5.654v-9.5a3.888,3.888,0,0,1,.187-1.372A3.1,3.1,0,0,1,34.672,25.923ZM17.144,21.855V38.867H22.8V21.855Zm3.088-8.213c-.074,0-.149,0-.222.008a2.956,2.956,0,0,0-2.278,5.09,2.914,2.914,0,0,0,2.006.795c.07,0,.137,0,.2-.006h.037a2.949,2.949,0,1,0,.259-5.887Z" transform="translate(15.358 609.355)" fill="#8c8c97"/>
  </g>
</svg>
