<svg xmlns="http://www.w3.org/2000/svg" xmlns:xlink="http://www.w3.org/1999/xlink" width="42" height="42" viewBox="0 0 42 42">
  <defs>
    <clipPath id="clip-path">
      <rect id="Rectangle_31657" data-name="Rectangle 31657" width="42" height="42" rx="21" fill="#353841"/>
    </clipPath>
  </defs>
  <g id="btn_link_hover" clip-path="url(#clip-path)">
    <rect id="Rectangle_30548" data-name="Rectangle 30548" width="42" height="42" rx="21" fill="#4b505b"/>
    <path id="Path_160912" data-name="Path 160912" d="M18.047,21.478a4.747,4.747,0,0,0-.485-.419h0a.963.963,0,0,0-1.406,1.313h0a.967.967,0,0,0,.238.2c.091.075.18.149.263.232l.079.079a2.7,2.7,0,0,1-.3,3.714l-4.261,4.259a2.564,2.564,0,0,1-3.62,0l-.08-.08a2.56,2.56,0,0,1,0-3.619l1.882-1.882A1.046,1.046,0,0,0,9.122,23.6l0,0-.02.019a1.053,1.053,0,0,0-.2.186l-1.956,1.83a4.742,4.742,0,0,0,0,6.687l.079.079a4.743,4.743,0,0,0,6.686,0l4.259-4.261a4.617,4.617,0,0,0,.156-6.577Z" transform="translate(5.435 -2.771)" fill="#fffdf5"/>
    <path id="Path_160913" data-name="Path 160913" d="M31.277,7.159,31.2,7.08a4.741,4.741,0,0,0-6.686,0L20.252,11.34a4.327,4.327,0,0,0-.1,6.334l.078.077c.084.083.17.162.259.238a.914.914,0,0,0,.223.181l0,0h0a.91.91,0,0,0,1.272-1.184h0a1.989,1.989,0,0,0-.5-.59l-.078-.077c-1-1-.619-2.449.379-3.447l4.262-4.259a2.56,2.56,0,0,1,3.618,0l.079.078a2.563,2.563,0,0,1,0,3.621L27.868,14.19a1.038,1.038,0,0,0,1.161,1.718l0,.006.029-.027a1.043,1.043,0,0,0,.236-.218l1.977-1.825A4.74,4.74,0,0,0,31.277,7.159Z" transform="translate(-1.656 5.299)" fill="#fffdf5"/>
  </g>
</svg>
