<svg xmlns="http://www.w3.org/2000/svg" xmlns:xlink="http://www.w3.org/1999/xlink" width="200" height="90" viewBox="0 0 200 90">
  <defs>
    <clipPath id="clip-path">
      <rect id="Rectangle_30343" data-name="Rectangle 30343" width="200" height="90" transform="translate(415 216)" fill="#fff" stroke="#707070" stroke-width="1"/>
    </clipPath>
  </defs>
  <g id="ico_send_email_in" transform="translate(-415 -216)" clip-path="url(#clip-path)">
    <g id="Group_5589" data-name="Group 5589" transform="translate(-3629.074 -6045.241)">
      <g id="Group_5554" data-name="Group 5554" transform="translate(4049.998 6283.409)">
        <g id="Group_5553" data-name="Group 5553">
          <path id="Path_24396" data-name="Path 24396" d="M4096.744,6340.834a.5.5,0,0,1-.5-.44,38.268,38.268,0,0,0-.925-4.856.5.5,0,1,1,.97-.248,38.887,38.887,0,0,1,.95,4.984.5.5,0,0,1-.438.558A.412.412,0,0,1,4096.744,6340.834Zm-3.028-11.262a.5.5,0,0,1-.466-.313c-.6-1.506-1.288-3.032-2.037-4.534a.5.5,0,1,1,.9-.448c.761,1.527,1.459,3.078,2.071,4.608a.5.5,0,0,1-.278.652A.493.493,0,0,1,4093.715,6329.572Zm-30.452-3.7a.5.5,0,0,1-.027-1,17.063,17.063,0,0,0,4.755-.963.5.5,0,0,1,.337.945,18.048,18.048,0,0,1-5.036,1.019Zm-6.541-1.046a.52.52,0,0,1-.2-.04,10.853,10.853,0,0,1-4.19-3.077.5.5,0,1,1,.774-.637,9.87,9.87,0,0,0,3.81,2.792.5.5,0,0,1-.2.962Zm17.167-3.312a.5.5,0,0,1-.386-.183.5.5,0,0,1,.067-.705,30.071,30.071,0,0,0,3.51-3.452.5.5,0,1,1,.754.659,31.1,31.1,0,0,1-3.626,3.566A.505.505,0,0,1,4073.889,6321.512Zm115.2-1.977h-.021c-.193-.01-.387-.019-.579-.031a27.566,27.566,0,0,1-4.468-.658.5.5,0,1,1,.226-.977,26.562,26.562,0,0,0,4.306.635c.185.012.372.022.558.029a.5.5,0,0,1-.021,1Zm-100.711-.351a.5.5,0,0,1-.423-.233c-.905-1.426-1.859-2.8-2.834-4.081a.5.5,0,0,1,.8-.606c.992,1.306,1.962,2.7,2.883,4.15a.5.5,0,0,1-.423.771Zm107.353-.184a.5.5,0,0,1-.1-.993,34.119,34.119,0,0,0,4.753-1.317.5.5,0,1,1,.333.945,35.51,35.51,0,0,1-4.893,1.356A.545.545,0,0,1,4195.728,6319Zm-17.885-2.357a.48.48,0,0,1-.214-.049,41.489,41.489,0,0,1-4.436-2.452.5.5,0,1,1,.536-.848,40.069,40.069,0,0,0,4.329,2.395.5.5,0,0,1-.214.954Zm-127.341-.92a.5.5,0,0,1-.5-.492c0-.073,0-.147,0-.221a12.985,12.985,0,0,1,.98-4.866.5.5,0,0,1,.928.38,11.973,11.973,0,0,0-.905,4.486c0,.067,0,.135,0,.2a.5.5,0,0,1-.492.511Zm156.157-.753a.5.5,0,0,1-.231-.944c1.393-.729,2.806-1.535,4.318-2.47a.5.5,0,0,1,.526.854c-1.532.946-2.965,1.766-4.38,2.5A.525.525,0,0,1,4206.659,6314.971Zm-125.157-2.282a.489.489,0,0,1-.282-.088.5.5,0,0,1-.13-.7c.791-1.151,1.572-2.339,2.329-3.488l.444-.675a.5.5,0,1,1,.837.55l-.444.676c-.758,1.152-1.542,2.346-2.339,3.5A.5.5,0,0,1,4081.5,6312.688Zm86.552-2.392a.5.5,0,0,1-.317-.112c-1.237-1.007-2.482-2.088-3.807-3.306a.5.5,0,1,1,.678-.738c1.31,1.205,2.541,2.273,3.763,3.267a.5.5,0,0,1-.317.89Zm-86.94-.247a.5.5,0,0,1-.349-.142,32.114,32.114,0,0,0-3.782-3.161.5.5,0,1,1,.578-.818,33.132,33.132,0,0,1,3.9,3.261.5.5,0,0,1-.349.86Zm135.464-1.259a.5.5,0,0,1-.289-.912c1.424-1,2.824-2.015,3.885-2.789a.5.5,0,0,1,.591.81c-1.064.777-2.469,1.8-3.9,2.8A.5.5,0,0,1,4216.578,6308.791Zm-161.139-3.211a.5.5,0,0,1-.3-.9,14.792,14.792,0,0,1,4.6-2.327.5.5,0,0,1,.294.96,13.766,13.766,0,0,0-4.294,2.166A.5.5,0,0,1,4055.439,6305.58Zm15.942-1.847a.5.5,0,0,1-.168-.029l-.335-.117a18.708,18.708,0,0,0-4.422-.917.5.5,0,0,1,.084-1,19.684,19.684,0,0,1,4.659.968c.117.039.234.08.351.121a.5.5,0,0,1-.168.974Zm16.688-.721a.5.5,0,0,1-.4-.8c1.023-1.4,2.059-2.746,3.074-3.991a.5.5,0,0,1,.777.636c-1,1.229-2.028,2.559-3.041,3.947A.5.5,0,0,1,4088.069,6303.013Zm71.406-.658a.5.5,0,0,1-.356-.148c-.381-.387-.768-.782-1.183-1.209l-.2-.2c-.692-.712-1.41-1.45-2.122-2.177a.5.5,0,0,1,.716-.7c.713.729,1.431,1.468,2.125,2.182l.2.2c.414.426.8.818,1.177,1.2a.5.5,0,0,1-.357.854Zm-8.25-8.289a.5.5,0,0,1-.345-.137c-1.306-1.239-2.518-2.331-3.7-3.337a.5.5,0,1,1,.649-.764c1.2,1.019,2.421,2.122,3.742,3.373a.5.5,0,0,1-.345.864Zm-55.648,0a.5.5,0,0,1-.357-.853c1.209-1.229,2.452-2.389,3.693-3.448a.5.5,0,1,1,.651.763c-1.218,1.04-2.441,2.182-3.63,3.389A.493.493,0,0,1,4095.576,6294.062Zm9.015-7.407a.5.5,0,0,1-.27-.924,42.577,42.577,0,0,1,4.428-2.468.5.5,0,1,1,.434.9,41.615,41.615,0,0,0-4.322,2.408A.5.5,0,0,1,4104.591,6286.654Zm37.607,0a.507.507,0,0,1-.28-.086,42.1,42.1,0,0,0-4.251-2.529.5.5,0,1,1,.458-.891,43.008,43.008,0,0,1,4.354,2.588.5.5,0,0,1-.28.918Zm-26.994-4.807a.5.5,0,0,1-.135-.984,34.954,34.954,0,0,1,4.978-1.02.5.5,0,0,1,.126,1,33.515,33.515,0,0,0-4.832.991A.553.553,0,0,1,4115.2,6281.847Zm16.492-.208a.543.543,0,0,1-.135-.019c-.891-.249-1.8-.455-2.7-.614-.7-.123-1.42-.222-2.137-.29a.5.5,0,1,1,.094-1c.744.071,1.489.173,2.217.3.929.165,1.867.378,2.79.636a.5.5,0,0,1-.134.984Z" transform="translate(-4049.999 -6279.715)" fill="#92acff" stroke="#9989ff" stroke-linecap="round" stroke-width="1"/>
        </g>
      </g>
      <g id="Group_5569" data-name="Group 5569" transform="translate(4093.343 6267.955)">
        <g id="Group_5555" data-name="Group 5555" transform="translate(5.451 2.694)">
          <path id="Path_24397" data-name="Path 24397" d="M4125.5,6270.089l-31.633,11.934-2.96,9.531c-.406,1.117-4.823,17.45-3.542,17.916l27.981-6.869,15.358,20.89c1.281.467,9.115-13.354,9.521-14.472l4.761-8.418-16.594-29.459A2.763,2.763,0,0,0,4125.5,6270.089Z" transform="translate(-4087.129 -6270.005)" fill="#c1d2ff"/>
        </g>
        <g id="Group_5556" data-name="Group 5556" transform="translate(5.835)">
          <path id="Path_24398" data-name="Path 24398" d="M4144.942,6282.883a2.423,2.423,0,1,1-4.553-1.656l-1.258-.459a2.423,2.423,0,1,1-4.553-1.657l-1.258-.457a2.424,2.424,0,1,1-4.554-1.657l-1.259-.458a2.423,2.423,0,1,1-4.553-1.656l-1.258-.459a2.423,2.423,0,1,1-4.553-1.657l-1.257-.457a2.424,2.424,0,1,1-4.555-1.657l-1.258-.457a2.424,2.424,0,1,1-4.554-1.657l-1.6-.582-16.5,45.336,42.714,15.545,16.5-45.337Z" transform="translate(-4087.422 -6267.956)" fill="#fff" stroke="#c1d2ff" stroke-width="1"/>
        </g>
        <g id="Group_5558" data-name="Group 5558" transform="translate(31.722 31.127)">
          <g id="Group_5557" data-name="Group 5557">
            <path id="Path_24399" data-name="Path 24399" d="M4107.959,6300.371l15.792-7.21a18.226,18.226,0,0,1,13.706-.358h0a1.888,1.888,0,0,1,1.391,2.232l-5.672,15.587-5.457,14.992c-.306.842-2.223,1.593-3.3,1.2l-6.608-2.4-10.544-22.141A1.385,1.385,0,0,1,4107.959,6300.371Z" transform="translate(-4107.121 -6291.642)" fill="#624aff"/>
          </g>
        </g>
        <g id="Group_5560" data-name="Group 5560" transform="translate(0.089 14.564)">
          <g id="Group_5559" data-name="Group 5559">
            <path id="Path_24400" data-name="Path 24400" d="M4114.541,6303.951l-7.464-15.673a18.228,18.228,0,0,0-10.269-9.083h0a1.89,1.89,0,0,0-2.5.815l-5.672,15.589-5.522,15.174a2.7,2.7,0,0,0,1.608,2.8l6.82,2.459,22.308-10.185A1.383,1.383,0,0,0,4114.541,6303.951Z" transform="translate(-4083.05 -6279.038)" fill="#624aff"/>
          </g>
        </g>
        <g id="Group_5562" data-name="Group 5562" transform="translate(0 33.711)">
          <g id="Group_5561" data-name="Group 5561">
            <path id="Path_24401" data-name="Path 24401" d="M4137.579,6318.738l-2.4,6.595a2.241,2.241,0,0,1-2.97.939L4084.743,6309a2.242,2.242,0,0,1-1.671-2.629l2.4-6.595,30.092-6.114a2.934,2.934,0,0,1,1.5.109,2.992,2.992,0,0,1,1.388.943Z" transform="translate(-4082.982 -6293.608)" fill="#624aff"/>
          </g>
        </g>
        <g id="Group_5565" data-name="Group 5565" transform="translate(2.489 33.889)" opacity="0.56">
          <g id="Group_5564" data-name="Group 5564">
            <g id="Group_5563" data-name="Group 5563">
              <path id="Path_24402" data-name="Path 24402" d="M4085.877,6296.982l25.43-3.239.269.564-26.7,5.425Z" transform="translate(-4084.876 -6293.743)" fill="#270c3c"/>
            </g>
          </g>
        </g>
        <g id="Group_5568" data-name="Group 5568" transform="translate(37.63 37.265)">
          <g id="Group_5567" data-name="Group 5567">
            <g id="Group_5566" data-name="Group 5566">
              <path id="Path_24403" data-name="Path 24403" d="M4129.586,6315.139l-17.4-18.825-.568.26,16.968,21.315Z" transform="translate(-4111.617 -6296.313)" fill="#270c3c" opacity="0.56"/>
            </g>
          </g>
        </g>
      </g>
      <g id="Group_5588" data-name="Group 5588" transform="translate(4212.731 6284.82)">
        <g id="Group_5575" data-name="Group 5575" transform="translate(11.897)">
          <g id="Group_5574" data-name="Group 5574">
            <g id="Group_5573" data-name="Group 5573">
              <g id="Group_5572" data-name="Group 5572">
                <g id="Group_5571" data-name="Group 5571">
                  <g id="Group_5570" data-name="Group 5570">
                    <path id="Path_24404" data-name="Path 24404" d="M4196.407,6280.789l-4.478,19.848-9.045-6.514Z" transform="translate(-4182.884 -6280.789)" fill="#9989ff"/>
                  </g>
                </g>
              </g>
            </g>
          </g>
        </g>
        <g id="Group_5581" data-name="Group 5581">
          <g id="Group_5580" data-name="Group 5580">
            <g id="Group_5579" data-name="Group 5579">
              <g id="Group_5578" data-name="Group 5578">
                <g id="Group_5577" data-name="Group 5577">
                  <g id="Group_5576" data-name="Group 5576">
                    <path id="Path_24405" data-name="Path 24405" d="M4199.25,6280.789l-17.082,11.7-8.337-2.068Z" transform="translate(-4173.832 -6280.789)" fill="#9989ff"/>
                  </g>
                </g>
              </g>
            </g>
          </g>
        </g>
        <g id="Group_5587" data-name="Group 5587" transform="translate(8.338)">
          <g id="Group_5586" data-name="Group 5586">
            <g id="Group_5585" data-name="Group 5585">
              <g id="Group_5584" data-name="Group 5584">
                <g id="Group_5583" data-name="Group 5583">
                  <g id="Group_5582" data-name="Group 5582">
                    <path id="Path_24406" data-name="Path 24406" d="M4197.257,6280.789l-13.522,13.334-2.352,5.771-1.207-7.406Z" transform="translate(-4180.176 -6280.789)" fill="#624aff"/>
                  </g>
                </g>
              </g>
            </g>
          </g>
        </g>
      </g>
    </g>
  </g>
</svg>
