<svg xmlns="http://www.w3.org/2000/svg" xmlns:xlink="http://www.w3.org/1999/xlink" width="20" height="20" viewBox="0 0 20 20">
  <defs>
    <clipPath id="clip-path">
      <rect id="Rectangle_31662" data-name="Rectangle 31662" width="20" height="20" transform="translate(711 370)" fill="#fff" stroke="#707070" stroke-width="1"/>
    </clipPath>
  </defs>
  <g id="icon_share" transform="translate(-711 -370)" clip-path="url(#clip-path)">
    <path id="Path_2000" data-name="Path 2000" d="M7.472,91.208l5.464,3.184m-.008-8.784L7.472,88.792M17.4,84.4A2.4,2.4,0,1,1,15,82,2.4,2.4,0,0,1,17.4,84.4ZM7.8,90a2.4,2.4,0,1,1-2.4-2.4A2.4,2.4,0,0,1,7.8,90Zm9.6,5.6A2.4,2.4,0,1,1,15,93.2,2.4,2.4,0,0,1,17.4,95.6Z" transform="translate(710.8 290)" fill="none" stroke="#fffdf5" stroke-linecap="round" stroke-linejoin="round" stroke-width="2"/>
  </g>
</svg>
