<svg xmlns="http://www.w3.org/2000/svg" xmlns:xlink="http://www.w3.org/1999/xlink" width="24" height="24" viewBox="0 0 24 24">
  <defs>
    <clipPath id="clip-path">
      <rect id="Rectangle_31670" data-name="Rectangle 31670" width="24" height="24" transform="translate(586 827)" fill="#fff" stroke="#707070" stroke-width="1"/>
    </clipPath>
  </defs>
  <g id="btn_setting_normal" transform="translate(-586 -827)" clip-path="url(#clip-path)">
    <g id="Path_1989" data-name="Path 1989" transform="translate(586 -813)" fill="none" stroke-linecap="round" stroke-linejoin="round">
      <path d="M12,1655a3,3,0,1,0-3-3A3,3,0,0,0,12,1655Z" stroke="none"/>
      <path d="M 12 1655 C 13.65690040588379 1655 15 1653.660034179688 15 1652 C 15 1650.339965820312 13.65690040588379 1649 12 1649 C 10.34309959411621 1649 9 1650.339965820312 9 1652 C 9 1653.660034179688 10.34309959411621 1655 12 1655 M 12 1657 C 9.242989540100098 1657 7 1654.756958007812 7 1652 C 7 1649.243041992188 9.242989540100098 1647 12 1647 C 14.7570104598999 1647 17 1649.243041992188 17 1652 C 17 1654.756958007812 14.7570104598999 1657 12 1657 Z" stroke="none" fill="#bcbcbd"/>
    </g>
    <g id="Path_1990" data-name="Path 1990" transform="translate(586 -813)" fill="none" stroke-linecap="round" stroke-linejoin="round">
      <path d="M18.727,1654.73a1.491,1.491,0,0,0-.1.87,1.462,1.462,0,0,0,.4.78l.055.06a1.838,1.838,0,0,1,.395.59,1.78,1.78,0,0,1,.139.69,1.817,1.817,0,0,1-.533,1.29,1.766,1.766,0,0,1-.59.39,1.8,1.8,0,0,1-1.392,0,1.767,1.767,0,0,1-.59-.39l-.055-.06a1.466,1.466,0,0,0-.781-.4,1.536,1.536,0,0,0-.873.1,1.512,1.512,0,0,0-.66.56,1.465,1.465,0,0,0-.249.82v.15a1.818,1.818,0,1,1-3.636,0v-.08a1.523,1.523,0,0,0-.279-.84,1.5,1.5,0,0,0-.7-.53,1.54,1.54,0,0,0-.873-.11,1.556,1.556,0,0,0-.781.41l-.055.05a1.961,1.961,0,0,1-.59.4,1.8,1.8,0,0,1-1.393,0,1.961,1.961,0,0,1-.59-.4,1.837,1.837,0,0,1-.395-.59,1.812,1.812,0,0,1,0-1.39,1.838,1.838,0,0,1,.395-.59l.055-.06a1.462,1.462,0,0,0,.4-.78,1.511,1.511,0,0,0-1.476-1.78H3.818a1.82,1.82,0,0,1,0-3.64H3.9a1.475,1.475,0,0,0,.838-.27,1.507,1.507,0,0,0,.535-.71,1.49,1.49,0,0,0,.1-.87,1.462,1.462,0,0,0-.4-.78l-.055-.06a1.839,1.839,0,0,1-.395-.59,1.78,1.78,0,0,1-.139-.69,1.818,1.818,0,0,1,.533-1.29,1.766,1.766,0,0,1,.59-.39,1.8,1.8,0,0,1,1.393,0,1.766,1.766,0,0,1,.59.39l.055.06a1.466,1.466,0,0,0,.781.4,1.536,1.536,0,0,0,.873-.1h.073a1.512,1.512,0,0,0,.66-.56,1.464,1.464,0,0,0,.249-.82v-.15a1.818,1.818,0,1,1,3.636,0v.08a1.488,1.488,0,0,0,.249.82,1.428,1.428,0,0,0,.66.55,1.539,1.539,0,0,0,.873.11,1.555,1.555,0,0,0,.781-.41l.055-.05a1.96,1.96,0,0,1,.59-.4,1.8,1.8,0,0,1,1.392,0,1.962,1.962,0,0,1,.59.4,1.838,1.838,0,0,1,.395.59,1.812,1.812,0,0,1,0,1.39,1.839,1.839,0,0,1-.395.59l-.055.06a1.463,1.463,0,0,0-.4.78,1.49,1.49,0,0,0,.1.87v.07a1.487,1.487,0,0,0,.551.66,1.5,1.5,0,0,0,.822.25h.155a1.82,1.82,0,0,1,1.286.53,1.829,1.829,0,0,1,0,2.58,1.82,1.82,0,0,1-1.286.53H20.1a1.5,1.5,0,0,0-.822.25A1.486,1.486,0,0,0,18.727,1654.73Z" stroke="none"/>
      <path d="M 12.07269954681396 1662 C 12.55490016937256 1662 13.01739978790283 1661.81005859375 13.35840034484863 1661.469970703125 C 13.69939994812012 1661.130004882812 13.89089965820312 1660.660034179688 13.89089965820312 1660.180053710938 L 13.89089965820312 1660.030029296875 C 13.89210033416748 1659.72998046875 13.97879981994629 1659.449951171875 14.14029979705811 1659.2099609375 C 14.30179977416992 1658.9599609375 14.53110027313232 1658.77001953125 14.80000019073486 1658.650024414062 C 15.07419967651367 1658.530029296875 15.37839984893799 1658.499877929688 15.67329978942871 1658.550048828125 C 15.96819972991943 1658.599975585938 16.24029922485352 1658.739990234375 16.45450019836426 1658.949951171875 L 16.50909996032715 1659.010009765625 C 16.67799949645996 1659.180053710938 16.87849998474121 1659.31005859375 17.09919929504395 1659.400024414062 C 17.31990051269531 1659.5 17.55649948120117 1659.5400390625 17.79549980163574 1659.5400390625 C 18.03440093994141 1659.5400390625 18.27099990844727 1659.5 18.49169921875 1659.400024414062 C 18.71240043640137 1659.31005859375 18.91300010681152 1659.180053710938 19.08180046081543 1659.010009765625 C 19.25090026855469 1658.839965820312 19.38500022888184 1658.640014648438 19.47649955749512 1658.420043945312 C 19.56800079345703 1658.199951171875 19.6151008605957 1657.9599609375 19.6151008605957 1657.719970703125 C 19.6151008605957 1657.47998046875 19.56800079345703 1657.25 19.47649955749512 1657.030029296875 C 19.38500022888184 1656.81005859375 19.25090026855469 1656.609985351562 19.08180046081543 1656.43994140625 L 19.02729988098145 1656.380004882812 C 18.81769943237305 1656.170043945312 18.67709922790527 1655.900024414062 18.62360000610352 1655.599975585938 C 18.57019996643066 1655.31005859375 18.60630035400391 1655 18.7273006439209 1654.72998046875 C 18.84250068664551 1654.4599609375 19.03389930725098 1654.22998046875 19.27779960632324 1654.069946289062 C 19.52169990539551 1653.910034179688 19.8075008392334 1653.819946289062 20.10000038146973 1653.819946289062 L 20.18180084228516 1653.819946289062 C 20.66399955749512 1653.819946289062 21.12649917602539 1653.630004882812 21.46750068664551 1653.2900390625 C 21.80839920043945 1652.93994140625 22 1652.47998046875 22 1652 C 22 1651.52001953125 21.80839920043945 1651.06005859375 21.46750068664551 1650.7099609375 C 21.12649917602539 1650.369995117188 20.66399955749512 1650.180053710938 20.18180084228516 1650.180053710938 L 20.02729988098145 1650.180053710938 C 19.73469924926758 1650.180053710938 19.44890022277832 1650.089965820312 19.20499992370605 1649.930053710938 C 18.96109962463379 1649.77001953125 18.76980018615723 1649.5400390625 18.65449905395508 1649.27001953125 L 18.65449905395508 1649.199951171875 C 18.53350067138672 1648.930053710938 18.49740028381348 1648.619995117188 18.55089950561523 1648.329956054688 C 18.60440063476562 1648.030029296875 18.7450008392334 1647.760009765625 18.95450019836426 1647.550048828125 L 19.00909996032715 1647.489990234375 C 19.1781005859375 1647.319946289062 19.31220054626465 1647.119995117188 19.40369987487793 1646.900024414062 C 19.49519920349121 1646.680053710938 19.54229927062988 1646.43994140625 19.54229927062988 1646.199951171875 C 19.54229927062988 1645.969970703125 19.49519920349121 1645.72998046875 19.40369987487793 1645.510009765625 C 19.31220054626465 1645.2900390625 19.1781005859375 1645.089965820312 19.00909996032715 1644.920043945312 C 18.84020042419434 1644.75 18.63969993591309 1644.619995117188 18.41900062561035 1644.52001953125 C 18.19829940795898 1644.430053710938 17.96170043945312 1644.380004882812 17.72270011901855 1644.380004882812 C 17.48380088806152 1644.380004882812 17.24720001220703 1644.430053710938 17.0265007019043 1644.52001953125 C 16.80570030212402 1644.619995117188 16.60519981384277 1644.75 16.43639945983887 1644.920043945312 L 16.38179969787598 1644.969970703125 C 16.16760063171387 1645.180053710938 15.89540004730225 1645.319946289062 15.60050010681152 1645.380004882812 C 15.30559730529785 1645.430053710938 15.00150012969971 1645.389892578125 14.72729969024658 1645.27001953125 C 14.45839977264404 1645.160034179688 14.22910022735596 1644.969970703125 14.06760025024414 1644.719970703125 C 13.9060001373291 1644.47998046875 13.81929969787598 1644.18994140625 13.81820011138916 1643.900024414062 L 13.81820011138916 1643.819946289062 C 13.81820011138916 1643.339965820312 13.62660026550293 1642.869995117188 13.28559970855713 1642.530029296875 C 12.94470024108887 1642.18994140625 12.48219966888428 1642 12 1642 C 11.51780033111572 1642 11.05529975891113 1642.18994140625 10.71440029144287 1642.530029296875 C 10.37339973449707 1642.869995117188 10.18179988861084 1643.339965820312 10.18179988861084 1643.819946289062 L 10.18179988861084 1643.969970703125 C 10.18070030212402 1644.27001953125 10.0939998626709 1644.550048828125 9.932450294494629 1644.7900390625 C 9.770930290222168 1645.0400390625 9.541609764099121 1645.22998046875 9.272729873657227 1645.349975585938 L 9.199999809265137 1645.349975585938 C 8.925800323486328 1645.469970703125 8.621640205383301 1645.500122070312 8.326740264892578 1645.449951171875 C 8.031829833984375 1645.400024414062 7.75970983505249 1645.260009765625 7.545450210571289 1645.050048828125 L 7.490910053253174 1644.989990234375 C 7.322050094604492 1644.819946289062 7.121520042419434 1644.68994140625 6.900800228118896 1644.599975585938 C 6.680079936981201 1644.5 6.443480014801025 1644.4599609375 6.204549789428711 1644.4599609375 C 5.965610027313232 1644.4599609375 5.729010105133057 1644.5 5.508289813995361 1644.599975585938 C 5.287569999694824 1644.68994140625 5.087039947509766 1644.819946289062 4.918179988861084 1644.989990234375 C 4.749129772186279 1645.160034179688 4.615029811859131 1645.359985351562 4.523530006408691 1645.579956054688 C 4.432030200958252 1645.800048828125 4.38493013381958 1646.0400390625 4.38493013381958 1646.280029296875 C 4.38493013381958 1646.52001953125 4.432030200958252 1646.75 4.523530006408691 1646.969970703125 C 4.615029811859131 1647.18994140625 4.749129772186279 1647.390014648438 4.918179988861084 1647.56005859375 L 4.972730159759521 1647.619995117188 C 5.182310104370117 1647.829956054688 5.32289981842041 1648.099975585938 5.376369953155518 1648.400024414062 C 5.429840087890625 1648.68994140625 5.393740177154541 1649 5.272729873657227 1649.27001953125 C 5.168829917907715 1649.56005859375 4.982359886169434 1649.800048828125 4.737539768218994 1649.97998046875 C 4.492730140686035 1650.150024414062 4.200900077819824 1650.25 3.900000095367432 1650.25 L 3.818180084228516 1650.25 C 3.335969924926758 1650.25 2.873509883880615 1650.449951171875 2.532530069351196 1650.7900390625 C 2.191560029983521 1651.130004882812 2 1651.589965820312 2 1652.069946289062 C 2 1652.550048828125 2.191560029983521 1653.02001953125 2.532530069351196 1653.359985351562 C 2.873509883880615 1653.699951171875 3.335969924926758 1653.890014648438 3.818180084228516 1653.890014648438 L 3.972729921340942 1653.890014648438 C 4.265260219573975 1653.890014648438 4.551070213317871 1653.97998046875 4.794970035552979 1654.140014648438 C 5.038869857788086 1654.300048828125 5.230219841003418 1654.530029296875 5.345449924468994 1654.800048828125 C 5.466469764709473 1655.069946289062 5.502570152282715 1655.380004882812 5.449100017547607 1655.670043945312 C 5.395619869232178 1655.969970703125 5.255030155181885 1656.239990234375 5.045450210571289 1656.449951171875 L 4.990910053253174 1656.510009765625 C 4.821859836578369 1656.680053710938 4.687749862670898 1656.880004882812 4.596260070800781 1657.099975585938 C 4.504759788513184 1657.319946289062 4.45766019821167 1657.56005859375 4.45766019821167 1657.800048828125 C 4.45766019821167 1658.030029296875 4.504759788513184 1658.27001953125 4.596260070800781 1658.489990234375 C 4.687749862670898 1658.7099609375 4.821859836578369 1658.910034179688 4.990910053253174 1659.079956054688 C 5.159770011901855 1659.25 5.360290050506592 1659.380004882812 5.581019878387451 1659.47998046875 C 5.801740169525146 1659.569946289062 6.038340091705322 1659.619995117188 6.277269840240479 1659.619995117188 C 6.516210079193115 1659.619995117188 6.752799987792969 1659.569946289062 6.973529815673828 1659.47998046875 C 7.194250106811523 1659.380004882812 7.394780158996582 1659.25 7.563640117645264 1659.079956054688 L 7.618179798126221 1659.030029296875 C 7.83243989944458 1658.819946289062 8.104559898376465 1658.680053710938 8.399470329284668 1658.619995117188 C 8.694367408752441 1658.569702148438 8.998529434204102 1658.609985351562 9.272729873657227 1658.72998046875 C 9.555210113525391 1658.829956054688 9.799909591674805 1659.02001953125 9.975009918212891 1659.260009765625 C 10.1500997543335 1659.510009765625 10.2475004196167 1659.800048828125 10.25450038909912 1660.099975585938 L 10.25450038909912 1660.180053710938 C 10.25450038909912 1660.660034179688 10.44610023498535 1661.130004882812 10.78709983825684 1661.469970703125 C 11.12810039520264 1661.81005859375 11.59049987792969 1662 12.07269954681396 1662 M 12.07269954681396 1664 C 11.0531702041626 1664 10.09502983093262 1663.604370117188 9.37477970123291 1662.886108398438 C 8.859089851379395 1662.371948242188 8.502658843994141 1661.712646484375 8.345365524291992 1661.00439453125 C 8.173827171325684 1661.115234375 7.991316795349121 1661.214599609375 7.798689842224121 1661.301879882812 C 7.775469779968262 1661.312377929688 7.752039909362793 1661.322387695312 7.728429794311523 1661.33203125 C 7.259650230407715 1661.523071289062 6.77140998840332 1661.619995117188 6.277269840240479 1661.619995117188 C 5.783120155334473 1661.619995117188 5.294869899749756 1661.523071289062 4.826089859008789 1661.33203125 C 4.802499771118164 1661.322387695312 4.77908992767334 1661.312377929688 4.755889892578125 1661.301879882812 C 4.301070213317871 1661.095825195312 3.902679920196533 1660.822509765625 3.57177996635437 1660.4892578125 C 3.21862006187439 1660.13427734375 2.941580057144165 1659.719604492188 2.749619960784912 1659.258056640625 C 2.558629989624023 1658.798950195312 2.457659959793091 1658.294677734375 2.457659959793091 1657.800048828125 C 2.457659959793091 1657.298828125 2.558629989624023 1656.791015625 2.749650001525879 1656.331909179688 C 2.825609683990479 1656.149169921875 2.914923429489136 1655.973876953125 3.017116785049438 1655.806640625 C 2.303520441055298 1655.655517578125 1.648193955421448 1655.302490234375 1.120440006256104 1654.7763671875 C 0.4083699882030487 1654.066284179688 -1.77635683940025e-15 1653.079956054688 -1.77635683940025e-15 1652.069946289062 C -1.77635683940025e-15 1651.051635742188 0.3978999853134155 1650.094116210938 1.120419979095459 1649.373779296875 C 1.637259721755981 1648.858276367188 2.293542623519897 1648.501342773438 2.994210481643677 1648.3427734375 C 2.871018409729004 1648.15185546875 2.765011310577393 1647.949829101562 2.676919937133789 1647.738159179688 C 2.483170032501221 1647.272338867188 2.384929895401001 1646.78173828125 2.384929895401001 1646.280029296875 C 2.384929895401001 1645.779052734375 2.485850095748901 1645.271484375 2.676769971847534 1644.812133789062 C 2.868730068206787 1644.350708007812 3.145600080490112 1643.936279296875 3.499840021133423 1643.579956054688 C 3.846599102020264 1643.230712890625 4.257111549377441 1642.955322265625 4.719699382781982 1642.761840820312 C 5.175981044769287 1642.5615234375 5.675296783447266 1642.4599609375 6.204549789428711 1642.4599609375 C 6.73379373550415 1642.4599609375 7.233108997344971 1642.5615234375 7.689390659332275 1642.761840820312 C 7.889394760131836 1642.845458984375 8.079669952392578 1642.944458007812 8.259322166442871 1643.058227539062 C 8.409182548522949 1642.326293945312 8.771333694458008 1641.64306640625 9.302330017089844 1641.113647460938 C 10.02204036712646 1640.395629882812 10.98025989532471 1640 12 1640 C 13.01974010467529 1640 13.97795963287354 1640.395629882812 14.69812965393066 1641.114135742188 C 15.20389461517334 1641.618408203125 15.55648231506348 1642.262329101562 15.71817398071289 1642.955322265625 C 15.87110710144043 1642.860595703125 16.03240776062012 1642.774658203125 16.2015209197998 1642.698120117188 C 16.22466087341309 1642.687622070312 16.24798965454102 1642.677612304688 16.27150917053223 1642.66796875 C 16.74027061462402 1642.476928710938 17.22851943969727 1642.380004882812 17.72270011901855 1642.380004882812 C 18.21693992614746 1642.380004882812 18.70523071289062 1642.476928710938 19.17399024963379 1642.66796875 C 19.1976203918457 1642.677612304688 19.22105026245117 1642.687744140625 19.24428939819336 1642.6982421875 C 19.69894027709961 1642.904174804688 20.09721946716309 1643.177490234375 20.42806053161621 1643.510620117188 C 20.78145027160645 1643.865966796875 21.05838966369629 1644.280517578125 21.25031089782715 1644.741821289062 C 21.44132995605469 1645.201049804688 21.54229927062988 1645.705322265625 21.54229927062988 1646.199951171875 C 21.54229927062988 1646.701171875 21.44132995605469 1647.208984375 21.25031089782715 1647.668090820312 C 21.16490173339844 1647.87353515625 21.06259727478027 1648.069580078125 20.94412040710449 1648.255493164062 C 21.67275810241699 1648.40185546875 22.34229278564453 1648.757934570312 22.87955093383789 1649.293579101562 C 22.88656044006348 1649.300537109375 22.89351081848145 1649.3076171875 22.90041923522949 1649.314697265625 C 23.60948944091797 1650.04296875 24 1650.99658203125 24 1652 C 24 1653.00341796875 23.60948944091797 1653.95703125 22.90041923522949 1654.685302734375 C 22.89351081848145 1654.6923828125 22.88656044006348 1654.699462890625 22.87955093383789 1654.706420898438 C 22.3676586151123 1655.216796875 21.73569297790527 1655.564086914062 21.04692459106445 1655.722412109375 C 21.15274047851562 1655.893920898438 21.24497413635254 1656.074096679688 21.32311058044434 1656.261840820312 C 21.51685905456543 1656.727661132812 21.6151008605957 1657.21826171875 21.6151008605957 1657.719970703125 C 21.6151008605957 1658.220947265625 21.51417922973633 1658.728515625 21.3232593536377 1659.187866210938 C 21.13125038146973 1659.6494140625 20.85429000854492 1660.06396484375 20.49992942810059 1660.420288085938 C 20.15370941162109 1660.76904296875 19.74319839477539 1661.04443359375 19.28046798706055 1661.238037109375 C 18.82416152954102 1661.4384765625 18.32478713989258 1661.5400390625 17.79549980163574 1661.5400390625 C 17.26614570617676 1661.5400390625 16.76674270629883 1661.4384765625 16.3104362487793 1661.238037109375 C 16.13421058654785 1661.164306640625 15.96554946899414 1661.078735351562 15.80502796173096 1660.981567382812 C 15.65036296844482 1661.698608398438 15.29180431365967 1662.366577148438 14.7704496383667 1662.886352539062 C 14.05047035217285 1663.604370117188 13.09230041503906 1664 12.07269954681396 1664 Z" stroke="none" fill="#bcbcbd"/>
    </g>
  </g>
</svg>
