<svg xmlns="http://www.w3.org/2000/svg" xmlns:xlink="http://www.w3.org/1999/xlink" width="44" height="52" viewBox="0 0 44 52">
  <defs>
    <linearGradient id="linear-gradient" x1="0.5" x2="0.5" y2="1" gradientUnits="objectBoundingBox">
      <stop offset="0" stop-color="#00b0ff"/>
      <stop offset="1" stop-color="#21f2f2"/>
    </linearGradient>
    <clipPath id="clip-path">
      <rect id="矩形_1533" data-name="矩形 1533" width="44" height="52" transform="translate(386.767 624.12)" fill="#fff" stroke="#707070" stroke-width="1" opacity="0.65"/>
    </clipPath>
    <clipPath id="clip-path-2">
      <rect id="矩形_1520" data-name="矩形 1520" width="43.365" height="52.124" fill="url(#linear-gradient)"/>
    </clipPath>
  </defs>
  <g id="蒙版组_46" data-name="蒙版组 46" transform="translate(-386.767 -624.12)" clip-path="url(#clip-path)">
    <g id="组_10207" data-name="组 10207" transform="translate(387.237 623.88)">
      <g id="组_10205" data-name="组 10205" transform="translate(0 0)" clip-path="url(#clip-path-2)">
        <path id="路径_8639" data-name="路径 8639" d="M36.9.235c-5.864,1.656-8.527,7.532-10.415,12.755a82.217,82.217,0,0,0-3.122,10.977A17.509,17.509,0,0,0,19.4,18.521,15.132,15.132,0,0,0,5.544,14.757c-2.111.566-4.882,2-5.412,4.322-.543,2.382.7,5.265,1.718,7.358,2.363,4.84,6.332,8.723,10.538,11.987,5.5,4.267,11.57,7.766,16.6,12.621a.7.7,0,0,0,.589.134l-.272.673c-.268.661,1.594-.085,1.7-.136A4.218,4.218,0,0,0,33.154,50c5.079-12.534,10.341-25.613,10.208-39.362C43.324,6.652,42.987-1.484,36.9.235M4.306,16.38c.068.061.02.118-.085.17.041-.109.073-.181.085-.17m-.378,1.077s.073-.246.156-.5c.354-.055.734-.158,1.046-.177a11.772,11.772,0,0,1,1.782.033c-.388.292-.651.6-.651.874V25.34c-.2-.366-.4-.735-.586-1.112-.93-1.9-2.133-4.6-1.747-6.771M9.513,29.964c-.069-.081-.136-.163-.2-.245.467-.323.8-.673.8-.981V17.5a15.314,15.314,0,0,1,2.878,1.312L13.4,33.883a39.929,39.929,0,0,1-3.885-3.918M17.2,36.975a.69.69,0,0,0,.164-.417l-.393-14.364a21.1,21.1,0,0,1,4.6,10.993q.055.667.136,1.331c.018.226.037.452.049.678a.193.193,0,0,0,.05.125,35.958,35.958,0,0,0,1.075,4.972c.161.551,4.137-1.142,3.825-2.208a35.273,35.273,0,0,1-1.078-5.04A84.264,84.264,0,0,1,28.6,16.476c.027-.092.056-.184.083-.276q-.113,6.71-.227,13.421-.07,4.175-.141,8.349c-.036,2.129-.483,4.756.788,6.622.552.811,3.413-1.27,3.714-1.8q.109-.191.209-.381-.921,2.453-1.892,4.887C26.788,43.5,21.81,40.454,17.2,36.975M33.774,40.39a7.647,7.647,0,0,0,.127-.778c.034-.3-.864-.13-1.8.257a36.6,36.6,0,0,1,.076-4.42q.071-4.174.141-8.349.138-8.182.276-16.364c.007-.408-1.2-.106-2.268.425.342-.948.7-1.89,1.077-2.821.64-1.564,2.387-6.429,4.569-5.824A3.323,3.323,0,0,1,37.682,3.7c-1.111.429-2.431,1.183-2.35,1.907a154.06,154.06,0,0,1,.751,25.32c-.01.192.282.216.709.127q-.264.954-.546,1.9c-.747,2.5-1.583,4.977-2.472,7.432" transform="translate(0 0)" fill="url(#linear-gradient)"/>
      </g>
    </g>
  </g>
</svg>
