<svg xmlns="http://www.w3.org/2000/svg" xmlns:xlink="http://www.w3.org/1999/xlink" width="156" height="56" viewBox="0 0 156 56">
  <defs>
    <clipPath id="clip-path">
      <rect id="Rectangle_31920" data-name="Rectangle 31920" width="156" height="56" transform="translate(-3 -4)" fill="#fff" stroke="#707070" stroke-width="1"/>
    </clipPath>
    <linearGradient id="linear-gradient" x1="0.021" x2="1" y2="1" gradientUnits="objectBoundingBox">
      <stop offset="0" stop-color="#624aff"/>
      <stop offset="0.348" stop-color="#9646ef"/>
      <stop offset="0.717" stop-color="#f73463"/>
      <stop offset="1" stop-color="#ff852e"/>
    </linearGradient>
    <filter id="Rectangle_31685" x="-4" y="-4" width="164" height="64" filterUnits="userSpaceOnUse">
      <feOffset input="SourceAlpha"/>
      <feGaussianBlur stdDeviation="4" result="blur"/>
      <feFlood flood-color="#624aff"/>
      <feComposite operator="in" in2="blur"/>
      <feComposite in="SourceGraphic"/>
    </filter>
    <linearGradient id="linear-gradient-2" x1="0.923" y1="0.217" x2="0.079" y2="0.184" gradientUnits="objectBoundingBox">
      <stop offset="0" stop-color="#fc6e3c"/>
      <stop offset="1" stop-color="#c5bcff"/>
    </linearGradient>
  </defs>
  <g id="btn_generate_normal" transform="translate(3 4)" clip-path="url(#clip-path)">
    <g transform="matrix(1, 0, 0, 1, -3, -4)" filter="url(#Rectangle_31685)">
      <rect id="Rectangle_31685-2" data-name="Rectangle 31685" width="140" height="40" rx="20" transform="translate(8 8)" fill="url(#linear-gradient)"/>
    </g>
    <path id="Rectangle_31685_-_Outline" data-name="Rectangle 31685 - Outline" d="M20,1a19.005,19.005,0,0,0-7.4,36.507A18.88,18.88,0,0,0,20,39H120a19.005,19.005,0,0,0,7.4-36.507A18.88,18.88,0,0,0,120,1H20m0-1H120a20,20,0,0,1,0,40H20A20,20,0,0,1,20,0Z" transform="translate(5 4)" fill="url(#linear-gradient-2)"/>
  </g>
</svg>
