<svg xmlns="http://www.w3.org/2000/svg" xmlns:xlink="http://www.w3.org/1999/xlink" width="18" height="18" viewBox="0 0 18 18">
  <defs>
    <clipPath id="clip-path">
      <rect id="Rectangle_31682" data-name="Rectangle 31682" width="18" height="18" transform="translate(35 110)" fill="#fff" stroke="#707070" stroke-width="1"/>
    </clipPath>
  </defs>
  <g id="icon_adv-setting" transform="translate(-35 -110)" clip-path="url(#clip-path)">
    <g id="Group_13804" data-name="Group 13804" transform="translate(-323.763 -619.5)">
      <path id="Path_175240" data-name="Path 175240" d="M7.808,1695.027l.438.99a1.637,1.637,0,0,0,.612.713,1.65,1.65,0,0,0,1.809,0,1.637,1.637,0,0,0,.612-.713l.438-.99a1.819,1.819,0,0,1,.75-.832,1.773,1.773,0,0,1,1.1-.233l1.073.113a1.593,1.593,0,0,0,.928-.172,1.632,1.632,0,0,0,.684-.645,1.673,1.673,0,0,0,.22-.923,1.65,1.65,0,0,0-.315-.885l-.635-.877a1.807,1.807,0,0,1-.345-1.073,1.838,1.838,0,0,1,.348-1.073l.635-.87a1.662,1.662,0,0,0,.1-1.807,1.7,1.7,0,0,0-.684-.652,1.65,1.65,0,0,0-.928-.165l-1.073.113a1.881,1.881,0,0,1-1.1-.233,1.83,1.83,0,0,1-.75-.84l-.442-.99a1.637,1.637,0,0,0-.612-.713,1.65,1.65,0,0,0-1.809,0,1.637,1.637,0,0,0-.612.713l-.438.99a1.83,1.83,0,0,1-.75.84,1.881,1.881,0,0,1-1.1.233l-1.076-.113a1.65,1.65,0,0,0-.928.165,1.7,1.7,0,0,0-.684.652,1.662,1.662,0,0,0,.1,1.807l.635.87a1.825,1.825,0,0,1,0,2.145l-.635.87a1.662,1.662,0,0,0-.1,1.807,1.7,1.7,0,0,0,.684.652,1.65,1.65,0,0,0,.927.165l1.072-.113a1.881,1.881,0,0,1,1.1.233A1.835,1.835,0,0,1,7.808,1695.027Z" transform="translate(358 -951)" fill="none" stroke="#fff" stroke-linecap="round" stroke-linejoin="round" stroke-width="2"/>
      <path id="Path_175241" data-name="Path 175241" d="M11.25,1693.5A2.25,2.25,0,1,0,9,1691.25,2.249,2.249,0,0,0,11.25,1693.5Z" transform="translate(356.511 -952.75)" fill="none" stroke="#fff" stroke-linecap="round" stroke-linejoin="round" stroke-width="2"/>
    </g>
  </g>
</svg>
