<svg xmlns="http://www.w3.org/2000/svg" xmlns:xlink="http://www.w3.org/1999/xlink" width="38" height="38" viewBox="0 0 38 38">
  <defs>
    <clipPath id="clip-path">
      <rect id="Rectangle_32006" data-name="Rectangle 32006" width="38" height="38" rx="8" transform="translate(261 25)" fill="#070c14"/>
    </clipPath>
  </defs>
  <g id="icon_eye_purple" transform="translate(-261 -25)" clip-path="url(#clip-path)">
    <path id="Path_175470" data-name="Path 175470" d="M306.682,102.692c7.322,0,13.579-7.843,16.1-11.5a3.217,3.217,0,0,0,0-3.683C320.261,83.843,314,76,306.682,76s-13.579,7.843-16.1,11.5a3.218,3.218,0,0,0,0,3.683C293.1,94.849,299.36,102.692,306.682,102.692Zm0-7.626a5.722,5.722,0,1,0-5.56-5.72A5.641,5.641,0,0,0,306.682,95.066Z" transform="translate(-26.683 -45.346)" fill="#fff" fill-rule="evenodd" opacity="0.25"/>
    <path id="Subtraction_7" data-name="Subtraction 7" d="M8849.681-4298.308c-3.178,0-6.491-1.474-9.851-4.379a38.653,38.653,0,0,1-6.251-7.125,3.222,3.222,0,0,1,0-3.683,38.633,38.633,0,0,1,6.251-7.126c3.359-2.905,6.673-4.378,9.851-4.378s6.493,1.473,9.852,4.378a38.628,38.628,0,0,1,6.252,7.126,3.222,3.222,0,0,1,0,3.683,38.658,38.658,0,0,1-6.252,7.125C8856.174-4299.782,8852.859-4298.308,8849.681-4298.308Zm0-19.065a5.647,5.647,0,0,0-5.559,5.719,5.648,5.648,0,0,0,5.559,5.721,5.649,5.649,0,0,0,5.561-5.721A5.648,5.648,0,0,0,8849.681-4317.374Z" transform="translate(-8569.683 4355.654)" fill="#9f91ff"/>
  </g>
</svg>
