<svg xmlns="http://www.w3.org/2000/svg" xmlns:xlink="http://www.w3.org/1999/xlink" width="20" height="20" viewBox="0 0 20 20">
  <defs>
    <clipPath id="clip-path">
      <rect id="Rectangle_31790" data-name="Rectangle 31790" width="20" height="20" fill="#fff" stroke="#707070" stroke-width="1"/>
    </clipPath>
  </defs>
  <g id="icon_magic" opacity="0.7" clip-path="url(#clip-path)">
    <path id="Path_175239" data-name="Path 175239" d="M5.981,19.813A2.182,2.182,0,0,1,2.9,19.665L.714,17.47a2.207,2.207,0,0,1-.147-3.1L13.9.962a2.182,2.182,0,0,1,3.085.148l2.182,2.2a2.207,2.207,0,0,1,.147,3.1ZM1.853,15.665a.448.448,0,0,0,.024.626l2.189,2.2a.444.444,0,0,0,.623.035v0L15.03,8.122l-2.9-2.8ZM18,4.486l-2.189-2.2a.444.444,0,0,0-.623-.035L13.423,4.03l2.9,2.8,1.707-1.717A.449.449,0,0,0,18,4.486ZM3.531,7.4C2.81,5.189,2.224,4.609,0,3.9,2.224,3.179,2.809,2.6,3.531.4c.722,2.208,1.307,2.787,3.532,3.5-2.225.707-2.809,1.289-3.532,3.5Zm12.937,5.991c.722,2.208,1.307,2.787,3.532,3.5-2.225.717-2.808,1.3-3.532,3.507-.721-2.208-1.307-2.788-3.531-3.5,2.224-.723,2.809-1.3,3.531-3.509Z" transform="translate(0 -0.394)" fill="#fff"/>
  </g>
</svg>
