<svg id="Group_13826" data-name="Group 13826" xmlns="http://www.w3.org/2000/svg" width="48" height="48" viewBox="0 0 48 48">
  <g id="Ellipse_3069" data-name="Ellipse 3069" fill="rgba(255,255,255,0.16)" stroke="rgba(255,255,255,0.12)" stroke-width="1">
    <circle cx="24" cy="24" r="24" stroke="none"/>
    <circle cx="24" cy="24" r="23.5" fill="none"/>
  </g>
  <path id="Path_1887" data-name="Path 1887" d="M21,1855v1.2a7.438,7.438,0,0,1-.327,3.16,2.931,2.931,0,0,1-1.311,1.31,7.39,7.39,0,0,1-3.162.33H7.8a7.39,7.39,0,0,1-3.162-.33,2.932,2.932,0,0,1-1.311-1.31A7.438,7.438,0,0,1,3,1856.2V1855m14-5-5,5m0,0-5-5m5,5v-12" transform="translate(12 -1829)" fill="none" stroke="#fff" stroke-linecap="round" stroke-linejoin="round" stroke-width="2"/>
</svg>
