<svg id="icon_coins" xmlns="http://www.w3.org/2000/svg" width="19.503" height="19.393" viewBox="0 0 19.503 19.393">
  <path id="减去_18" data-name="减去 18" d="M0,0H0A3.91,3.91,0,0,1,.061.5V4.16H4.94V2.941a2.33,2.33,0,0,0-1.4-1.866A9.522,9.522,0,0,0,0,0Z" transform="translate(4.94 16.849) rotate(180)" fill="#ffc107"/>
  <path id="减去_19" data-name="减去 19" d="M1.848,0h0V2.895a2.807,2.807,0,0,1-.5,1.6A4.379,4.379,0,0,1,0,5.733c3.649,0,6.618-1.312,6.618-2.924,0-.646-.467-1.259-1.351-1.771A9.429,9.429,0,0,0,1.849,0Z" transform="translate(6.728 15.583) rotate(180)" fill="#ffd54f"/>
  <path id="路径_160750" data-name="路径 160750" d="M385.219,384.522v1.219a6.375,6.375,0,0,1-1.219-.6V384h.133A6.258,6.258,0,0,0,385.219,384.522Zm2.438.579v1.219c-.427-.053-.834-.13-1.219-.217v-1.219A11.4,11.4,0,0,0,387.657,385.1Z" transform="translate(-382.781 -369.483)" fill="#ffe082"/>
  <path id="减去_20" data-name="减去 20" d="M1.281,0h0V1.714A3.076,3.076,0,0,1,0,4.152H6.161V2.934A2.318,2.318,0,0,0,4.777,1.079,9.43,9.43,0,0,0,1.281,0Z" transform="translate(6.161 14.403) rotate(180)" fill="#ffc107"/>
  <path id="减去_21" data-name="减去 21" d="M6.956,0h0V.432C6.959,3.066,3.465,4.458,0,4.669A11.3,11.3,0,0,0,5.107,5.733c3.649,0,6.618-1.312,6.618-2.925,0-.646-.467-1.258-1.351-1.771A9.433,9.433,0,0,0,6.956,0Z" transform="translate(11.836 13.121) rotate(180)" fill="#ffd54f"/>
  <path id="路径_160752" data-name="路径 160752" d="M385.219,320.522v1.219a6.38,6.38,0,0,1-1.219-.6V320h.133A6.258,6.258,0,0,0,385.219,320.522Zm2.438.579v1.219c-.427-.053-.834-.13-1.219-.217v-1.219A11.391,11.391,0,0,0,387.657,321.1Z" transform="translate(-382.781 -307.921)" fill="#ffe082"/>
  <path id="减去_22" data-name="减去 22" d="M8.439,0h0a4.33,4.33,0,0,1-2.8,2.652,13.444,13.444,0,0,1-5.032.9H.4l-.237,0L0,3.555v.608H13.409V2.944C13.409,1.566,11.365.355,8.44,0Z" transform="translate(13.409 11.976) rotate(180)" fill="#ffc107"/>
  <path id="减去_23" data-name="减去 23" d="M7.694,0h0a6.554,6.554,0,0,1-3,1.727,14.308,14.308,0,0,1-4.15.584H.184A1.564,1.564,0,0,0,0,3.038c0,1.7,2.969,3.078,6.619,3.078s6.618-1.381,6.618-3.078c0-.735-.566-1.446-1.592-2A10.142,10.142,0,0,0,7.694,0Z" transform="translate(13.347 10.733) rotate(180)" fill="#ffd54f"/>
  <path id="路径_160754" data-name="路径 160754" d="M385.219,256.522v1.219a6.376,6.376,0,0,1-1.219-.6V256h.133A6.258,6.258,0,0,0,385.219,256.522Zm2.438.579v1.219c-.427-.053-.834-.13-1.219-.217v-1.219A11.391,11.391,0,0,0,387.657,257.1Z" transform="translate(-382.781 -246.359)" fill="#ffe082"/>
  <path id="减去_24" data-name="减去 24" d="M6.7,0c-.131,0-.265,0-.4.005A12.046,12.046,0,0,1,1.37,1.2,2.309,2.309,0,0,0,0,3.048V4.266H13.408V3.048C13.408,1.367,10.4,0,6.7,0Z" transform="translate(13.409 9.641) rotate(180)" fill="#ffc107"/>
  <ellipse id="椭圆_2980" data-name="椭圆 2980" cx="6.618" cy="3.232" rx="6.618" ry="3.232" transform="translate(0.111 2.155)" fill="#ffd54f"/>
  <path id="路径_160756" data-name="路径 160756" d="M385.219,192.522v1.219a6.378,6.378,0,0,1-1.219-.6V192h.133A6.253,6.253,0,0,0,385.219,192.522Zm2.438.579v1.219c-.427-.053-.834-.13-1.219-.217v-1.219A11.4,11.4,0,0,0,387.657,193.1Z" transform="translate(-382.781 -184.797)" fill="#ffe082"/>
  <path id="路径_160757" data-name="路径 160757" d="M173.409,80v1.219c0,1.684-3,3.047-6.7,3.047S160,82.9,160,81.219V80Z" transform="translate(-160 -77.063)" fill="#ffc107"/>
  <ellipse id="椭圆_2981" data-name="椭圆 2981" cx="6.618" cy="2.924" rx="6.618" ry="2.924" transform="translate(0.111 0)" fill="#ffd54f"/>
  <path id="路径_160758" data-name="路径 160758" d="M385.219,128.522v1.219a6.376,6.376,0,0,1-1.219-.6V128h.133A6.257,6.257,0,0,0,385.219,128.522Zm2.438.579v1.219c-.427-.053-.834-.13-1.219-.217v-1.219A11.4,11.4,0,0,0,387.657,129.1Z" transform="translate(-382.781 -123.235)" fill="#ffe082"/>
  <path id="路径_160760" data-name="路径 160760" d="M13.409,400v1.219c0,1.684-3,3.047-6.7,3.047S0,402.9,0,401.219V400Z" transform="translate(6.095 -384.874)" fill="#ffc107"/>
  <ellipse id="椭圆_2982" data-name="椭圆 2982" cx="6.772" cy="3.078" rx="6.772" ry="3.078" transform="translate(5.959 12.005)" fill="#ffd54f"/>
  <path id="路径_160761" data-name="路径 160761" d="M225.219,448.522v1.219a6.374,6.374,0,0,1-1.219-.6V448h.133A6.256,6.256,0,0,0,225.219,448.522Zm2.438.579v1.219c-.427-.053-.834-.13-1.219-.217v-1.219A11.4,11.4,0,0,0,227.657,449.1Z" transform="translate(-216.686 -431.045)" fill="#ffe082"/>
  <path id="路径_160762" data-name="路径 160762" d="M13.409,336v1.219c0,1.684-3,3.047-6.7,3.047S0,338.9,0,337.219V336Z" transform="translate(6.095 -323.311)" fill="#ffc107"/>
  <ellipse id="椭圆_2983" data-name="椭圆 2983" cx="6.772" cy="2.924" rx="6.772" ry="2.924" transform="translate(5.959 9.85)" fill="#ffd54f"/>
  <path id="路径_160763" data-name="路径 160763" d="M225.219,384.522v1.219a6.374,6.374,0,0,1-1.219-.6V384h.133A6.258,6.258,0,0,0,225.219,384.522Zm2.438.579v1.219c-.427-.053-.834-.13-1.219-.217v-1.219A11.4,11.4,0,0,0,227.657,385.1Z" transform="translate(-216.686 -369.483)" fill="#ffe082"/>
</svg>
