<svg xmlns="http://www.w3.org/2000/svg" xmlns:xlink="http://www.w3.org/1999/xlink" width="81" height="81" viewBox="0 0 81 81">
  <defs>
    <clipPath id="clip-path">
      <rect id="Rectangle_31679" data-name="Rectangle 31679" width="81" height="81" transform="translate(321 1189)" fill="none" stroke="#707070" stroke-width="1"/>
    </clipPath>
  </defs>
  <g id="icon_hd" transform="translate(-321 -1189)" clip-path="url(#clip-path)">
    <g id="Group_13770" data-name="Group 13770" transform="translate(326.794 1201.51)">
      <path id="Path_161650" data-name="Path 161650" d="M78.825,59.153a5.335,5.335,0,0,1-5.319,5.319H20.318A5.335,5.335,0,0,1,15,59.153V20.318A5.334,5.334,0,0,1,20.318,15H73.506a5.334,5.334,0,0,1,5.319,5.318Zm0,0" transform="translate(-13.014 -13.014)" fill="#e7f0ef"/>
      <path id="Path_161651" data-name="Path 161651" d="M282.594,15H256V64.472h26.594a5.335,5.335,0,0,0,5.319-5.319V20.318A5.334,5.334,0,0,0,282.594,15Zm0,0" transform="translate(-224.101 -13.014)" fill="#c5e1e6"/>
      <path id="Path_161652" data-name="Path 161652" d="M60.493,0H7.3A7.313,7.313,0,0,0,0,7.3V46.139a7.313,7.313,0,0,0,7.3,7.305H60.493a7.313,7.313,0,0,0,7.305-7.3V7.3A7.313,7.313,0,0,0,60.493,0Zm3.333,46.139a3.336,3.336,0,0,1-3.333,3.333H7.3a3.337,3.337,0,0,1-3.332-3.333V7.3A3.336,3.336,0,0,1,7.3,3.973H60.493A3.336,3.336,0,0,1,63.825,7.3Zm0,0" fill="#265c76"/>
      <path id="Path_161653" data-name="Path 161653" d="M137.565,79.87H112.141a7.313,7.313,0,0,0-7.3,7.305v17.681a7.313,7.313,0,0,0,7.3,7.3h25.424a7.313,7.313,0,0,0,7.3-7.3V87.175a7.313,7.313,0,0,0-7.3-7.305Zm0,0" transform="translate(-92.954 -69.294)" fill="#ffd400"/>
      <path id="Path_161654" data-name="Path 161654" d="M268.712,79.87H256v32.291h12.712a7.313,7.313,0,0,0,7.3-7.3V87.175a7.313,7.313,0,0,0-7.3-7.305Zm0,0" transform="translate(-224.101 -69.294)" fill="#ff9f04"/>
      <path id="Path_161655" data-name="Path 161655" d="M172.674,138.57c-1.172,0-1.977.547-2.052,1.4l-.438,5.01h-3.591l.429-4.906a1.194,1.194,0,0,0-.313-.934,2.146,2.146,0,0,0-1.588-.565c-1.172,0-1.977.548-2.052,1.4l-1.209,13.829a1.207,1.207,0,0,0,.32.943,2.129,2.129,0,0,0,1.58.578c.929,0,1.968-.443,2.053-1.417l.486-5.562h3.591l-.477,5.459a1.2,1.2,0,0,0,.321.942,2.128,2.128,0,0,0,1.579.578c.93,0,1.968-.443,2.053-1.417l1.21-13.829a1.2,1.2,0,0,0-.313-.934,2.152,2.152,0,0,0-1.589-.565Zm0,0" transform="translate(-142.423 -120.221)" fill="#265c76"/>
      <g id="Group_13769" data-name="Group 13769" transform="translate(31.899)">
        <path id="Path_161656" data-name="Path 161656" d="M269.984,140.05a5.284,5.284,0,0,0-4.077-1.48h-3.766a1.746,1.746,0,0,0-1.881,1.4l-1.212,13.852a1.239,1.239,0,0,0,.335.952,1.855,1.855,0,0,0,1.4.547h3.766c3.525,0,5.719-1.974,6.02-5.416l.509-5.808a5.09,5.09,0,0,0-1.09-4.041ZM264.758,151.7H263.2l.832-9.51h1.667a1.466,1.466,0,0,1,1.12.372,1.849,1.849,0,0,1,.306,1.427l-.508,5.808c-.114,1.3-.7,1.9-1.855,1.9Zm0,0" transform="translate(-258.641 -120.221)" fill="#1d4659"/>
        <path id="Path_161657" data-name="Path 161657" d="M284.162,0H256V3.973h28.162A3.439,3.439,0,0,1,287.692,7.3V46.139a3.439,3.439,0,0,1-3.529,3.333H256c0,4.821-.032,3.972,5.483,3.972h22.679a7.538,7.538,0,0,0,7.736-7.3V7.3A7.538,7.538,0,0,0,284.162,0Zm0,0" transform="translate(-256)" fill="#1d4659"/>
      </g>
      <path id="Polygon_4" data-name="Polygon 4" d="M9.7.9a1,1,0,0,1,1.524,0l8.3,9.767a1,1,0,0,1-.762,1.648H2.162A1,1,0,0,1,1.4,10.663Z" transform="translate(46.435 37.214) rotate(-90)" fill="#ff9f04"/>
    </g>
  </g>
</svg>
