<svg id="icon_big_video" xmlns="http://www.w3.org/2000/svg" width="75.001" height="75" viewBox="0 0 75.001 75">
  <path id="icon_big_video-2" data-name="icon_big_video" d="M37.5,75A37.5,37.5,0,1,1,75,37.5,37.542,37.542,0,0,1,37.5,75Zm-5.77-54.912a2.884,2.884,0,0,0-2.883,2.885V53.6a2.873,2.873,0,0,0,1.576,2.569,2.9,2.9,0,0,0,1.308.313,2.865,2.865,0,0,0,1.7-.552L54.483,40.619a2.884,2.884,0,0,0,0-4.667L33.425,20.641A2.867,2.867,0,0,0,31.728,20.089Z" transform="translate(0.002 -0.001)" fill="#fff"/>
</svg>
