<svg xmlns="http://www.w3.org/2000/svg" xmlns:xlink="http://www.w3.org/1999/xlink" width="200" height="90" viewBox="0 0 200 90">
  <defs>
    <clipPath id="clip-path">
      <rect id="矩形_30343" data-name="矩形 30343" width="200" height="90" transform="translate(415 216)" fill="#fff" stroke="#707070" stroke-width="1"/>
    </clipPath>
  </defs>
  <g id="ico_send_email_in" transform="translate(-415 -216)" clip-path="url(#clip-path)">
    <g id="组_5589" data-name="组 5589" transform="translate(-3629.074 -6045.241)">
      <g id="组_5554" data-name="组 5554" transform="translate(4049.998 6283.409)">
        <g id="组_5553" data-name="组 5553">
          <path id="路径_24396" data-name="路径 24396" d="M4096.74,6340.83a.5.5,0,0,1-.5-.44,38.278,38.278,0,0,0-.926-4.856.5.5,0,1,1,.97-.248,38.915,38.915,0,0,1,.95,4.984.5.5,0,0,1-.438.558.312.312,0,0,1-.057,0Zm-3.028-11.262a.5.5,0,0,1-.466-.313c-.6-1.506-1.288-3.032-2.037-4.534a.5.5,0,1,1,.9-.449c.761,1.527,1.459,3.079,2.071,4.608a.5.5,0,0,1-.46.689Zm-30.452-3.7a.5.5,0,0,1-.027-1,17.058,17.058,0,0,0,4.755-.963.5.5,0,1,1,.337.945,18.061,18.061,0,0,1-5.036,1.02Zm-6.541-1.046a.521.521,0,0,1-.2-.04,10.857,10.857,0,0,1-4.19-3.078.5.5,0,1,1,.774-.637,9.873,9.873,0,0,0,3.811,2.792.5.5,0,0,1-.2.962Zm17.167-3.312a.5.5,0,0,1-.319-.888,30.07,30.07,0,0,0,3.51-3.452.5.5,0,1,1,.754.659,31.112,31.112,0,0,1-3.626,3.566.5.5,0,0,1-.315.115Zm115.2-1.977h-.021c-.193-.01-.387-.019-.579-.031a27.6,27.6,0,0,1-4.468-.659.5.5,0,0,1,.227-.977,26.479,26.479,0,0,0,4.306.635c.185.012.372.021.558.028a.5.5,0,0,1-.021,1Zm-100.711-.351a.5.5,0,0,1-.423-.233c-.905-1.426-1.859-2.8-2.834-4.081a.5.5,0,1,1,.8-.605c.992,1.306,1.962,2.7,2.883,4.149a.5.5,0,0,1-.423.771Zm107.353-.184a.5.5,0,0,1-.1-.993,34.173,34.173,0,0,0,4.753-1.317.5.5,0,1,1,.333.945,35.593,35.593,0,0,1-4.894,1.356.578.578,0,0,1-.091.012Zm-17.885-2.357a.469.469,0,0,1-.213-.048,41.467,41.467,0,0,1-4.436-2.453.5.5,0,1,1,.536-.848,40.12,40.12,0,0,0,4.329,2.395.5.5,0,0,1-.214.954Zm-127.341-.92a.5.5,0,0,1-.5-.492v-.221a12.976,12.976,0,0,1,.98-4.866.5.5,0,0,1,.928.38,11.976,11.976,0,0,0-.905,4.485v.2a.5.5,0,0,1-.492.512Zm156.157-.753a.5.5,0,0,1-.231-.943c1.393-.729,2.806-1.536,4.318-2.471a.5.5,0,0,1,.526.854c-1.533.946-2.965,1.766-4.38,2.5a.521.521,0,0,1-.232.063Zm-125.157-2.282a.486.486,0,0,1-.282-.088.5.5,0,0,1-.13-.7c.791-1.151,1.572-2.339,2.329-3.488l.444-.675a.5.5,0,0,1,.837.55l-.444.676c-.758,1.152-1.542,2.346-2.339,3.5a.5.5,0,0,1-.418.229Zm86.552-2.392a.5.5,0,0,1-.317-.112c-1.237-1.007-2.482-2.088-3.807-3.306a.5.5,0,1,1,.678-.738c1.311,1.205,2.542,2.273,3.764,3.267a.5.5,0,0,1-.317.89Zm-86.94-.247a.5.5,0,0,1-.349-.142,32.188,32.188,0,0,0-3.782-3.162.5.5,0,1,1,.578-.817,33.116,33.116,0,0,1,3.9,3.26.5.5,0,0,1-.349.86Zm135.464-1.259a.5.5,0,0,1-.289-.912c1.424-1,2.824-2.015,3.885-2.789a.5.5,0,1,1,.59.81c-1.063.777-2.469,1.8-3.9,2.8a.5.5,0,0,1-.285.094Zm-161.139-3.211a.5.5,0,0,1-.3-.9,14.792,14.792,0,0,1,4.6-2.328.5.5,0,0,1,.294.96,13.766,13.766,0,0,0-4.294,2.166.5.5,0,0,1-.3.1Zm15.942-1.847a.505.505,0,0,1-.168-.029l-.335-.117a18.743,18.743,0,0,0-4.422-.917.5.5,0,1,1,.084-1,19.675,19.675,0,0,1,4.659.968c.117.039.234.08.351.121a.5.5,0,0,1-.168.974Zm16.688-.721a.5.5,0,0,1-.4-.8c1.023-1.4,2.059-2.746,3.074-3.991a.5.5,0,1,1,.777.636c-1,1.229-2.028,2.559-3.041,3.947a.5.5,0,0,1-.41.21Zm71.406-.658a.5.5,0,0,1-.356-.148c-.381-.387-.768-.782-1.183-1.209l-.2-.2c-.692-.712-1.41-1.45-2.122-2.177a.5.5,0,0,1,.716-.7c.713.729,1.431,1.468,2.125,2.182l.2.2c.414.426.8.818,1.177,1.2a.5.5,0,0,1-.357.854Zm-8.25-8.289a.5.5,0,0,1-.345-.137c-1.306-1.239-2.518-2.331-3.7-3.337a.5.5,0,1,1,.648-.765c1.2,1.02,2.421,2.123,3.743,3.374a.5.5,0,0,1-.345.864Zm-55.648,0a.5.5,0,0,1-.357-.853c1.209-1.229,2.452-2.389,3.693-3.448a.5.5,0,0,1,.651.763c-1.218,1.04-2.441,2.182-3.63,3.389a.494.494,0,0,1-.354.148Zm9.015-7.407a.5.5,0,0,1-.27-.924,42.674,42.674,0,0,1,4.428-2.467.5.5,0,1,1,.434.9,41.606,41.606,0,0,0-4.322,2.409.5.5,0,0,1-.273.079Zm37.607,0a.505.505,0,0,1-.28-.086,42.118,42.118,0,0,0-4.251-2.528.5.5,0,1,1,.458-.892,43.06,43.06,0,0,1,4.354,2.588.5.5,0,0,1-.28.918Zm-26.994-4.807a.5.5,0,0,1-.135-.984,35,35,0,0,1,4.978-1.02.5.5,0,1,1,.126,1,33.586,33.586,0,0,0-4.832.991.536.536,0,0,1-.142.016Zm16.492-.208a.547.547,0,0,1-.135-.019c-.891-.249-1.8-.455-2.7-.614-.7-.123-1.42-.222-2.137-.29a.5.5,0,0,1,.094-1c.744.071,1.489.173,2.217.3.929.165,1.867.378,2.79.636a.5.5,0,0,1-.134.984Z" transform="translate(-4049.999 -6279.715)" fill="#92acff" stroke="#86a2ff" stroke-linecap="round" stroke-width="1"/>
        </g>
      </g>
      <g id="组_5569" data-name="组 5569" transform="translate(4093.343 6267.955)">
        <g id="组_5555" data-name="组 5555" transform="translate(5.451 2.694)">
          <path id="路径_24397" data-name="路径 24397" d="M4125.5,6270.09l-31.633,11.934-2.96,9.531c-.406,1.117-4.823,17.45-3.542,17.916l27.981-6.869,15.358,20.89c1.281.467,9.115-13.354,9.521-14.472l4.761-8.418-16.594-29.459a2.762,2.762,0,0,0-2.892-1.052Z" transform="translate(-4087.129 -6270.005)" fill="#0531bf"/>
        </g>
        <g id="组_5556" data-name="组 5556" transform="translate(5.835)">
          <path id="路径_24398" data-name="路径 24398" d="M4144.94,6282.88a2.422,2.422,0,1,1-4.553-1.656l-1.258-.459a2.423,2.423,0,1,1-4.553-1.657l-1.258-.457a2.424,2.424,0,1,1-4.555-1.657l-1.258-.458a2.423,2.423,0,1,1-4.554-1.656l-1.257-.459a2.423,2.423,0,0,1-4.553-1.657l-1.257-.458a2.424,2.424,0,0,1-4.556-1.658l-1.257-.457a2.424,2.424,0,1,1-4.554-1.658l-1.6-.582-16.5,45.336,42.714,15.545,16.5-45.337Z" transform="translate(-4087.422 -6267.956)" fill="#fff" stroke="#567cf8" stroke-width="1"/>
        </g>
        <g id="组_5558" data-name="组 5558" transform="translate(31.722 31.127)">
          <g id="组_5557" data-name="组 5557">
            <path id="路径_24399" data-name="路径 24399" d="M4107.96,6300.37l15.792-7.21a18.228,18.228,0,0,1,13.706-.358h0a1.888,1.888,0,0,1,1.391,2.232l-5.672,15.587-5.457,14.992c-.306.842-2.223,1.593-3.3,1.2l-6.608-2.4-10.544-22.141a1.385,1.385,0,0,1,.691-1.9Z" transform="translate(-4107.121 -6291.642)" fill="#0e45f5"/>
          </g>
        </g>
        <g id="组_5560" data-name="组 5560" transform="translate(0.089 14.564)">
          <g id="组_5559" data-name="组 5559">
            <path id="路径_24400" data-name="路径 24400" d="M4114.54,6303.95l-7.464-15.673a18.23,18.23,0,0,0-10.269-9.083h0a1.891,1.891,0,0,0-2.5.815l-5.672,15.589-5.522,15.174a2.7,2.7,0,0,0,1.608,2.8l6.82,2.459,22.308-10.185a1.383,1.383,0,0,0,.691-1.9Z" transform="translate(-4083.05 -6279.038)" fill="#0e45f5"/>
          </g>
        </g>
        <g id="组_5562" data-name="组 5562" transform="translate(0 33.711)">
          <g id="组_5561" data-name="组 5561">
            <path id="路径_24401" data-name="路径 24401" d="M4137.58,6318.74l-2.4,6.6a2.241,2.241,0,0,1-2.97.939L4084.74,6309a2.241,2.241,0,0,1-1.671-2.628l2.4-6.6,30.092-6.114a2.938,2.938,0,0,1,1.5.109,3,3,0,0,1,1.388.942Z" transform="translate(-4082.982 -6293.608)" fill="#295cff"/>
          </g>
        </g>
        <g id="组_5565" data-name="组 5565" transform="translate(2.489 33.889)" opacity="0.56">
          <g id="组_5564" data-name="组 5564">
            <g id="组_5563" data-name="组 5563">
              <path id="路径_24402" data-name="路径 24402" d="M4085.88,6296.98l25.43-3.239.269.564-26.7,5.425Z" transform="translate(-4084.876 -6293.743)" fill="#270c3c"/>
            </g>
          </g>
        </g>
        <g id="组_5568" data-name="组 5568" transform="translate(37.63 37.265)">
          <g id="组_5567" data-name="组 5567">
            <g id="组_5566" data-name="组 5566">
              <path id="路径_24403" data-name="路径 24403" d="M4129.59,6315.14l-17.4-18.825-.568.26,16.968,21.315Z" transform="translate(-4111.617 -6296.313)" fill="#270c3c" opacity="0.56"/>
            </g>
          </g>
        </g>
      </g>
      <g id="组_5588" data-name="组 5588" transform="translate(4212.731 6284.82)">
        <g id="组_5575" data-name="组 5575" transform="translate(11.897)">
          <g id="组_5574" data-name="组 5574">
            <g id="组_5573" data-name="组 5573">
              <g id="组_5572" data-name="组 5572">
                <g id="组_5571" data-name="组 5571">
                  <g id="组_5570" data-name="组 5570">
                    <path id="路径_24404" data-name="路径 24404" d="M4196.41,6280.79l-4.478,19.848-9.045-6.514Z" transform="translate(-4182.884 -6280.789)" fill="#567cf8"/>
                  </g>
                </g>
              </g>
            </g>
          </g>
        </g>
        <g id="组_5581" data-name="组 5581">
          <g id="组_5580" data-name="组 5580">
            <g id="组_5579" data-name="组 5579">
              <g id="组_5578" data-name="组 5578">
                <g id="组_5577" data-name="组 5577">
                  <g id="组_5576" data-name="组 5576">
                    <path id="路径_24405" data-name="路径 24405" d="M4199.25,6280.79l-17.082,11.7-8.337-2.068Z" transform="translate(-4173.832 -6280.789)" fill="#567cf8"/>
                  </g>
                </g>
              </g>
            </g>
          </g>
        </g>
        <g id="组_5587" data-name="组 5587" transform="translate(8.338)">
          <g id="组_5586" data-name="组 5586">
            <g id="组_5585" data-name="组 5585">
              <g id="组_5584" data-name="组 5584">
                <g id="组_5583" data-name="组 5583">
                  <g id="组_5582" data-name="组 5582">
                    <path id="路径_24406" data-name="路径 24406" d="M4197.26,6280.79l-13.522,13.334-2.352,5.771-1.207-7.406Z" transform="translate(-4180.176 -6280.789)" fill="#0e45f5"/>
                  </g>
                </g>
              </g>
            </g>
          </g>
        </g>
      </g>
    </g>
  </g>
</svg>
