<svg xmlns="http://www.w3.org/2000/svg" width="20" height="20" viewBox="0 0 20 20">
  <g id="password_see" transform="translate(2.467 3.625)">
    <g id="Rectangle_2317" data-name="Rectangle 2317" transform="translate(-2.467 -3.625)" fill="#fff" stroke="#707070" stroke-width="1" opacity="0">
      <rect width="20" height="20" stroke="none"/>
      <rect x="0.5" y="0.5" width="19" height="19" fill="none"/>
    </g>
    <path id="Vector" d="M5.513,2.756A2.756,2.756,0,1,1,2.756,0,2.754,2.754,0,0,1,5.513,2.756Z" transform="translate(4.777 3.619)" fill="none" stroke="#8c8c97" stroke-linecap="round" stroke-linejoin="round" stroke-width="1.5"/>
    <path id="Vector-2" data-name="Vector" d="M7.534,12.742c2.718,0,5.251-1.6,7.014-4.373a4.1,4.1,0,0,0,0-4C12.785,1.6,10.252,0,7.534,0S2.283,1.6.52,4.373a4.1,4.1,0,0,0,0,4C2.283,11.141,4.816,12.742,7.534,12.742Z" fill="none" stroke="#8c8c97" stroke-linecap="round" stroke-linejoin="round" stroke-width="1.5"/>
  </g>
</svg>
