<svg xmlns="http://www.w3.org/2000/svg" xmlns:xlink="http://www.w3.org/1999/xlink" width="16" height="16" viewBox="0 0 16 16">
  <defs>
    <clipPath id="clip-path">
      <rect id="Rectangle_31801" data-name="Rectangle 31801" width="16" height="16" transform="translate(201.15 439.15)" fill="#fff" stroke="#707070" stroke-width="1"/>
    </clipPath>
  </defs>
  <g id="icon_hot" transform="translate(-201.15 -439.15)" clip-path="url(#clip-path)">
    <g id="Group_13813" data-name="Group 13813" transform="translate(199.779 438.603)">
      <path id="Path_175244" data-name="Path 175244" d="M9.337,16.1A5.674,5.674,0,0,1,3.5,10.4a5.25,5.25,0,0,1,.618-2.747,7.055,7.055,0,0,1,.961-1.236c.137-.069.206-.206.343-.343L5.629,5.8a3.323,3.323,0,0,0,.755-1.03A7.957,7.957,0,0,0,7,1.684a.66.66,0,0,1,.412-.618.632.632,0,0,1,.687.069l.343.275A9.716,9.716,0,0,1,10.916,3.95a12.93,12.93,0,0,1,1.236,2.609,3.619,3.619,0,0,0,.343-1.03.838.838,0,0,1,.549-.618.69.69,0,0,1,.755.343,8.351,8.351,0,0,1,.961,2.2,8.857,8.857,0,0,1,.481,2.884A5.923,5.923,0,0,1,9.337,16.1ZM8.238,3.057a7.636,7.636,0,0,1-.687,2.4,8.348,8.348,0,0,1-.893,1.3l-.206.206a1.821,1.821,0,0,0-.343.412c-.275.343-.481.549-.824,1.03a4.2,4.2,0,0,0-.412,2.06A4.383,4.383,0,0,0,9.337,14.8,4.454,4.454,0,0,0,13.8,10.336a5.83,5.83,0,0,0-.412-2.4,1.747,1.747,0,0,1-.137-.481,3.537,3.537,0,0,1-.961,1.03.737.737,0,0,1-.755.069.789.789,0,0,1-.412-.618,11.193,11.193,0,0,0-1.3-3.227A7.275,7.275,0,0,0,8.238,3.057Z" fill="#fff"/>
    </g>
  </g>
</svg>
